<mxfile host="Electron" modified="2023-05-05T14:07:52.164Z" agent="Mozilla/5.0 (X11; Linux x86_64) AppleWebKit/537.36 (KHTML, like Gecko) draw.io/21.1.2 Chrome/106.0.5249.199 Electron/21.4.3 Safari/537.36" etag="ZMZEFgOSUNuEhiyxdLMQ" version="21.1.2" type="device">
  <diagram id="7Ece3JteHy_LlrUzWMNr" name="Page-1">
    <mxGraphModel dx="1434" dy="875" grid="1" gridSize="10" guides="1" tooltips="1" connect="1" arrows="1" fold="1" page="1" pageScale="1" pageWidth="850" pageHeight="1100" math="0" shadow="0">
      <root>
        <mxCell id="0" />
        <mxCell id="1" parent="0" />
        <mxCell id="nHwe-JYxMAztrHhhpzCX-17" value="&lt;b&gt;Local config&lt;/b&gt;" style="rounded=0;whiteSpace=wrap;html=1;fillColor=#b0e3e6;align=left;horizontal=1;verticalAlign=top;strokeColor=#0e8088;fillOpacity=50;" parent="1" vertex="1">
          <mxGeometry x="150" y="20" width="550" height="320" as="geometry" />
        </mxCell>
        <mxCell id="nHwe-JYxMAztrHhhpzCX-1" value="" style="shape=image;verticalLabelPosition=bottom;verticalAlign=top;imageAspect=0;aspect=fixed;image=data:image/jpeg,/9j/4AAQSkZJRgABAQEBLAEsAAD/4S+gRXhpZgAASUkqAAgAAAAHABIBAwABAAAAAQAAABoBBQABAAAAYgAAABsBBQABAAAAagAAACgBAwABAAAAAgAAADEBAgANAAAAcgAAADIBAgAUAAAAgAAAAGmHBAABAAAAlAAAAKYAAAAsAQAAAQAAACwBAAABAAAAR0lNUCAyLjEwLjMwAAAyMDIyOjA1OjI2IDExOjE2OjUxAAEAAaADAAEAAAABAAAAAAAAAAkA/gAEAAEAAAABAAAAAAEEAAEAAAAAAQAAAQEEAAEAAADiAAAAAgEDAAMAAAAYAQAAAwEDAAEAAAAGAAAABgEDAAEAAAAGAAAAFQEDAAEAAAADAAAAAQIEAAEAAAAeAQAAAgIEAAEAAAB6LgAAAAAAAAgACAAIAP/Y/+AAEEpGSUYAAQEAAAEAAQAA/9sAQwAIBgYHBgUIBwcHCQkICgwUDQwLCwwZEhMPFB0aHx4dGhwcICQuJyAiLCMcHCg3KSwwMTQ0NB8nOT04MjwuMzQy/9sAQwEJCQkMCwwYDQ0YMiEcITIyMjIyMjIyMjIyMjIyMjIyMjIyMjIyMjIyMjIyMjIyMjIyMjIyMjIyMjIyMjIyMjIy/8AAEQgA4gEAAwEiAAIRAQMRAf/EAB8AAAEFAQEBAQEBAAAAAAAAAAABAgMEBQYHCAkKC//EALUQAAIBAwMCBAMFBQQEAAABfQECAwAEEQUSITFBBhNRYQcicRQygZGhCCNCscEVUtHwJDNicoIJChYXGBkaJSYnKCkqNDU2Nzg5OkNERUZHSElKU1RVVldYWVpjZGVmZ2hpanN0dXZ3eHl6g4SFhoeIiYqSk5SVlpeYmZqio6Slpqeoqaqys7S1tre4ubrCw8TFxsfIycrS09TV1tfY2drh4uPk5ebn6Onq8fLz9PX29/j5+v/EAB8BAAMBAQEBAQEBAQEAAAAAAAABAgMEBQYHCAkKC//EALURAAIBAgQEAwQHBQQEAAECdwABAgMRBAUhMQYSQVEHYXETIjKBCBRCkaGxwQkjM1LwFWJy0QoWJDThJfEXGBkaJicoKSo1Njc4OTpDREVGR0hJSlNUVVZXWFlaY2RlZmdoaWpzdHV2d3h5eoKDhIWGh4iJipKTlJWWl5iZmqKjpKWmp6ipqrKztLW2t7i5usLDxMXGx8jJytLT1NXW19jZ2uLj5OXm5+jp6vLz9PX29/j5+v/aAAwDAQACEQMRAD8A9/opu/pkdaAxycqaAHUlJuHvSb+cBT9e1ADsUUgPt+VGaVgsOoppbHp+dJvGadhXH0U0Pk4Apd2BzxRYLi0UzfnoMigyAdSB+NKwXHUYqFrqFDhpEB/3qPtUAGTKgH+9TsOxNRxVQ6nYq203cAJ4wZBQ2o2ajJuoAPeQUBsW+KOKzhrml5wdQtQfQzLn+dB1zSgf+QjaD6zL/jQK5o8UVmN4g0dfvapZj6zr/jUZ8UaGvXVrL8J1/wAadh2NfFGKxD4u0EHH9qWv/f1f8aaPGOgknGpW/H/TVf8AGlYLG7igVzx8b+HlJVtUtlYdjKo/rTf+E78OA86nb/XzFx/OiwWOkxScVzh8d+HRydTt/wAJV/xo/wCE68OEZOpwD6yL/jQK50dFcy3j/wAMr11SD8JF/wAaB4/8NkZGpQn/AIGv+NA7nTUcVzX/AAnnh8rkXyN/usD/AFqFviL4bQ4a+UH0OP8AGgVzq+KOK5P/AIWN4aBwb7H1A/xo/wCFi+G/+fw49cD/ABphc2Nbnmt9FvJYm2ypHuVq8Th8e+IDbQu16ytIofKopHIz3Fe1eIU36HeL6xt/Kvn2yt/Ms4BnBESj9BUt2Gbw8beIZeups3ssaf4U5fGHiR4yItXLL6GJP/iawo42hnZgvl994qpc6zcaZapJcxear4KnOT9PwoUhNG+3inxISd2qy/QRpx/47ULeIvEbnP8AaU7f8AT/AArn5vFm+NXVJlBIDhzwR9MU8eOLGLsc9FCZXH5iqFZm6PEHiCT/AJfZ/wAl/wAKbJqmuSYV7udye2cfyrn/APhO4v76f8CBzR/wnUZHyzbSDnHNO4WN7+1NXZfL+1Tj239Poev509brVQuDe3BH++a5dvGqZHyq5HJ4NEnjaF5EYB0IGMA8Y9KQ7HTJc35BxqF117SGkLaq5+W5um/7a/8A165e78TymESxQ7Fx90HAPPepIfE088JP2WZM9PLbHXvQFjdkXVN37yS5z/11P+NPWLVGH3rlh/12P+Nc+fGC26r5kUxkXj525/lUT+NV2psSZfl5G7vTuKzOlNtqJBys/wBfM/8Ar0q2WpFek5X/AGpf/r1y3/Cat6TD/gVIfGUjfx3P/fz/AOtSYWZ0z2d0sZJSQH/f4/nmmJaXJUkrIB7P/ia5h/Faup85Jn28gl+akTxA88BeONxjgB2zQGp0YsLl/uox/wB5/wD69H9l3f8AzyH/AH1XN2eu3zBk2LMpP3mU/lU82uT2aO4iCKBkonAB9RTuKzN7+ybrGSVA+tSf2fdxAFCh/GuUPjFvLUFZBnvnk0z/AIS4+kv/AH1Rcdmdn9hunXEtvE/481G+jrtL7lRh0BPArjX8Vu3AEv8A31QvilxwyyEejNxRcLM6o6XJ/EyH0INOGjylcmePPof/ANVczb+JGumaOCLyyV65qOPW9SjuHWKYScAlGBwMcetKwWOn/smXOGmh29+v+FTDSG2fLPB+v+Fc5Jqt1bzeYFgX2Cnnj61UPjG7Vc7IjuXHIP6c0NCOtXTpk4WeIsPTP+FT/ZrgxlJZYNp64Hzfyrhh4tuiOYUz/tdaafFF03/LGIfUf/XoGdk9jEoIE8Sx++dx/SqzwxRnDs6e7DP8q5b/AISm7XpFB+R/xqW38T3sswWNo4ifvFf/ANdOw7H1nqi+bpl0oHIjcfpXgNkAtsq9dvykfSveNdmlt9DvJIhlxEeBzntXgulO8unRPIuHZQzfU1EiidwChUjjFc5rqsukW4YDC4wcZ54ya6dl4NYXiRSdGgQ/56VERo5B3MiCLflc9cVb8L6VZarqF8l3B5ixgFRuIx+VU8BXAHtWz4F41TUj7LWqC5s/8IroUYHm26x7gSN0jf40g8MeHgvCRZPfzm4/WuT8X/brjXZAqzeUqnaY1YjqfT8KwEtNQBAeK7XPTKNz9KBXPTj4a8OknEaemfNb/GkuvCmhpayNFa7dsZbcJGOTjqOa51fDml/ZLcPqd2LiRRuUBsA+v3eBXUaLGYtEltvNaUQhlWRxg4yc9hQC1OEuCGslGScEj9TU9rI4hQB2B4GQcdKguQRb89Nxx+ZqW24jTPsaB2ILpPOu7dZDuDOc12j+EtEj3GVCiKBljKwH864+b/j9tf8AfNdV48W5OjqlqJHLzBXWNCxIxnt74oC41/D/AIZUnE8RAOP9e3X86X+wvC6KCZ4m9hOSf5158NN1Mxsy2N3tX7xMbcZ6Vs6Fo0LwSyaml8hHSNYWy3/jpoC518Hhrw7dRs0ISZQRu2TMSPTvWDq2nwaffzwW25UCqwBJPUe9aHhyzgstWU2i3Xlyo28SxlQODjqBzUPiFj/acwxxsXn8KBXMOyZyzgs2M4IBxTr5zJayg52qox8xNFkAGfP97+lLdD/RJ8ei/wBaAsdPYeE9LnsIJpY3eR0/vsO/1qceDdJPPkMB7yN/jTp5pIfCRkizvWBiuBk5rzQvqkshYx3TE+itQGx6SPB+jcFYnI7nzGwP1pT4O0l3wLeQgct+8bgfnXC6Lp89/PJHdz3NvHt4Y7gQT3+gro7Kzjsb+2mtNQuZVYlGjccd/wDZ9s0BcTWNHtNKvrZbJCgePJ+Yn19TWJHzfPgkYUjg47iuq8V/8fdkV4PIP5VyyYF8/wBDTQNFtiZM5bb1yevatjRfDGmXWh2V1PEzySpubLtxwD61jL8udw7n+VdNp8k6+BlkhXMotCFA/wBztQ9RLQG8M+HUYb9gPfM7cfrQND8Mocfut2OP37f415w1lq087AWl2ztzyjCtDSNKuLq8QX1vdRRDOSIX9PoaQ7neR6L4dk+WKOKZ/wC5HKSf51ma9pVlYw2z21uI2afB5J42nj9KpQWNpazpPZQagk8TER74W5IPDH5cY4z+NbnioH7NZ7s588Zz/uNVCPo3W2MGjXMq9UjY/mMV4XpuWsI2PVxv/PmvdtaBbR7tcZBhb+VeIWAAsYRjogH6VjIaJCvFYPiSIHSI0LYy4G7sMkV0ZXg1z/idB/YCEHc2c8fhUIo53W9Kh0s24hvI7kSIGITHyHA64J9aPBQzql4P9laxoprmYMbkYVThT7VteDfl1e8C8javJrSKsIt6pqOtLq1zb6dZxvBAhYs8DY4J446nj8arXOseJorBLy4trBIYwQHaM5U/3cf3iOQM9KzPFOqXOm+JZXtriRQ8Y3Lng5J7dPxrGn8SalLaPam6ZonBUqVGMH8Ovv1FaIk0D431F8kR2SnAH+qxn9f1rsfDGoz6ro0010F3Nlf3a8dSP6V5OHwTwMHtXpfgRt3h6XI/ix192okla7A5y6bNthdvyyMuNvbJrrfDDeHV0iZNXQPcNEPKf0GDXJzRkK5VsDe3GOvJqWKJ5IbdoW/dgAt9D2rKpTU18VikMmVDqkBXlPNcLn+7k4/TFdh4omvlgtY9PmEVxPMVzvKjAUnnH0rkJMC4ts9RIf611vii2W6isbeSf7LGbhiZ92Cp8tsc/kPxq4bAzGiHiyGKeE6jExdUY5mYnHPT3rnrnxF4htbloG1C4DDriRsfzp+safeaVFDcJqn2gSZDGOVjtxjHX61z8sskpzI5ZvU9aZJ2/g7XNTv9Z+z3V5NPHtY7HYkdDV3xDHjUrkIesSkD04rC8AMf+EhA7bG/ka3/ABHxqsxH/PMfyoGUPDctlb6sk+owefaqx8yM9D8uB2PtSa69pLcX72MPk2rNmNPRcnFUYEL+btOMn8+lPnjMdpOpOTgf1qIQ97mYHXmaS38JJNEqNIkZKhxlSeeorn7nW/EOjxx3lxp1okEwKo/2VthJB6HOK3ZkZ/BoRWCsYmAY9utcrrGla9/Zpury9FzZR4Kop4GTgYGAO9WndiKr+NtTUgGCyyB/zy/+vVzRPFl9fazbW00Nqsbk5KR4PQnrmuOkbc2SPatLw1/yMVn/ALx/9BNNgeg+LPmurI+zfyrl4di6iJJBuRDkp/eFdR4n4nsv+BD9K5VFL3cq52nsaVrqw0b+v6hZ6lfrLY2kdtAFIwgHXB9hWjp0jxeCoGjIV0t9yHtuCjH61zARY3G7q2eAeOldFA2z4fkbckWp6H0TrShDk0GzEvL/AMVaXAt9JdwbG6FZGz0+vtWFN4s1xSQmqXAAJ+5IwH86zWnubiNY3lmkXOQrOSPyzVY439TjFUQb9j4o1qe9t45dXvApbDEynBruvFI/0K06f68dP9w159o+jz3Ua3kMkWyNwWBJ3d+2Mdq9B8T7jZWmQP8AXD/0A0FI+k7/AP5Bt0D/AM82/lXiNpHtgX6V7jfLu0+4HrG38q8TtxlCP7pK/lWMhIdt+U1geIy6+Ho8YyTxkY9K6TbxVDxNHFJ4NmQx/vYgm1sdMsBUx3KPK41uF3m4GF6qK2/CQH9vXm3hdo4/CsRI5oy6zS7/AE56Vt+FR/xP5/8AcH8jW/QLmB48UDxE2P8Ankv82rmD7V1Hj0f8VF/2xX+bVzUYB6jdntnFMkZg5r07wGMeHpc8fP8A1avPLO0nvZhFbxNNIAWIUdABmvSPBNvPb6XPHcQMjZU/P0w2SD7ZFDA5y5GYHGBgu3Pfqa6jwx4gtdL8Mz2U1szyyJtDH+EkY/rXO3C4jbPQyHafxqZmihjeKTmRmyDWdSnGotUNFOZd11bt/wBND/Wut8WrYy21mupytHY+efMZASR8h29Af4sdq5KT/X2n/XT/ABrqPGMlrHaWzXyF7UT5dASM/KfSqSsNnGalZ6HBpjG2vpXuiQyRspwyZ4PTA4rnSCegrrpL/wAOH7sbRDynAj2bsg42jJ6fWuVmwHbyxtG7KjdkgUyTo/APHiIZ4+Rv5Gui8RgnVZcdfLH8q5zwLn/hIlznPltnP0NdJ4h41Zv+ua/yoA5+GAqriQlRnOfWpLhVFrcbTkHB/nViYr9li3DOBz+dQT4FpMAO3P1qnsM6m6GfBRHHMLdfxry5LlxEY95WNgAw+hr1G8/5Ec/9cH/rXkvZqSExZMbjhgc85ArT8Nf8jFZ/7x/9BNZJrT8PHGvWn+8f5GgD0XxR/r7P6t/KuZS2LNcT5wACn5//AKq6nxSN01r/ALzfyrAh2rbXKsMgyL/I0kNWW5EPJy/lEkMDye3FdFYqg8DhZWIj+zNuYdcba52FQQHQcc/yrobZtvgGRmIGbVsDH+xTvcG09jkri38LmGRrS+m3mP5VKsPn4/2enWsK/Nqbl/sTs8OMjd1z+lQLuy2QMAdCMUGLZ8rqAT3JoEdf4XDy+GtSUL9xlO9VJwMEnNdV4jYnT7XIwRMP/QDXJ+HJreHR5xHfeVcvwYA/EnUZZc9B06c5rrPEeG023K9POHfP8JpgfS9x81nMO+xh+leKwxhXmGefOkB/BjXtMo/0WZhzlWP6V45Ep8y4YgjNxKf/AB41jIEKVwKr+J7cL4QvJCcK6oPp8wq6w4qHxRk+DrkKcEqn8xUR3KZ45HbCBGLz+YW5Hr+Na/hZiPEE+R/AP5GsmKzCNK/2gSFucelbHhgZ8QTg8fIP61v0EYXj4Y8R/WAfzNcujFTkdhmuo8f/APIxj/rgP5muWH8XPamSbPhdsa/aHD/ewcHqPSvTLCT/AIm2olZN3KAKB0HPyn6dK8w8N7I9dtZGYIFbO7cBjHevUrLDajqLb8q/luGWQMDkE5470ykcdcrhZlwP9aT9KjlWN5EaVyHJGKluCqrLtGWMhyagnSAtE1wcMpG3PrRYIgyqZ7bJPEn+NdX4muPsaWd2sAuGjnYCE/xZjYfpnP4Vy0iD/RiCD+87fjXVeJTPENPeyiEt0J2KLjOf3bZ6e2TUjZzMPiOTyPIXSGLAfe2/MR6Yz2rndfvDqWpTXHkmJiVzHjG3Cgf0reuNQ8QfaraVLII4yqvEjFSWIxk/hXO6ybs6ncC6GybK71I2nO0djQSangTjxEvP8DfyrqfECE6oc94x0+lYnhXS7jTtatJpjCVlhJCo2SOO/vW5r4QawxVz/qhx6cCgDJbatvEG57VBclXs5mUY+WrDFRDHuGar3BBsptoxx0qmNHUXI3eCDn/ng/8AWvJe31r1qf8A5Eg/9cH/AJmvJewpIGMrS0D/AJDtp/vH+RrNrS0D/kOWn+8f5GhiPS/EoxLan/ab+VYUK7kmOMkyqMduhrd8SjMlr/vN/KsC2kZPtABb7wIAPtQthq19QKiKNVXBzk459K27NzH4I3AfctmO3/gNYRleRtwQ8Z6n2roLZS/gkxx43tbMP/HKSLqKN/dOOuPFi3Nm8D6bEuU27wTn69ax9Tv2v74Tqip8u0Kv4/41bl8LapHE8/kF40TezYOMVn6hZPp9wYJdpJUMpHpn/wCtTMzqfDFoF8O6rO8Icbcq2eRhTmuq8R7hpUBbkiUf+gmuZ8OSA+FNRV2UBVyqseTwfu10viPcdIhyCD5o4PX7ppgfTEihkkBBMZXkCvGrfDXGoBFdUW+uAu45P+savZ2BO76V41bxGO/1XPU6hcnn/rq1ZSBE4WofE6/8UhcgdPLXn8atBag8RfvPClygUgCPnNZLco8Xt40jdtj7srk+1a/ho58Ry+6f0NZMX2ZJHERYvs5z07Vq+HV2eI3A6hcfoa6OgkYvxBH/ABUEf/XBf5muVXhjzXWfELjXYj/0xUfqa5MMQQRTEaugG2XWrU3Aj8sNyXcqAf6/TvXp2lJbC+1D7LLDPCTGxeKQsASDkH0I7jtXlOkkLq1opUN+/Tn8Rx9K9bs0Kaper5UcOUib5emMHnrQM5K5UgzErhd5xVa7mgRoTMm4HkVeuQoacdzJmqc8kcIi8yMv8gxx0poljiVMkDKMJ5g4/A11HiOO7dLEafIFvGlcR57Dy2J/TNc02PNgYcLvXj8DWz47nltdIgkjIV0n+Uj3XH9TUjRzrWHiSK2gd7yJbfepR9xwCCMdqytetNQttblXUWje7wpkI6Y2jB6emKzDeTk4aViobOPSl8ySaUkksy/NljyfSgD0XT0u/wC0tKWWzSKIQnbLE+/fx1yQKd4iUf2o3TGwc9D0pulpdz3ek31xFCBJEygIjKfu5yST70viIKNU+Ukjy+c/QUAY8rMqjau6o5WZ7SQsu07elTyAhAFzuPSo5Q/2WTzPvbTTY0zpJR/xQzf9cW/ma8l7CvW5P+RHI9YX/ma8jz0oQSG4rR0LjW7X/e/oapIoPGfwrqPDWk201i+ptJL9ogn2KgI24wOvHv602Sdp4j4a1/3nH6Vz1rjzpB7iuh8S9bY/7bH9K56BPlncH5w4GO3IpJXRalFMfMFjkAUZBzkD6Vs2hZPAr5wGFvJj1+7WCgkXcxIyM9PXFb9mA3g1y2Axgc5PrtqErFTaex50uuaiIZIxezEMMOjNxj/OKpTzTXcgeU5YLtGfSukfQdGmjnaDVWacJuWEqRg8dTjGKxdTtrS2uoks7s3ETRAtIVIw2TxyB7fnVmRu6HJdT+HLqBJI/IgOWBQbiDknnGc12Guj/iVQZOf3g5/4Ca4/w9++8PanFJdmNYkJEYXIbgkg8V2mvZbTIt4wQwP6Uxn0rIdqsQMnFePRyCTVdWA6C9m/9DavYdoOeo4xzXlt1oT6LqV7vlD/AGq5knHPQMxYD9aykCGKtM11gfCl+pUf6vGfpUyijV12+GtQyBjyunoazW5TPCYHgw6rHiRlOSRWtoHy+InB6lePyNVBAAgkMTDeOHI4P0q5oBDeJstxgEf+Omtk+wkY3xCBOtxEA48kfzrkijcgqeBk8dBXdeObKa61aBbVWlbylxjH+ea59fDesujGOykOOT8y8D35qhFHSQf7XtQm0Ayr984HWvXbQIt7cJvVmZI9zI25eAcKDXllhZG21uC1viLZ45Rv3nhenUivVLKWF9UnW2eM/u41ypJBwME8+tDA5S5UedOOAA/XPtVe8dokhAj3KUGTirl3xJNmM4D/AJVFNNHBHG0pyvljimhMiYjzID0G9cD8K0/iGrLoiZ5/fg/Tis9/meJlX5C6ke3Fb3im2TUYLSyknWFZJjmR+gIUn09qkpbHkozv4Gee9SoH8wndnjGev5V0Unhq2L3JGpQ+XEQvU5ZiT049qypbGOPTmmF0DMtx5Xlj+7tJ3dKBHaaDb6gsOlS3F+Zo23GOEyFtoK+pPp2xV3xDtGrRleQ0JBGOmMZzT9PikttL0RQ6p5i5C9TnaOabrwH9oxsOf3Z3Z9sUAYrCRrRghw+eGPao3SVLN1lcO+w5IPtU4YG3O1lX5qZLkwz5YN8p5FNoSOgk58Ef9sX/AJmvJPSvXCP+KKP/AFxf+ZryIdaENkiHtx257133hzb/AMIfMFjCus43sOp6df0rgI13Kf6da7LRbtB4eWGF7gEzgSgquwn69emKGB1XiIZNvnp5jfyFYUS/69VPJdT+ldB4jHy23++38hWBGHDTbR3B/SiLE7XK1rBJCCWkDliTgnpxXQ23PgxmIBIgkOP+A1hQ7yilh2Jrdtf+RLl/695P/QaHuUeVSMFlOVU4JOByDQX8xyAx2/7RzxUUn+sb60RjLj5gPrQhHaeGkhbw1rZ8xOIzhSMsTtOPw9q6/XDu0yIgYyw757Vy3hJgPDGu+YpCMmCxxhSVP411GsZ/siHOM7x0+houB9MYyOec1xXi1ANSix3X/Cu27YrjfFoJ1GE442n+lZyBHPqPmx2pNURG8OXxXAzCc8deDUir8+cUuoKf7A1DaoP7luPTg1C1KZ5FqXiaPV9JttM8hE+zrjcoI/KqehkHxHHnrtPT6GqML2oYxoP3hALE1oaPGF8QRDPO08/ga0jDlEReNdVu9J1qBrSTbuhBIPTjp+Vc4PGOtecZjdZcjAJH3T6j3rW+I/8AyFrY9vIxXFHoKtCNKK+e61KJ5ygDyruOOAMivTNFS1GrTfYViAaFd/lDAJx1x6+teU2ADX9sCu4GVcj15FevWKiG+Ux+UqmD7kQCleBw2OtDAwrs5nuQpYDfzn1wKoXE0cSRM8fm/KO2a0L5Ga5uQWGN46d+BVF3EEUQWEvlRzimSyThhGVyqtIpAPbg1p+P/wDkX0Uf8/A498VnMMmMuvV1wB24NbPi0Wn2a2N9u+y+eRLtJzjacHj3xUlo8sxvPz8bcj8aArx4wFODmugD+GRPLvSYqHVYsFuRk5PX6VRnXTRpki2/mG7NzkFsjEW08deecUCOx0nUPttxpSQwyJGEJaRo2Vc7eQpIxV3XP+Qov8SiJgPXtWboss5bR4jb+XZ+XkSCQsC+3pgjg9K1NcIGoxbRz5Z/pQBiFn8ghMj5qRwxin3kk7T1pzK7QnDAfNTWVhDPuO75Tz+FUxI3yc+C2/64P/M15EOteu/8yW//AFwf+ZryIdaS3KY+M8FSOv5Cuz8NT48OzRQ2krO0w3yZGO3/ANauMX7nyjJ5zXeeDmEvhy7UnYiTckHnov8AjRIR0niEMRbZGPnbj8BXOLvWWUDqWGOa6HxApCxfMfvnr17VzwGJJT1wRyTSQmMVGQgMcjJxg+1b1r/yJcv/AF7yf+g1hRLtypYPyTkHOOK37XH/AAhko7/Z5P8A0GmNnkkg/eN9aIxlwOPxpZf9a31pqkA5NNAdb4ftbq40LUUjmgigwVkLRl2OQeeGGO/JFdprDFtIjOMYIP6VyfgybydP1MuyhDCWYlQflAOfrXXaqFbR025xkdal7j6H0x/F+Fcj4r/4/If90/0rrff2rk/FQ/0qE+x/pUSEjBAp15GR4d1EZ5EL/wDoJpBUl0d/h/UFU5IhfI/4CazW5R4Ck8TL5Ijw+B82K0dNQnxJCRwAD/6CapLMCzL5GEGBnHPT1q/prq3iOFlUgbT/ACNb9CWZPxHH/ExtP+uf+FcWehrt/iMP9Msm7lCP5Vw5PNMRZ05d+o2y7wmZVG89F5HNeuWM/wBo1BQJhMsUJQlBhTjA+vOK8etyFuIy33Qwz9M169p9nBaavGYkWNnsVf5B97gdcd+aBoydQIN7dYGFLDJ/AVRneZII/JQMNg61o6kS13c54AYcD6CqDrcNDEIgR8o60xMfy/lGX5W8xeP+Amr/AI8Rn8PKq9ROCABy3HSqbq/7vfgkSLk49jWr4svBp1nbXzW6TrFcEbHGVOUIzj8aka2PLnhYhA0bghfugciiNJUHmKrBc4JA4H1rbHinE0z/ANnW2JWXBZOQAT0P41UOtFtNubT7NGolkLllGMAjFAjs9Dk/4lWkkM4ZZCm4jggKOlXteyL+A5yCjf0rO0WYnR9HjL8eZwu/JztHOK0/EGDf2vQnY31/hoRXQxype35wBv6/hUOxY7eZVbcNp5/CptgeLBJxv7H2phiVIZlGceWT+lO+o1D3bm4v/Imt/wBcX/ma8gr2BOfBzf8AXB/5mvHxSW5JPCMg5UEDk57V1ugXscOizRRWk+XcK8i7ducg8859O1ceFJXI6jHNdz4Wk2+GdURthJlHzFNxPCcA9qcgOo8QDcIW/wBs/wBKwdoJmz3I/lW/rmfLh7fvCOfwrB2/PKM5JcAYpLYa3SIvLEbMO5z/ACrbtR/xSUv/AFwk/wDQax5FIlAfrg/yrZs+fCU3/XGQf+O0ka14KM9DySb/AF7/AO8aapwc+lOm/wBfJ/vGmqcGrRidboP9o3Oh6nHBPGIY4WeVWHLLgkgV2+oAHRUx7VxnhhfL8O6zNKkYjktniEkiZYZUj5a7PUyV0KMggnAqXuB9Ldq5bxSp+0QMRxg8/lXVDpXM+Khn7P8A8C/pUSBHOjripp4v+JFqBiU/NDJx3+6aiUfOKJZ2j0+8jP3DBJg/8BNZrco8IE7PK0SplRjnFW9NUnxFAARjaf5Gq4a7jmdBGvl84P8Ak1Y0olfEFv67T/I1v0JZn/EYH7TYn/ZP9K4fBJ4ru/iR/rrD6N/SuFU7ee9UgJrIR/bLcy8Q+au8+2RmvU9LvLa48QbYblJ4ktdqmJtxA44PpivPvC+mw6r4ggs592xw3A9cV6nZ+HINAZmt4ZYWc7Cz4+b8hU3GjF1GMrfXeeoYcenyis+ZLiWFBE4XCA1pasCbu7APzEg/oKpWcoaJnb/nmUA/CmSISxjjBHAddx9eDWh41tp7zSorS1j8yaSfKRg88Lk/oDVE/wCqX/rov8jV/wAbXMtlpMFzbsY5kn4cY6FcY/Wiw7nnw8P6q8pj+yN5iYG3I4J6fyqJtMu0tprsQM8ET+VI5IG1xyRUqa7qSSyOLpg0py2QPm/zmo7a/u5LiKNpd0ZlDlCOM56/rRYDqtG1ddTvtPtlsxA1v/y1DZyMelb+t7TfWwH3wr5PryK66WzIsmuFmUqoVjGVOBk449a5PXeb63dSSSjAn/vnp7f/AFqQXMheY/8Agf8ASmyDCzA9fLP8qZAWZ3X+6c05yWEhP/PNv5VLdmdaivY3NuP/AJE5v+uD/wDoRryAV69F/wAiY3/XF/8A0I15D2qonISqR5ftxmum0rVpE0uLS2sd2+UOsyyFcfUDrXMIOMjBwM4Ir3rw9bRXWgQbLnycnbjYcHqeuKcgRj65/qoi3I809PwrAR1E8yjjLBh9K6HWMGGIdFD5A9OnNcqzFdTc9iCP1FJLQcU3JWJBN50oBPzKDj3rbs/+RSnH/TKT+VZKhRt+XnBGa1rP/kVZ/wDrlJ/KhGtdPmuzyWb/AF8n+8f50iYLDOce1LP/AMfMn+8aI+WFUjE67R9F8QzaQ62ctutpdKQyS5JxyOPlOOvau11RNmkCM9VxV/4fWsVx4aVJoFkAZeNwDZOcbc9Pqar66oFpKFJIBwCfrUgfRhcgcLx6niuW8RXlvcTRwxTJJJFnzApB25x/ga6rJYkHgdvevOtcSS01+8mk4ik24OB05/xqJDQIG3ZPb+VMvAv2C57nyXH/AI6aUOSo9+KhuCRYXSHr5T/yNZrcZ4u6Si+f5iy5PAPSpbHnxBa8beD/ACNRm3k/tF2WUAEng1NZDOv2gPof5Gt+hLKHxJGG089/n/8AZa4P+Cu++JOP+Jf9X/8AZa4Eg7RVIDpPA7lPFVkV6kn+Ve36yrfYoXLTSDd0YlgD7Mf5V4b4JwfFVkCcDJBr2/WVVYIRFIsik9yQeO2OlQx9DhNSOL673LjkH9BWVCAsDM7ADccdq2NUXN9dk98Z9uBWLHHG1u3mybVDHj1qkSi2wyqhPmXevI+lT+Psnw8pPBEoNQg/u18n7pI/lU3j9h/wj688mQUAeX5PWrNgxF7D3+cdfrVYKcE4qxYg/bIT/tgUDPo2VlfRs5yNqAkphRz2PY+tcRrQJvICAQoVwCOnJHSu3uIWk0RCUTegUllY9Mjt0ri9d8w3dqE4O18+/IqWBz6yrAblhlmAGBjHpSRuZbeR2QodjDH4U5WdPtJChmwOv1FPV5JLZ2lUKxjbAHpiqsWpu3KbMAz4NbP/ADxf/wBCNeQkcV7Bb/8AInMO/kv/AOhGvH+oP0pRIHq5VceoxX0F4QdR4Vto2DMWYn5U3YGD27189qRj8Oa+hPByfafCkFuAjMSQNxIwOTkkc0SGjn9XVhbRE4Kk5DDuOOK5pxtvjuGWwTtrp9W4tUHJw2c/XHFcy+F1DJUk4+UflTWwrtbC280sufMj2gdOK27EZ8MXAPTy5f5Viwm4ZibgAf3cVuWGP+EZuP8Acm/lSDmlL4jyKf8A4+Jf98/zpqgk8Ak+1STqTcSkdnP86RMK2SB360wPdvh2P+KVjk2qVHMjmESFQCeM9v8A61UdaOdNmYAD5uMDA61P8O722g8MxC535ZhtI+6FBO7P6VFrgzplwV5G7cPpmkB9GN94GvNviJrcWk39rLMgMLEI4I7HHP4V6VjIz3Fed/EXwdqPiv7L9iktUWLeJTO5TOcYwQD6GpeozKgmREDI6Pbk7onBzjjp/Op5f+Pa4TOcQk59eDWUvh298GabDFq95DLDM/lxbD8qZyepA9D+dWWd4xcBm3J5YRePrUWsx9DyyS23XzzF8DeRj8aS02DXLM5I+U/yNWZY1+1S/KQwlbIz7mobYZ1myGOx/rWvQhblL4kD/jw/3n/9lriYrW4uP9TDLIAOdiE4/Ku7+I0TOtgMDdukyM/7tWfhzaMIbhJUXDybSzKDxgGi4zmvCNlfQeJLW4e0nRFYnc0ZAFevXupz38CxSopVX+8vt0rVk0TSbZ3R7tR82FI4wPzqK503SLK1ZluUldlYoElJ+bt3pMaOC1JCLu4VRxgf0rMtolmgZT2Y1sagCLy4VuwH4dKy7PhXx/eNUSxzpsZETpkVJ49B/wCEdXjpKKVgRJkDbjnmr/inS7rVdNNtaAGTzAfm6Y4pDPMtJ0m71qZobYD5eTmujtPAOpLcxM80S7WBIBH+Na3hTw1qOj380t2sYSRNoVCT/QV6cmsaVAyPHbFm24cGIH/PNIDCHmESRjcBIc4XkGsXW8Lc2hVTkK4JP1H+cV28fiGyhjkT7GBI24glAMNiuK135ru2eQ537yQOOpBNAGFEubiVfWnzLthI9I2/lTIWYXUpAzxxU1wuYzlwG2Nn8qpko0rb/kU27fuX/wDQjXlWnWf2++htt2wyvt3bc161pcSXHhxYXbAkRlyO3zGsTTPA8dhfW92btz5b7sEDFSUVV+GMzq7fb5MBsKEtGbJ/A13Fppk1nZQW0dtOTEMbyhBxnr0461sQ66YbJbVIAzIzEOGxncc1KPEd0AWNskkm3aAD15+lAHK65HNFD5c0ciyI+RuHzYyOK5eQf8TFTxzzxXX+I55rjzLiRW3ySZIY9OR0rk5FA1JTgkY9MY6U0Jk7jpWpYD/imbj/AHJv5VnSRlQCXGMZwOtaujhW0ho5Cuzc6uGOMqaGCPKEgWe/2OAFaUr79TXsFv8ADvT5oGngsVaNZNhcuuO3t71mp4c8PQzeetugbOQTOx5/E10MeuNFbPBHfwpC7bmXcOvH+ApDNCHwndQrDa28UUaKhaIBxt7f41jeJLOS0tLmGY73RRnn6VP/AMJGYjxqacLtGGHA9qytU1W2u7WbfdrJIw5O7k80AfS3NRyRg85wfWpaaxUfeoA81+LtheXuh2i2lrJKyzDcE5KjDc/y/OuW8NzaqlpLbanZTKYYQiSsn31UH07j+te5MF25OSPfmopLeORGBjVlddpz6d6TVx3Pl+U+ZczMvK+axyeOpNU4ZUi1S2lkJCIDuOCcda+hG+HXh1riSdrQMXbccAYFW4vA/h2IYGlWzY4y0an+lMR4l/bVogIR3IyMBUP9RSNrFu7BhFcMRxwh/wAK93TwloMf3dKtD/2xX/CrCaBo0fTSrJf+2K/4UAeAf2q2CE0+6fJzu8s0q3d48bBNKvGPJwyda+hF0qxX7llbKPaEVKLO2j5W3jX/AHUFAHzi2l6reTzyjTLiMPgAFPYVVPh/V9PlMVzp86SFtwAXdx+Ga+mwq9Aox6EYoMSMwZ0Ut6kZp3A+am0HWJzuhsJ3bHQrt/nitmTTfEjyErokh54JZcf+hV7/ALEPRR+FAXaMAGkB4END8XyHcukIvtuH/wAVUq+FPGckYC2cIzzjI/8Aiq94wc55x9aXPoCPwoA8LPgfxvKB+4iUZPRl/wDiqYfhj4qnnjnnCF06AsuP517wB70YoA8Lk+E3iFGWaKWAsR8yccfrSt8K/EMr/P5QU5BwR0P417nijFO4rHjFv8LfEMFskEWoQxxrngrngnPrVkfCvWpQPN1gqf8AYVcfqDXr2KMUhnk3/Cpr9x+81lz2zhf8KUfB6Rhh9WlOfp/hXrGKMUAeWD4NWioM6jcs2cn5h/8AE1cuPhBo01kF+0XZnA+/vXJ/8dr0cigCgDzOL4QWRVVn1K8ZAPuhk/8AianT4OeHtrbp77k5xvT/AOJr0XFGKAOFT4UeGgBuSdsf3mX/AAqzH8NPDcRAFnuHviuxxRigDmovAnh+Hpp0Z+tXE8K6MigJp8Kj6GtmloAKMZoooArk/vsdqVifPIzxgUUUAOj/ANWfqf508dT9aKKAFNAoooAWmUUUARsf3g+lTDoKKKAFoFFFADT94Up6UUUAC9KWiigAooooAKKKKACiiigAooooAKKKKACiiigBKWiigD//2f/hDHdodHRwOi8vbnMuYWRvYmUuY29tL3hhcC8xLjAvADw/eHBhY2tldCBiZWdpbj0i77u/IiBpZD0iVzVNME1wQ2VoaUh6cmVTek5UY3prYzlkIj8+IDx4OnhtcG1ldGEgeG1sbnM6eD0iYWRvYmU6bnM6bWV0YS8iIHg6eG1wdGs9IlhNUCBDb3JlIDQuNC4wLUV4aXYyIj4gPHJkZjpSREYgeG1sbnM6cmRmPSJodHRwOi8vd3d3LnczLm9yZy8xOTk5LzAyLzIyLXJkZi1zeW50YXgtbnMjIj4gPHJkZjpEZXNjcmlwdGlvbiByZGY6YWJvdXQ9IiIgeG1sbnM6eG1wTU09Imh0dHA6Ly9ucy5hZG9iZS5jb20veGFwLzEuMC9tbS8iIHhtbG5zOnN0RXZ0PSJodHRwOi8vbnMuYWRvYmUuY29tL3hhcC8xLjAvc1R5cGUvUmVzb3VyY2VFdmVudCMiIHhtbG5zOmRjPSJodHRwOi8vcHVybC5vcmcvZGMvZWxlbWVudHMvMS4xLyIgeG1sbnM6R0lNUD0iaHR0cDovL3d3dy5naW1wLm9yZy94bXAvIiB4bWxuczp4bXA9Imh0dHA6Ly9ucy5hZG9iZS5jb20veGFwLzEuMC8iIHhtcE1NOkRvY3VtZW50SUQ9ImdpbXA6ZG9jaWQ6Z2ltcDo0YTUzZDgyNS1iZmFlLTQwNDgtYjZjOS0xMTgzODgyM2M1NGUiIHhtcE1NOkluc3RhbmNlSUQ9InhtcC5paWQ6Njk3Y2E1NjEtZjVlMy00OGQxLWJhMzMtOTIyMzMzMjIyNjgyIiB4bXBNTTpPcmlnaW5hbERvY3VtZW50SUQ9InhtcC5kaWQ6NDMyZDVlYWUtN2NkYS00MTNmLWE2ZGYtMzJjMGQ5ZmFiYTg2IiBkYzpGb3JtYXQ9ImltYWdlL2pwZWciIEdJTVA6QVBJPSIyLjAiIEdJTVA6UGxhdGZvcm09IkxpbnV4IiBHSU1QOlRpbWVTdGFtcD0iMTY1MzU3NDYxMjk0Nzg1MSIgR0lNUDpWZXJzaW9uPSIyLjEwLjMwIiB4bXA6Q3JlYXRvclRvb2w9IkdJTVAgMi4xMCI+IDx4bXBNTTpIaXN0b3J5PiA8cmRmOlNlcT4gPHJkZjpsaSBzdEV2dDphY3Rpb249InNhdmVkIiBzdEV2dDpjaGFuZ2VkPSIvIiBzdEV2dDppbnN0YW5jZUlEPSJ4bXAuaWlkOjI0MjA1YTNjLWU3NWMtNDZkZC05ODg5LWQwMGU0M2Q3NDMyMSIgc3RFdnQ6c29mdHdhcmVBZ2VudD0iR2ltcCAyLjEwIChMaW51eCkiIHN0RXZ0OndoZW49IjIwMjItMDUtMjZUMTE6MTY6NTItMDM6MDAiLz4gPC9yZGY6U2VxPiA8L3htcE1NOkhpc3Rvcnk+IDwvcmRmOkRlc2NyaXB0aW9uPiA8L3JkZjpSREY+IDwveDp4bXBtZXRhPiAgICAgICAgICAgICAgICAgICAgICAgICAgICAgICAgICAgICAgICAgICAgICAgICAgICAgICAgICAgICAgICAgICAgICAgICAgICAgICAgICAgICAgICAgICAgICAgICAgICAgICAgICAgICAgICAgICAgICAgICAgICAgICAgICAgICAgICAgICAgICAgICAgICAgICAgICAgICAgICAgICAgICAgICAgICAgICAgICAgICAgICAgICAgICAgICAgICAgICAgICAgICAgICAgICAgICAgICAgICAgICAgICAgICAgICAgICAgICAgICAgICAgICAgICAgICAgICAgICAgICAgICAgICAgICAgICAgICAgICAgICAgICAgICAgICAgICAgICAgICAgICAgICAgICAgICAgICAgICAgICAgICAgICAgICAgICAgICAgICAgICAgICAgICAgICAgICAgICAgICAgICAgICAgICAgICAgICAgICAgICAgICAgICAgICAgICAgICAgICAgICAgICAgICAgICAgICAgICAgICAgICAgICAgICAgICAgICAgICAgICAgICAgICAgICAgICAgICAgICAgICAgICAgICAgICAgICAgICAgICAgICAgICAgICAgICAgICAgICAgICAgICAgICAgICAgICAgICAgICAgICAgICAgICAgICAgICAgICAgICAgICAgICAgICAgICAgICAgICAgICAgICAgICAgICAgICAgICAgICAgICAgICAgICAgICAgICAgICAgICAgICAgICAgICAgICAgICAgICAgICAgICAgICAgICAgICAgICAgICAgICAgICAgICAgICAgICAgICAgICAgICAgICAgICAgICAgICAgICAgICAgICAgICAgICAgICAgICAgICAgICAgICAgICAgICAgICAgICAgICAgICAgICAgICAgICAgICAgICAgICAgICAgICAgICAgICAgICAgICAgICAgICAgICAgICAgICAgICAgICAgICAgICAgICAgICAgICAgICAgICAgICAgICAgICAgICAgICAgICAgICAgICAgICAgICAgICAgICAgICAgICAgICAgICAgICAgICAgICAgICAgICAgICAgICAgICAgICAgICAgICAgICAgICAgICAgICAgICAgICAgICAgICAgICAgICAgICAgICAgICAgICAgICAgICAgICAgICAgICAgICAgICAgICAgICAgICAgICAgICAgICAgICAgICAgICAgICAgICAgICAgICAgICAgICAgICAgICAgICAgICAgICAgICAgICAgICAgICAgICAgICAgICAgICAgICAgICAgICAgICAgICAgICAgICAgICAgICAgICAgICAgICAgICAgICAgICAgICAgICAgICAgICAgICAgICAgICAgICAgICAgICAgICAgICAgICAgICAgICAgICAgICAgICAgICAgICAgICAgICAgICAgICAgICAgICAgICAgICAgICAgICAgICAgICAgICAgICAgICAgICAgICAgICAgICAgICAgICAgICAgICAgICAgICAgICAgICAgICAgICAgICAgICAgICAgICAgICAgICAgICAgICAgICAgICAgICAgICAgICAgICAgICAgICAgICAgICAgICAgICAgICAgICAgICAgICAgICAgICAgICAgICAgICAgICAgICAgICAgICAgICAgICAgICAgICAgICAgICAgICAgICAgICAgICAgICAgICAgICAgICAgICAgICAgICAgICAgICAgICAgICAgICAgICAgICAgICAgICAgICAgICAgICAgICAgICAgICAgICAgICAgICAgICAgICAgICAgICAgICAgICAgICAgICAgICAgICAgICAgICAgICAgICAgICAgICAgICAgICAgICAgICAgICAgICAgICAgICAgICAgICAgICAgICAgICAgICAgICAgICAgICAgICAgICAgICAgICAgICAgICAgICAgICAgICAgICAgICAgICAgICAgICAgICAgICAgICAgICAgICAgICAgICAgICAgICAgICAgICAgICAgICAgICAgICAgICAgICAgICAgICAgICAgICAgICAgICAgICAgICAgICAgICAgICAgICAgICAgICAgICAgICAgICAgICAgICAgICAgICAgICAgICAgICAgICAgICAgICAgICAgICAgICAgICAgICAgICAgICAgICAgICAgICAgICAgICAgICAgICAgICAgICAgICAgICAgICAgICAgICAgICAgICAgICAgICAgICAgICAgICAgICAgICAgICAgICAgICAgICAgICAgICAgICAgICAgICAgICAgICAgICAgICAgICAgICAgICAgICAgICAgICAgICAgICAgICAgICAgICAgICAgICAgICAgICAgICAgICAgICAgICAgICAgICAgICAgICAgICAgICAgICAgICAgICAgICAgICAgICAgICAgICAgICAgICAgICAgICAgICAgICAgICAgICAgICAgICAgICAgICAgICAgICAgICAgICAgICAgICAgICAgICAgICAgICAgICAgICAgICAgICAgICAgICAgICAgICAgICAgICAgICAgICAgICAgICAgICAgICAgICAgICAgIDw/eHBhY2tldCBlbmQ9InciPz7/4gKwSUNDX1BST0ZJTEUAAQEAAAKgbGNtcwQwAABtbnRyUkdCIFhZWiAH5gAFABoADgAOABZhY3NwQVBQTAAAAAAAAAAAAAAAAAAAAAAAAAAAAAAAAAAA9tYAAQAAAADTLWxjbXMAAAAAAAAAAAAAAAAAAAAAAAAAAAAAAAAAAAAAAAAAAAAAAAAAAAAAAAAAAAAAAA1kZXNjAAABIAAAAEBjcHJ0AAABYAAAADZ3dHB0AAABmAAAABRjaGFkAAABrAAAACxyWFlaAAAB2AAAABRiWFlaAAAB7AAAABRnWFlaAAACAAAAABRyVFJDAAACFAAAACBnVFJDAAACFAAAACBiVFJDAAACFAAAACBjaHJtAAACNAAAACRkbW5kAAACWAAAACRkbWRkAAACfAAAACRtbHVjAAAAAAAAAAEAAAAMZW5VUwAAACQAAAAcAEcASQBNAFAAIABiAHUAaQBsAHQALQBpAG4AIABzAFIARwBCbWx1YwAAAAAAAAABAAAADGVuVVMAAAAaAAAAHABQAHUAYgBsAGkAYwAgAEQAbwBtAGEAaQBuAABYWVogAAAAAAAA9tYAAQAAAADTLXNmMzIAAAAAAAEMQgAABd7///MlAAAHkwAA/ZD///uh///9ogAAA9wAAMBuWFlaIAAAAAAAAG+gAAA49QAAA5BYWVogAAAAAAAAJJ8AAA+EAAC2xFhZWiAAAAAAAABilwAAt4cAABjZcGFyYQAAAAAAAwAAAAJmZgAA8qcAAA1ZAAAT0AAACltjaHJtAAAAAAADAAAAAKPXAABUfAAATM0AAJmaAAAmZwAAD1xtbHVjAAAAAAAAAAEAAAAMZW5VUwAAAAgAAAAcAEcASQBNAFBtbHVjAAAAAAAAAAEAAAAMZW5VUwAAAAgAAAAcAHMAUgBHAEL/2wBDAAMCAgMCAgMDAwMEAwMEBQgFBQQEBQoHBwYIDAoMDAsKCwsNDhIQDQ4RDgsLEBYQERMUFRUVDA8XGBYUGBIUFRT/2wBDAQMEBAUEBQkFBQkUDQsNFBQUFBQUFBQUFBQUFBQUFBQUFBQUFBQUFBQUFBQUFBQUFBQUFBQUFBQUFBQUFBQUFBT/wgARCACYAKwDAREAAhEBAxEB/8QAHAAAAgIDAQEAAAAAAAAAAAAABgcEBQACCAMB/8QAGQEBAQEBAQEAAAAAAAAAAAAAAAIBAwQF/9oADAMBAAIQAxAAAAHqkw1nMNtYZjDWmH0wxvxmGGx8MbjMMApoOfNiMfKzxNsfM2LTDSM8DS98mY3UiwxmG5F3Yo3J6JniHuuV1vc1PIinoamJ0MNTVWhvrLjTnuG916HUvLVNxAXWqa0tGxeLAy+IpuwiA1hQDzL0k7YlUF0aIhZeQjqLzldwsLrRDut+nMTvCrltd57ldEXvAvOn5SeVd+wMMpBj4H/Nd76pCESFE211V55VnC1t10f7hveYveNXnuvnuRau7wuJ1ug9QnFywf06oC/S73JXeSS7pIrq7zyquFgvWQr0BjZpBr5VKWGVHQADMKvovotN3z8cO6aHS2rFzgo0QnWvnK7hYf1lc+gM7NEOmqDy351QoFhllX0XkWmq5+A75Uee2bXkWLDnVqdc8i281hXSVv6AzuD46M0VuLfnVOVQblDVEEWmOnHy074uj5+qfXlWl8yZRVrrbkXHmsM6Sr/QGqwVw980SuLTnS5Iw3Qdqb+LTHWShh/Churblq4uSRpRrsPiV/CxlKg7ofTBO8bEaO3zn8+goVQ1Aa6TdxaV3CIZUKG03CdrGJmleb23zxM8LELlRdw7uBlnxAZvna8+gcVQzCl6TexaT3CIZsBy1jhO2P5Feb3BzxP8LDbJ/wBEDm4Fj42h5FlFBJUjeWN3F3hJBEMqKpXeXXmTljqRxjtjmUfCw+ya9EDu4ED82h5FjFLkgDcXWZ3tHFJXyvWs6NqHukV4E5Y2kb47hgovNYb0JvvA9QVH5GitxP3QQ981qwCs+lbT40n34MmaOMkLfRsd8CavOguatOyJLXzWHdCf7wP0FDqGNVNxa7qrLbNdcFtdEMakenNozRjgFc7bbTFOhIVB2tO898XlpR+iKDagjzjV7cWU0tw+waAJcWkWqx0noBlxLi6Icovjt3NTQvOYA7RPyjshtA7iwmvgV4rSkuJ8XZl6RCvuLaLtiUeZ0ORAbKEmE4mkk9SUe57GGGGGGGGGH0//xAAvEAAABQICCQQDAAMAAAAAAAABAgMEBQAGERITFBUiJCUzNDUHFjI2ECMmF0BC/9oACAEBAAEFAv8AWuSf2AgHqKJqH1BUyj6huq/yC7NXv9/XvuSyjfMpQ3vL5hvOZNQ3hNGL7umsw3ZOGr3LOmoLimqGamjVt6co09PUE1OZdty5qNMy5aG45Mo+oRMzPV8pnMo4ZGLcjoqu3ZSjTEoahmZApkZl1pRnnZVdsSlbUlDUEi9KZvIrGoZh7pdpyVa/JUEi7pF8sZDakkrWtSpq0kvSb56Wr/XKkwEtTpMpojzctczpk+Zzsk8SfLKOoRPqxAc7kbmepPms4/dIPnIuoluWrdHK6PeTnMjNSCqE8bMqh0kHwsLf92SBqZybgzyQDmF+Y6nlqVK31qL8y6euCyLqaeILpulHVtRLpu1eRWG215A6T9eXelU0p3EFHuEmtQPdLyrpul7gf1OjmM2dAkwSVFvb7qadpGhpV6vJyQcwvYmZgBauooGSjQ5tcYiWbqOD+VikWrh/FBzmSBQ9DSH1pEBqC7py9BdCpqkyCVIUtYt10z1ctslIapEA1+8g5YBavIoFaxwc0uXzaKWlVbNjtYLMCVRPllm51XT1A7Vdv9aEMxYLujfKpYMxRLmpRI69uuIxw1LbR8tSYcfdvicu7ewDqbEo7UufzbTHWnQcKfGooB2pIi3K6dE0rpsUS26b4wXeKfKpTpCcNEsmJraMisUltYarL+Qu8csKBavkoagxHmN0ebRECqmIBWCwbsSHMZFQSrp4uJ3Dkg41BBxinywqS6ACGgWOdK3V5Bw6Lb+OWUDjrtw2IBavcMscz7+6fNl+SxcrVb4xPfzQ82ad0YMsOf4wneKdS2yZpZ7vNTY0dQULfcSirpO2yjo5TvZ1gElGFCrraHes0CaKRnY07yVdRwszaQirMw5ai+/lEmRnzBJIz5xvMBHdhQ4xXqQJhJIuw4PHddfWqtwQKhJ96v0ChV6CcsSgA65dvmsaKU5Wa1RfeSbAVZFFuKDpHIaEMFQ3eK9S3wzSz0uVrhuuQ/mqttNNWpYvGK9IAq9yckbl/fd3mf8ApFUF2p8ajQHXJWOcLyKLZZuqv2CmGWH7xbrwObaa28wEgZXIfzlQAHMnKBxanTwq9S8hQH993+WpPHQKlCo4A1qbUPtZqfiSK6eJqH7xbrwqybWRMHLhENE5+uVBGEpZgMzwfjhvXgYTQiQjp7w8sySBw82MlCts+V1Hd1KyjhCRt055KalmpGrUojmh+8X69kNEnTyXTBKkS5knP1+rJRKrCSocVJrnbMCnA1XabNDJhvXl5aP76cAdEcB08eHFTvmbP+wT/wAVcKiQ49x1/TzycyG8XCnAfz9WOUDQUz3broRcuR7VyjmiQDKa8Q5szgJArp851pIxMy7AmV1ItjurghbSdsHkymsVqUuZWK79lHbUlISz3UKvNJKpGbh+pwH8/aVvIzhmFuJM0JoOLMXMW4YOPt2HePEn8IbqS8ClKum8sk1QfzaTpqbrt1CJOtWjNc2+fK/frP0tQcFVYs3STpCJVSV0EyYy8BMvaCzJduZnaU43L7TnDUFlS5qW9OX7g1LJJrpyFtR79sHp/EUWxYUtFs+GLRbdjEqNDsVUiRLJKtTRLQJELWFYVhWFYfjCsKw/P//EACQRAAIBBAMAAgIDAAAAAAAAAAABEQIQEiADITAEQBMiMTJQ/9oACAEDAQE/AbQRrBF4III8cjLXIyvkZGRl44mJBBBBiYmJiQQQQRbEx1kkkm8kkk3km8k/Vf1n5Mp8f4MqvNlPi+jirpjsezFd2Q94RRA9mLRiHu0ymR+iHuxXXkh7sV14sQ78dPQundfqmcXH+Thb9UO/DTKOTp3fcnxqseB+dQtfiVY0nL3VZH9ji4qYH5VC1VeJV3ZWyqW9Qrv6VQv8n//EACMRAAIBAwQCAwEAAAAAAAAAAAABAhARIAMSMDEhQCIzUGH/2gAIAQIBAT8Brati3pWwtzsYvUYxC9NjpGu2z8mtpa0/rIYakd8vA/jGqNTSbeLGQOq7W35Nd68PrIf3CMbD+Vei+LGQ5kPFjIcyHiyRDmRJCwZIhzRGsWMT2ie7jQ8XRjFHcKO3jQ8XRjIcUuyXREYh1dGMhxS7JdESQh1dGSIDEPOQhEiJLFkiAxDzXkkIkRHixoh6tiP5X//EAEUQAAEDAgMCCAsHAAoDAAAAAAEAAgMRIQQSMRMiEEFRcXJzgbEFIzIzNFJhkbLBwhRCgpKTodEVQ2Jjg6LS4fDxMDVA/9oACAEBAAY/Av8A5sO/Y7XaybOldLV+Stgh+r/sqtwDD7dtbuVsDH+of4W7go/eV6ND7LH+V6Phh2O/lWw+G7GuPzXmYW+zZO/leQxvNCVoxvtEKy5x+irS+6ELzz/02hXmkNeQNVsbM3ptaF6XJ/luvS5OwtXpsh/E1XxU/OyRoX/sJv1FQ+E3jnlosEeSf6HJpHF71EAWPa9tavsVkZDt3kmlLkr0Kb8q9Em7W1ommXCmJpoKvaQE8Z2ZRyg1TYmMErvZmJIXo8n5XLzM3uevGwmJp4y1wqU4GUObXQtqnMiBloBoCSvR5PyuVdjJ+VycJWGC1Ru0JV5i6mlRUjtTtkHvbUiojqF5mT9FWhk/SRbI+WNw+7pRYJhBrJiRQ8m648EFN3xd1hOZ/cpYIRGGRkDfFSU94lwcTWkDxlqkoPly7UStDtmbVDk9M6t6nhiLWsjcWgZa6IvONw0FDQB4FSsNK8guLrlmhO8E/nWJ6tiOSOFo4qgk96ExGEyEZshcQSOPjUB5Yndib2qWdgzFsr6V5S5axiuhyJkUuLw84LspjjFDVYjnHwhYIDQ4gV7GuPBhvtBe2LZuuzWvEsN+LuU4Z4QhwzY5AAwsFQO0J0TcS2Vo0e2Jt/2W1lOd+1F6U+8ny4iEYmL1CaBNIGVpa+g1oFPXwrNARK9mzDCcouE4M8ITPZxEOIqsFLK8veXXcTWvlKfawsnzNLBn+6fWWJ6pqjMeOhlMg3mMibVn7Lzo/Sb/AAsMf7p3yUsGyY50hB2hFS1PeJTBSZ3jAKlu+iyLwlNKwaPAyLDMlxc72F9CDKaFT84+ELDHjE4+F3BhqsL93QLCc7rcllib8Y+EcH+L9QUrMZKYoMtagVNUz1cr1i2Z8Hss0lA8jaN3yac/HwYLpf6k6w141ieqatl9nhY8HzjBlJ4MN1Tvkmg0bbtopWF7YqzHfeaAb689C/Tzb61/580Xlgc9k0dCRoCp+z4QojyTN+fBgjXZOGZmcanRYTpHuWJ/D8ITGVDcxAqdAp4JKZ45RWl6eSfmnkjNciii6t6nLfBu3rK5202lC4B/t5qJzHs2R1y10BusJ0v9SZbNqsT1TUefgwnVH6VHb+rF+xTxMGZ7piANPvomaPJlAJr7U8NEnnY8xB3aVtVS/h+EJvXMp7+DBZGB53rHj0WEr5WY9yxP4fhUVPWavCPXDXmapMhDXV1Oii9rXqd7/tO02zq5LMO//CyRMldUgND7uWGBFCJKEG1LuTb5dVieqanc/BhOqP0pvrFo9vEpwwEuMpoB00c7HNaNajRSml9tDU/iUnM3uCceSaKl6U328GCrXLU6cywXS+Sn5m/CEwkVAIJ5ljwIzE0SijHihG6xPGTPcW5VFbLuutyLEj+kdgKyDY5a2zut8+1QkYgYl7i3xj2a25P2UdaV2ztBQeU5NpTtU/VBO5+DCdUfpTfWpZYksOV4lJBHFvBUlmc8UpvmtlTOABPHQUFXGvv5FJ2dylr68Z/zt4MIQ/K7aEVPFZYS+be15bKXmb3Ic/EsfYAlzSRybrU8kltxcaqL73i3dtli+tco6xmXebuesqbPYAYg+L9UZym7hfelAp+qHenc6ivSjXnTXdWC6r5NUW5m3RU8llO9mrZSRUceYIsfs7jKcjACRWqnNsu1grb+2n9ilhLyy7X1H9k1+XBgoImZ3vmIA0+6sMwjLlloRyFSlksbAGiu1fTiUZfLHK11/EurQLH5AWgFtntofJb/AN9qfbNcWF6qI0y7rrcYspzLNIyXavzgMqByfJYYMe93jr1FN23+6f15pan316typeqHepOcpmQFzy12WhpQ0WA6r5NTLjLlWL6w/EODE1GssABpfy0/s7k/olNWGLH5Hiaz9KbpWGNc3jBflT+izu4MXnOZxa0ghtBSifU5G2vxqK+bddc6mynl20EeeV9nvoRT/n7qAiVgdtsoMZqRSl/3QLCXM2xIL9TvLQuuVJ1Q71JzlRMzvbUOG4aE2WEFNI6a14gm24teRYvrD8Q4Jy5jc7XRlryNN79keYJ/NwYa2fx+nLuuWGtk8aLcid0G8GLpV1I2i7cpNtU+lM1tdFFXysrtNNAsS9kL3skldlIGtNe4+5RPewtG1DL+sFP7Jz7fvq5y3Omqf1Q70/pFQbKLay3yjNS9FgD/AHQ+EJp5AFi+ke8cEtCBG18RcMla74GvFxLsCdzcEVTTx2o5MrlhqEubtRRf4TeDFsPlMhjB9pyJ9QXaWCioMu663JZYtoe7KJXUFdFFtZDGzOHEm9FK8EODpiQRxjOu0p3VD4k/pFRyyvDGsBNSKgmiwHVDXoBD1iBRY3pH5cDmCGR7pJY/GBtWgB1TzI83B2prLWmaRXTRywxNPON00TeqaoIjXK57WmnJVTsi0ka4k5s1VfybFRczu5TxMkpHHK/KKA0r/wBrDwT0lifI95YW1GYjVOiYA1oLCKNoOJP9hTuq+pP6RU7JYxJ4uoq0Op701g0YXAWorjNSqxvSPy4JyQXZHEgitl2KeaK72NJFRVVWmbxgt71hrFvjG2KZ1Q7ysP1re9UILXbJ3arDM7LZRV8qh000WL6ZWE5zxV4lLXiLdOPRPq8sbmGgundV9Sk6RU98vijfkVxldmdUaKOpOapoBosfzn6eDEi2YOdSvN/z3odAKW2bdNlLTdfG4iRnLyOTr/1jbqC5dSRt0zqh3lQPOHIaHNcSSBZOsxtGuG5aqoeNqYB5IBU8LKAySkAlMxWfMIwTuNdxjlTjOHtcctM9tCE/nBTur+pSQZ9nUvNaV0UrwXveQG8Tcp96aJfLrU3qbhO5ysfzn6VK2WtQQG72UaEpsUE0LGXcau40PvbvzVFPjcHhWxYlpaA8uLrE+0p88Ry+MbmZxtdZRdY1NlfiNlRuSlK/P2prKQZhXfealOZWBjaGzDqbpvRTS85W0NzzL7Vd0+bPUFxumgPmygUFIeL3Jw2U8r7AEx0oKpxOHnyvuDsnUKdL9knc3KRuREmtVtYPA84ea1eIaKv2DGOdyk0TK+D5m31fICSnRHBF/GCxzSO9OAwTLurUzNFFeHDNHtlqrvwbPzFZnYzD10tGeAslYJGHVjxUFOgMDImkg1iFCCt+KSXpyL0IHncVbwfD2iq3cBB+QLIcHAWVrTZjVbmEhZzRhWhjH4QrMA7P/J//xAAoEAABAwIFBAMBAQEAAAAAAAABABEhMfAQQVFhcYGRobHB0eHxIDD/2gAIAQEAAT8h/wCTp0/+XwdOnXRHlA37wS+Xr1Jefj/QvvcS+bwhZP5eOqP1KYpOZIuRuSV3vP8AJR+M/wBfCsbdQjfh2Vv84V/CZgSjdu4BXO+MFfZsN4X1M7NUngJ4F0cdjKtfdJtu2PRVj6dJk4L/AIQtZfiw4ksN1/Q/Tr5m9TRdLprTBjhfAYxqC7QuDFqDy+A9mPa6Dd4PmW/iu2j4gelyC8hx7xHP81NWh3XB+pg4qGwldAUcHUD0v1/6Q+jvpDTJyLUARHVdAOhEeMCzxY8K2a1pm2AHeu66WYRhp477Fs+bjREH4yIOFuzVNnarPIS/QnZQik56DU3MLQ17UBCNiz9VZcYFLalA/RUz+Ww7mTd9iFdcEH5VhytqSxgudkO1ogPyTwqp79lRiKs7mogiuF7+J4Dzg2jku4iqst6I8QmIFXADO+ckZ0+OlDg8AuFaGdQDA2McqAAgBqLqO+hwC4zD+V3bmQWHQFlHO464KXYw3fZfW3bjJGoh9lCTnktZrhIAwNmGwplh3RCCHpnY8sipVnkplSAcngaArWnewYS2cOFXrMVYmK6J97+xzIgliNsLVo/yjA+zb+yszacDAE4UaQz+DtDGwFYrNBspiGJBncQQDyMNvullsRhR/NLonDGWOXZHBHzZwenRu64nvBJJVU8lxEcMDwHSEqhHIILGuVN1CKOrd04D5wOhvRAQHk+cJo9xAGbaOQs5Zz2XUdxh8EC2YOxP2vGBOHMmZmIAJZwABKjPhcjbTAAHBORCv90u8k/xXTXGrOUS6lhVF245Gqy96HMQKGZBWx0dpQvJd2OUl6MpHVWPRBPB7toVPgWtlsQfJWo0VxZODQPBE513N7jPgXd5chBByPsualGwIipWd/6yV6Zq2arznvCyaJZGCNNvKzt+joUWkymcSAZ3BHRH1nmlA7vrXKMIWttQyCyrWmB7rjT9Kz5qCQ6W/AM0I9jlZmfAAUBIbRsmgUFnS/FZ1ALU36lUPGZc+1V1vqxCkgQSzOYy0Oh3HqgQCARhvZma857wWzQlZhC5DrLFVEL9YYXAfOZ6o9/6SMLGgBi0g8jsXrUP+YbCs+DvdWbhV80q6OteWi8OQZBLO2jar9fjKyKKszNGPJ8lShroxXR9GRgREOBEOrzfPBnzvtfZPAG2rVWrWX85Iflam+VAgjlBMhNOGKCJejVl10PAz7weN9GXieiG28x0W9YdcLqGNUNTQQ7rsPqjBlA+/J05W8jJa3T3AxzAyMdMiHFXdl4gk1aiDqqf7cYv4dS4UZ1nsCWAvL5snK23xRhIGJfNwF8LGYHYa1X4RpucDNq1VCOjSMyCKOOtRhSNvYHxjw6005YPOeeXiehWbTCe594D5Y3xehO0+a8hy4gzGcK3lK/jrMreFBQLuGikasWbeW8UQDBojIwj3H2qyYE9ArsUwxtWq1aEEjDjKFZelK/VckY2EdHNHILEmrUS7VobMyXmvWMfizyaEFlkgnU3TyzdwxdzXZX8pwPVav8AY4MNhUTKmUagLT7ovw7uCvKv4mw5smqLlG9YdDkDk04JCzY2E0FU/wBvOEDdTpqymK856QS5/HXA+C05QC9flBAkag1iJVnzK/K6scrMKgGcZWptq1CWGcDdSf3WzBmeaaqzthhbtU5AQpwgAsCwJNWOFEsqAIV21wUKaBwAT0F56VTq24y/TvVd8D8rxqVuGmjgB9oZTqOIEVFKmELUtDeVdNK1/cOBeomquqbIYG4XbmYFdk1jkuYlQRnlGchXenDFm1Ww9lh8ibILxTiA1MqUyVlp3V61QLaHysOgIyEGsUkjxayNvUcbOFd7qrqLJ/TxoFodzlX0XgiWnuelFd5MrmIfrC18K8s1fyeVBzQL6dqHTCC5alW4pfiHlXclkwbSgpQL73DZ6YUAFsfkvW7AhzAIcMzNcIWyQVuWqUGDkCR+PdpIr5X6fScDKq30uAddFZJoIupV39F/C6LJO4mV170UgGEVd9l0sogvr9xqQe6CYNHC3xbFNjNYyzXAVSoy2cvrOIFDN0Q6sljoyroWs1AF3HbKFlNGX3YQOs8HMQRJBpDVyXsciAHjyGOavmpWkC6oJLuQ8MloN0JGjwuJPEAzM6mFe8L2Bw66ZbG5gGWpYropNVB2VbLrMH/a4JpQfZcgMoGnCpg8M5rUgqzhmq7BxAaXbyt8l1B4Mtws/AAMA7Id7m9MJkFQgDIfeFH7YdAUyyQ0ZSg3PdZ6dz45V+91XudexXzxva25uzI7NovHTPhDwt+pegt/oBH+h//aAAwDAQACAAMAAAAQk/8A/wC0lW0kFuBY2oQkEAM3IXbbZLtbaTeSUvoWxa/eZuQPQUNzbnKWvUdSELx93BUoEbnom5bQQSaSbha35IDS7YSV3JnbbLCsFCVmalLJ0GWxCZmUXJK3YKTCb2SHZKnKQLQfhanbYEaOJANzK1ZLyi6rAX7YoARDV6BaHpKqATbXcJbX0SnKCSCCSBK+AnaCQQSCCASASAAAAAAT/8QAHhEBAQADAQEAAwEAAAAAAAAAAQAQESAxITBAQVH/2gAIAQMBAT8Q4N27dvJu3yG7du3bt8u7du3n3b5/du3bt2/0TENifkD1y2rWdJOUjkiZ7IwfYwRyRM9kGDGCO5nJGdfzf5nJE9TOSM/X7eEvTwR1nnGH5xAmLkjnemMPC0YOSOWec9jyedwfYjlnnPY8nH3eeD7ETOXzhl/JFQhx6FpS1r5wRM5fJzmNxDL8IIGfeCJnB0MajPa5KrTe23wvBEzg7G+SXqMHT5PifyJ6Ms/jWeSMs/t//8QAHhEAAgMBAQEAAwAAAAAAAAAAAAEQETEgITBAQVH/2gAIAQIBAT8QioUVJRU0UUVzRU0oUUVCipooor5BfVC6aG4X02lvCLS184ND9FrRCGhV15LJU9HLlsedT7LkhKkuMGhLGghDuiiSyWr+hyj0z2qUEj3nBqD+L431wag5orljnfXMjlC5Y+DIKcyOULljEM0KYhd76EIXLHOhCFFZzVoQhcsc6EIUVnGcfvpDh+ToUVnGcZ24cY4aFFZzGYoUsYliVvOIQ4z0NC4YgSs51CnBfBljYhdOULnRjYyyxC5Y5Qvy/wD/xAAnEAABAwIGAgIDAQAAAAAAAAABABEgITEQQVFhcfAwgaHxQJGxwf/aAAgBAQABPxDBgmEWCYJmiZomaJgmCYJgmaYM0TNEzRAeSliACYrcqTdtElNlnCiRxOcqAglyMyqYVyAHGFiUUgmgDqZcIAhCWZkBwEEqz3FcQUMAkAtxwfjIxNMlvQYgJHVAAsioUZBUAcdAIqIQo2JoggthUCNXAw4jtYrY8KBtRCDldhlQhiAQDNQB9psRoX1AgFkMiZcaoRKwjC+YUQUkYwgGSZrc4gM/BwCgFUTIjAehx/NkR3rzygq0wNidSzfVmn4B00w+iAAqgGPxSUyMhHXiJ0yBDeLtqZSeEZC3kYAnmiQEwIaGu0voANqogTi6iA7nmw8UEVCUYRkMk3aDO3BaAQEGYYeFADpGwdhAGwb+aADNNEDY13kvwHhSGEARBVsfQPLIoAjFdIKyjSsFg34qZkYF4FOCUFxRnmEID7XaMgcV46mNbIMCOEMgA3xyWFiuxCw5CWjBAgP0PxCDgEgBA6jlNvwiYCqs1uAqoLRZxFNNnUbqAghblnuAAKAi6o0GJRY3Eh85O7LxAEkgAQKFBIGFA5+FygUHbERJF2FEAhPEpTjbriEACRqVWw4BSBt7ugoawKSUAZS7FL0A7g9A2Qd61nABE+Awdl8DFQCITjWGNiwABZhUwIGg3blCUI53UrLHnWakkAAP7YbEwQJEBtgj0ocAJBs71MoRi8vkAC8hIMXC2wHw4eAUACxkKASXQr9EPSCR4hXHLMBmoLkodAHDFJF32IB0WlHuK8MDgGPCYARtC01CM4SAPJWG4yQAKpZWKQAAHQbgKZlCtstNIFel2OmRC3KAWTMQWA6JBoAMmMDLwz1CvoJFxiEXI5TB0miMYCREAPwmEZtHJstAH8gLEYBG/wCSJC8FLJjmyFjgwhiQ1Qb1kuFnCABMPg5Bx5f7RkgEQAHBrExY1bxK2MyAaCoA1TOu1qnyyYlABdkqA7TK4pMwDomUToeEDFtIPxRFCYC8MsBmO3yEGs4XggVBiYoa40UkEXFHwDAFMSl8MefJaEYBvr/qr3EjYBipilsfvYWTO2LMBUEZqMfASMECR3BAEgaKChNmAJUNm87DEigZpkCsVOJqILQAFUd6lNpCzQaAqCHEGyn/AH3mQuJACxzUpKmNHB9C0bJQADCAEsq0x9VxyitQAI63dferGncZ4IEMGBjOcqahBABAkVkuWy28yjf8JzEwDKDEFgaZMBV3vUCT3BACmHRp6zFMJLFsWQfyyWyWy19oZtaHAg9fKJCCVBVgc4LDNKAIONAqYwNmUl8BKCcUhCyZEAjhQhMDgByddHAKBB5UUcdeGUcAGB+eVo9JOFKcnPdhT/RyIXMLkMHABoZEoHVICswG+Uu9CTrIAhdYd+jCDfagC5LkuS5Lkn1yXJcsf//Z" parent="1" vertex="1">
          <mxGeometry x="276.97" y="235" width="84.87" height="75" as="geometry" />
        </mxCell>
        <mxCell id="nHwe-JYxMAztrHhhpzCX-2" value="DCN01" style="text;html=1;align=center;verticalAlign=middle;whiteSpace=wrap;rounded=0;fillColor=none;" parent="1" vertex="1">
          <mxGeometry x="240" y="210" width="49.08" height="35" as="geometry" />
        </mxCell>
        <mxCell id="nHwe-JYxMAztrHhhpzCX-3" value="" style="shape=image;verticalLabelPosition=bottom;verticalAlign=top;imageAspect=0;aspect=fixed;image=data:image/jpeg,/9j/4AAQSkZJRgABAQEBLAEsAAD/4S+gRXhpZgAASUkqAAgAAAAHABIBAwABAAAAAQAAABoBBQABAAAAYgAAABsBBQABAAAAagAAACgBAwABAAAAAgAAADEBAgANAAAAcgAAADIBAgAUAAAAgAAAAGmHBAABAAAAlAAAAKYAAAAsAQAAAQAAACwBAAABAAAAR0lNUCAyLjEwLjMwAAAyMDIyOjA1OjI2IDExOjE2OjUxAAEAAaADAAEAAAABAAAAAAAAAAkA/gAEAAEAAAABAAAAAAEEAAEAAAAAAQAAAQEEAAEAAADiAAAAAgEDAAMAAAAYAQAAAwEDAAEAAAAGAAAABgEDAAEAAAAGAAAAFQEDAAEAAAADAAAAAQIEAAEAAAAeAQAAAgIEAAEAAAB6LgAAAAAAAAgACAAIAP/Y/+AAEEpGSUYAAQEAAAEAAQAA/9sAQwAIBgYHBgUIBwcHCQkICgwUDQwLCwwZEhMPFB0aHx4dGhwcICQuJyAiLCMcHCg3KSwwMTQ0NB8nOT04MjwuMzQy/9sAQwEJCQkMCwwYDQ0YMiEcITIyMjIyMjIyMjIyMjIyMjIyMjIyMjIyMjIyMjIyMjIyMjIyMjIyMjIyMjIyMjIyMjIy/8AAEQgA4gEAAwEiAAIRAQMRAf/EAB8AAAEFAQEBAQEBAAAAAAAAAAABAgMEBQYHCAkKC//EALUQAAIBAwMCBAMFBQQEAAABfQECAwAEEQUSITFBBhNRYQcicRQygZGhCCNCscEVUtHwJDNicoIJChYXGBkaJSYnKCkqNDU2Nzg5OkNERUZHSElKU1RVVldYWVpjZGVmZ2hpanN0dXZ3eHl6g4SFhoeIiYqSk5SVlpeYmZqio6Slpqeoqaqys7S1tre4ubrCw8TFxsfIycrS09TV1tfY2drh4uPk5ebn6Onq8fLz9PX29/j5+v/EAB8BAAMBAQEBAQEBAQEAAAAAAAABAgMEBQYHCAkKC//EALURAAIBAgQEAwQHBQQEAAECdwABAgMRBAUhMQYSQVEHYXETIjKBCBRCkaGxwQkjM1LwFWJy0QoWJDThJfEXGBkaJicoKSo1Njc4OTpDREVGR0hJSlNUVVZXWFlaY2RlZmdoaWpzdHV2d3h5eoKDhIWGh4iJipKTlJWWl5iZmqKjpKWmp6ipqrKztLW2t7i5usLDxMXGx8jJytLT1NXW19jZ2uLj5OXm5+jp6vLz9PX29/j5+v/aAAwDAQACEQMRAD8A9/opu/pkdaAxycqaAHUlJuHvSb+cBT9e1ADsUUgPt+VGaVgsOoppbHp+dJvGadhXH0U0Pk4Apd2BzxRYLi0UzfnoMigyAdSB+NKwXHUYqFrqFDhpEB/3qPtUAGTKgH+9TsOxNRxVQ6nYq203cAJ4wZBQ2o2ajJuoAPeQUBsW+KOKzhrml5wdQtQfQzLn+dB1zSgf+QjaD6zL/jQK5o8UVmN4g0dfvapZj6zr/jUZ8UaGvXVrL8J1/wAadh2NfFGKxD4u0EHH9qWv/f1f8aaPGOgknGpW/H/TVf8AGlYLG7igVzx8b+HlJVtUtlYdjKo/rTf+E78OA86nb/XzFx/OiwWOkxScVzh8d+HRydTt/wAJV/xo/wCE68OEZOpwD6yL/jQK50dFcy3j/wAMr11SD8JF/wAaB4/8NkZGpQn/AIGv+NA7nTUcVzX/AAnnh8rkXyN/usD/AFqFviL4bQ4a+UH0OP8AGgVzq+KOK5P/AIWN4aBwb7H1A/xo/wCFi+G/+fw49cD/ABphc2Nbnmt9FvJYm2ypHuVq8Th8e+IDbQu16ytIofKopHIz3Fe1eIU36HeL6xt/Kvn2yt/Ms4BnBESj9BUt2Gbw8beIZeups3ssaf4U5fGHiR4yItXLL6GJP/iawo42hnZgvl994qpc6zcaZapJcxear4KnOT9PwoUhNG+3inxISd2qy/QRpx/47ULeIvEbnP8AaU7f8AT/AArn5vFm+NXVJlBIDhzwR9MU8eOLGLsc9FCZXH5iqFZm6PEHiCT/AJfZ/wAl/wAKbJqmuSYV7udye2cfyrn/APhO4v76f8CBzR/wnUZHyzbSDnHNO4WN7+1NXZfL+1Tj239Poev509brVQuDe3BH++a5dvGqZHyq5HJ4NEnjaF5EYB0IGMA8Y9KQ7HTJc35BxqF117SGkLaq5+W5um/7a/8A165e78TymESxQ7Fx90HAPPepIfE088JP2WZM9PLbHXvQFjdkXVN37yS5z/11P+NPWLVGH3rlh/12P+Nc+fGC26r5kUxkXj525/lUT+NV2psSZfl5G7vTuKzOlNtqJBys/wBfM/8Ar0q2WpFek5X/AGpf/r1y3/Cat6TD/gVIfGUjfx3P/fz/AOtSYWZ0z2d0sZJSQH/f4/nmmJaXJUkrIB7P/ia5h/Faup85Jn28gl+akTxA88BeONxjgB2zQGp0YsLl/uox/wB5/wD69H9l3f8AzyH/AH1XN2eu3zBk2LMpP3mU/lU82uT2aO4iCKBkonAB9RTuKzN7+ybrGSVA+tSf2fdxAFCh/GuUPjFvLUFZBnvnk0z/AIS4+kv/AH1Rcdmdn9hunXEtvE/481G+jrtL7lRh0BPArjX8Vu3AEv8A31QvilxwyyEejNxRcLM6o6XJ/EyH0INOGjylcmePPof/ANVczb+JGumaOCLyyV65qOPW9SjuHWKYScAlGBwMcetKwWOn/smXOGmh29+v+FTDSG2fLPB+v+Fc5Jqt1bzeYFgX2Cnnj61UPjG7Vc7IjuXHIP6c0NCOtXTpk4WeIsPTP+FT/ZrgxlJZYNp64Hzfyrhh4tuiOYUz/tdaafFF03/LGIfUf/XoGdk9jEoIE8Sx++dx/SqzwxRnDs6e7DP8q5b/AISm7XpFB+R/xqW38T3sswWNo4ifvFf/ANdOw7H1nqi+bpl0oHIjcfpXgNkAtsq9dvykfSveNdmlt9DvJIhlxEeBzntXgulO8unRPIuHZQzfU1EiidwChUjjFc5rqsukW4YDC4wcZ54ya6dl4NYXiRSdGgQ/56VERo5B3MiCLflc9cVb8L6VZarqF8l3B5ixgFRuIx+VU8BXAHtWz4F41TUj7LWqC5s/8IroUYHm26x7gSN0jf40g8MeHgvCRZPfzm4/WuT8X/brjXZAqzeUqnaY1YjqfT8KwEtNQBAeK7XPTKNz9KBXPTj4a8OknEaemfNb/GkuvCmhpayNFa7dsZbcJGOTjqOa51fDml/ZLcPqd2LiRRuUBsA+v3eBXUaLGYtEltvNaUQhlWRxg4yc9hQC1OEuCGslGScEj9TU9rI4hQB2B4GQcdKguQRb89Nxx+ZqW24jTPsaB2ILpPOu7dZDuDOc12j+EtEj3GVCiKBljKwH864+b/j9tf8AfNdV48W5OjqlqJHLzBXWNCxIxnt74oC41/D/AIZUnE8RAOP9e3X86X+wvC6KCZ4m9hOSf5158NN1Mxsy2N3tX7xMbcZ6Vs6Fo0LwSyaml8hHSNYWy3/jpoC518Hhrw7dRs0ISZQRu2TMSPTvWDq2nwaffzwW25UCqwBJPUe9aHhyzgstWU2i3Xlyo28SxlQODjqBzUPiFj/acwxxsXn8KBXMOyZyzgs2M4IBxTr5zJayg52qox8xNFkAGfP97+lLdD/RJ8ei/wBaAsdPYeE9LnsIJpY3eR0/vsO/1qceDdJPPkMB7yN/jTp5pIfCRkizvWBiuBk5rzQvqkshYx3TE+itQGx6SPB+jcFYnI7nzGwP1pT4O0l3wLeQgct+8bgfnXC6Lp89/PJHdz3NvHt4Y7gQT3+gro7Kzjsb+2mtNQuZVYlGjccd/wDZ9s0BcTWNHtNKvrZbJCgePJ+Yn19TWJHzfPgkYUjg47iuq8V/8fdkV4PIP5VyyYF8/wBDTQNFtiZM5bb1yevatjRfDGmXWh2V1PEzySpubLtxwD61jL8udw7n+VdNp8k6+BlkhXMotCFA/wBztQ9RLQG8M+HUYb9gPfM7cfrQND8Mocfut2OP37f415w1lq087AWl2ztzyjCtDSNKuLq8QX1vdRRDOSIX9PoaQ7neR6L4dk+WKOKZ/wC5HKSf51ma9pVlYw2z21uI2afB5J42nj9KpQWNpazpPZQagk8TER74W5IPDH5cY4z+NbnioH7NZ7s588Zz/uNVCPo3W2MGjXMq9UjY/mMV4XpuWsI2PVxv/PmvdtaBbR7tcZBhb+VeIWAAsYRjogH6VjIaJCvFYPiSIHSI0LYy4G7sMkV0ZXg1z/idB/YCEHc2c8fhUIo53W9Kh0s24hvI7kSIGITHyHA64J9aPBQzql4P9laxoprmYMbkYVThT7VteDfl1e8C8javJrSKsIt6pqOtLq1zb6dZxvBAhYs8DY4J446nj8arXOseJorBLy4trBIYwQHaM5U/3cf3iOQM9KzPFOqXOm+JZXtriRQ8Y3Lng5J7dPxrGn8SalLaPam6ZonBUqVGMH8Ovv1FaIk0D431F8kR2SnAH+qxn9f1rsfDGoz6ro0010F3Nlf3a8dSP6V5OHwTwMHtXpfgRt3h6XI/ix192okla7A5y6bNthdvyyMuNvbJrrfDDeHV0iZNXQPcNEPKf0GDXJzRkK5VsDe3GOvJqWKJ5IbdoW/dgAt9D2rKpTU18VikMmVDqkBXlPNcLn+7k4/TFdh4omvlgtY9PmEVxPMVzvKjAUnnH0rkJMC4ts9RIf611vii2W6isbeSf7LGbhiZ92Cp8tsc/kPxq4bAzGiHiyGKeE6jExdUY5mYnHPT3rnrnxF4htbloG1C4DDriRsfzp+safeaVFDcJqn2gSZDGOVjtxjHX61z8sskpzI5ZvU9aZJ2/g7XNTv9Z+z3V5NPHtY7HYkdDV3xDHjUrkIesSkD04rC8AMf+EhA7bG/ka3/ABHxqsxH/PMfyoGUPDctlb6sk+owefaqx8yM9D8uB2PtSa69pLcX72MPk2rNmNPRcnFUYEL+btOMn8+lPnjMdpOpOTgf1qIQ97mYHXmaS38JJNEqNIkZKhxlSeeorn7nW/EOjxx3lxp1okEwKo/2VthJB6HOK3ZkZ/BoRWCsYmAY9utcrrGla9/Zpury9FzZR4Kop4GTgYGAO9WndiKr+NtTUgGCyyB/zy/+vVzRPFl9fazbW00Nqsbk5KR4PQnrmuOkbc2SPatLw1/yMVn/ALx/9BNNgeg+LPmurI+zfyrl4di6iJJBuRDkp/eFdR4n4nsv+BD9K5VFL3cq52nsaVrqw0b+v6hZ6lfrLY2kdtAFIwgHXB9hWjp0jxeCoGjIV0t9yHtuCjH61zARY3G7q2eAeOldFA2z4fkbckWp6H0TrShDk0GzEvL/AMVaXAt9JdwbG6FZGz0+vtWFN4s1xSQmqXAAJ+5IwH86zWnubiNY3lmkXOQrOSPyzVY439TjFUQb9j4o1qe9t45dXvApbDEynBruvFI/0K06f68dP9w159o+jz3Ua3kMkWyNwWBJ3d+2Mdq9B8T7jZWmQP8AXD/0A0FI+k7/AP5Bt0D/AM82/lXiNpHtgX6V7jfLu0+4HrG38q8TtxlCP7pK/lWMhIdt+U1geIy6+Ho8YyTxkY9K6TbxVDxNHFJ4NmQx/vYgm1sdMsBUx3KPK41uF3m4GF6qK2/CQH9vXm3hdo4/CsRI5oy6zS7/AE56Vt+FR/xP5/8AcH8jW/QLmB48UDxE2P8Ankv82rmD7V1Hj0f8VF/2xX+bVzUYB6jdntnFMkZg5r07wGMeHpc8fP8A1avPLO0nvZhFbxNNIAWIUdABmvSPBNvPb6XPHcQMjZU/P0w2SD7ZFDA5y5GYHGBgu3Pfqa6jwx4gtdL8Mz2U1szyyJtDH+EkY/rXO3C4jbPQyHafxqZmihjeKTmRmyDWdSnGotUNFOZd11bt/wBND/Wut8WrYy21mupytHY+efMZASR8h29Af4sdq5KT/X2n/XT/ABrqPGMlrHaWzXyF7UT5dASM/KfSqSsNnGalZ6HBpjG2vpXuiQyRspwyZ4PTA4rnSCegrrpL/wAOH7sbRDynAj2bsg42jJ6fWuVmwHbyxtG7KjdkgUyTo/APHiIZ4+Rv5Gui8RgnVZcdfLH8q5zwLn/hIlznPltnP0NdJ4h41Zv+ua/yoA5+GAqriQlRnOfWpLhVFrcbTkHB/nViYr9li3DOBz+dQT4FpMAO3P1qnsM6m6GfBRHHMLdfxry5LlxEY95WNgAw+hr1G8/5Ec/9cH/rXkvZqSExZMbjhgc85ArT8Nf8jFZ/7x/9BNZJrT8PHGvWn+8f5GgD0XxR/r7P6t/KuZS2LNcT5wACn5//AKq6nxSN01r/ALzfyrAh2rbXKsMgyL/I0kNWW5EPJy/lEkMDye3FdFYqg8DhZWIj+zNuYdcba52FQQHQcc/yrobZtvgGRmIGbVsDH+xTvcG09jkri38LmGRrS+m3mP5VKsPn4/2enWsK/Nqbl/sTs8OMjd1z+lQLuy2QMAdCMUGLZ8rqAT3JoEdf4XDy+GtSUL9xlO9VJwMEnNdV4jYnT7XIwRMP/QDXJ+HJreHR5xHfeVcvwYA/EnUZZc9B06c5rrPEeG023K9POHfP8JpgfS9x81nMO+xh+leKwxhXmGefOkB/BjXtMo/0WZhzlWP6V45Ep8y4YgjNxKf/AB41jIEKVwKr+J7cL4QvJCcK6oPp8wq6w4qHxRk+DrkKcEqn8xUR3KZ45HbCBGLz+YW5Hr+Na/hZiPEE+R/AP5GsmKzCNK/2gSFucelbHhgZ8QTg8fIP61v0EYXj4Y8R/WAfzNcujFTkdhmuo8f/APIxj/rgP5muWH8XPamSbPhdsa/aHD/ewcHqPSvTLCT/AIm2olZN3KAKB0HPyn6dK8w8N7I9dtZGYIFbO7cBjHevUrLDajqLb8q/luGWQMDkE5470ykcdcrhZlwP9aT9KjlWN5EaVyHJGKluCqrLtGWMhyagnSAtE1wcMpG3PrRYIgyqZ7bJPEn+NdX4muPsaWd2sAuGjnYCE/xZjYfpnP4Vy0iD/RiCD+87fjXVeJTPENPeyiEt0J2KLjOf3bZ6e2TUjZzMPiOTyPIXSGLAfe2/MR6Yz2rndfvDqWpTXHkmJiVzHjG3Cgf0reuNQ8QfaraVLII4yqvEjFSWIxk/hXO6ybs6ncC6GybK71I2nO0djQSangTjxEvP8DfyrqfECE6oc94x0+lYnhXS7jTtatJpjCVlhJCo2SOO/vW5r4QawxVz/qhx6cCgDJbatvEG57VBclXs5mUY+WrDFRDHuGar3BBsptoxx0qmNHUXI3eCDn/ng/8AWvJe31r1qf8A5Eg/9cH/AJmvJewpIGMrS0D/AJDtp/vH+RrNrS0D/kOWn+8f5GhiPS/EoxLan/ab+VYUK7kmOMkyqMduhrd8SjMlr/vN/KsC2kZPtABb7wIAPtQthq19QKiKNVXBzk459K27NzH4I3AfctmO3/gNYRleRtwQ8Z6n2roLZS/gkxx43tbMP/HKSLqKN/dOOuPFi3Nm8D6bEuU27wTn69ax9Tv2v74Tqip8u0Kv4/41bl8LapHE8/kF40TezYOMVn6hZPp9wYJdpJUMpHpn/wCtTMzqfDFoF8O6rO8Icbcq2eRhTmuq8R7hpUBbkiUf+gmuZ8OSA+FNRV2UBVyqseTwfu10viPcdIhyCD5o4PX7ppgfTEihkkBBMZXkCvGrfDXGoBFdUW+uAu45P+savZ2BO76V41bxGO/1XPU6hcnn/rq1ZSBE4WofE6/8UhcgdPLXn8atBag8RfvPClygUgCPnNZLco8Xt40jdtj7srk+1a/ho58Ry+6f0NZMX2ZJHERYvs5z07Vq+HV2eI3A6hcfoa6OgkYvxBH/ABUEf/XBf5muVXhjzXWfELjXYj/0xUfqa5MMQQRTEaugG2XWrU3Aj8sNyXcqAf6/TvXp2lJbC+1D7LLDPCTGxeKQsASDkH0I7jtXlOkkLq1opUN+/Tn8Rx9K9bs0Kaper5UcOUib5emMHnrQM5K5UgzErhd5xVa7mgRoTMm4HkVeuQoacdzJmqc8kcIi8yMv8gxx0poljiVMkDKMJ5g4/A11HiOO7dLEafIFvGlcR57Dy2J/TNc02PNgYcLvXj8DWz47nltdIgkjIV0n+Uj3XH9TUjRzrWHiSK2gd7yJbfepR9xwCCMdqytetNQttblXUWje7wpkI6Y2jB6emKzDeTk4aViobOPSl8ySaUkksy/NljyfSgD0XT0u/wC0tKWWzSKIQnbLE+/fx1yQKd4iUf2o3TGwc9D0pulpdz3ek31xFCBJEygIjKfu5yST70viIKNU+Ukjy+c/QUAY8rMqjau6o5WZ7SQsu07elTyAhAFzuPSo5Q/2WTzPvbTTY0zpJR/xQzf9cW/ma8l7CvW5P+RHI9YX/ma8jz0oQSG4rR0LjW7X/e/oapIoPGfwrqPDWk201i+ptJL9ogn2KgI24wOvHv602Sdp4j4a1/3nH6Vz1rjzpB7iuh8S9bY/7bH9K56BPlncH5w4GO3IpJXRalFMfMFjkAUZBzkD6Vs2hZPAr5wGFvJj1+7WCgkXcxIyM9PXFb9mA3g1y2Axgc5PrtqErFTaex50uuaiIZIxezEMMOjNxj/OKpTzTXcgeU5YLtGfSukfQdGmjnaDVWacJuWEqRg8dTjGKxdTtrS2uoks7s3ETRAtIVIw2TxyB7fnVmRu6HJdT+HLqBJI/IgOWBQbiDknnGc12Guj/iVQZOf3g5/4Ca4/w9++8PanFJdmNYkJEYXIbgkg8V2mvZbTIt4wQwP6Uxn0rIdqsQMnFePRyCTVdWA6C9m/9DavYdoOeo4xzXlt1oT6LqV7vlD/AGq5knHPQMxYD9aykCGKtM11gfCl+pUf6vGfpUyijV12+GtQyBjyunoazW5TPCYHgw6rHiRlOSRWtoHy+InB6lePyNVBAAgkMTDeOHI4P0q5oBDeJstxgEf+Omtk+wkY3xCBOtxEA48kfzrkijcgqeBk8dBXdeObKa61aBbVWlbylxjH+ea59fDesujGOykOOT8y8D35qhFHSQf7XtQm0Ayr984HWvXbQIt7cJvVmZI9zI25eAcKDXllhZG21uC1viLZ45Rv3nhenUivVLKWF9UnW2eM/u41ypJBwME8+tDA5S5UedOOAA/XPtVe8dokhAj3KUGTirl3xJNmM4D/AJVFNNHBHG0pyvljimhMiYjzID0G9cD8K0/iGrLoiZ5/fg/Tis9/meJlX5C6ke3Fb3im2TUYLSyknWFZJjmR+gIUn09qkpbHkozv4Gee9SoH8wndnjGev5V0Unhq2L3JGpQ+XEQvU5ZiT049qypbGOPTmmF0DMtx5Xlj+7tJ3dKBHaaDb6gsOlS3F+Zo23GOEyFtoK+pPp2xV3xDtGrRleQ0JBGOmMZzT9PikttL0RQ6p5i5C9TnaOabrwH9oxsOf3Z3Z9sUAYrCRrRghw+eGPao3SVLN1lcO+w5IPtU4YG3O1lX5qZLkwz5YN8p5FNoSOgk58Ef9sX/AJmvJPSvXCP+KKP/AFxf+ZryIdaENkiHtx257133hzb/AMIfMFjCus43sOp6df0rgI13Kf6da7LRbtB4eWGF7gEzgSgquwn69emKGB1XiIZNvnp5jfyFYUS/69VPJdT+ldB4jHy23++38hWBGHDTbR3B/SiLE7XK1rBJCCWkDliTgnpxXQ23PgxmIBIgkOP+A1hQ7yilh2Jrdtf+RLl/695P/QaHuUeVSMFlOVU4JOByDQX8xyAx2/7RzxUUn+sb60RjLj5gPrQhHaeGkhbw1rZ8xOIzhSMsTtOPw9q6/XDu0yIgYyw757Vy3hJgPDGu+YpCMmCxxhSVP411GsZ/siHOM7x0+houB9MYyOec1xXi1ANSix3X/Cu27YrjfFoJ1GE442n+lZyBHPqPmx2pNURG8OXxXAzCc8deDUir8+cUuoKf7A1DaoP7luPTg1C1KZ5FqXiaPV9JttM8hE+zrjcoI/KqehkHxHHnrtPT6GqML2oYxoP3hALE1oaPGF8QRDPO08/ga0jDlEReNdVu9J1qBrSTbuhBIPTjp+Vc4PGOtecZjdZcjAJH3T6j3rW+I/8AyFrY9vIxXFHoKtCNKK+e61KJ5ygDyruOOAMivTNFS1GrTfYViAaFd/lDAJx1x6+teU2ADX9sCu4GVcj15FevWKiG+Ux+UqmD7kQCleBw2OtDAwrs5nuQpYDfzn1wKoXE0cSRM8fm/KO2a0L5Ga5uQWGN46d+BVF3EEUQWEvlRzimSyThhGVyqtIpAPbg1p+P/wDkX0Uf8/A498VnMMmMuvV1wB24NbPi0Wn2a2N9u+y+eRLtJzjacHj3xUlo8sxvPz8bcj8aArx4wFODmugD+GRPLvSYqHVYsFuRk5PX6VRnXTRpki2/mG7NzkFsjEW08deecUCOx0nUPttxpSQwyJGEJaRo2Vc7eQpIxV3XP+Qov8SiJgPXtWboss5bR4jb+XZ+XkSCQsC+3pgjg9K1NcIGoxbRz5Z/pQBiFn8ghMj5qRwxin3kk7T1pzK7QnDAfNTWVhDPuO75Tz+FUxI3yc+C2/64P/M15EOteu/8yW//AFwf+ZryIdaS3KY+M8FSOv5Cuz8NT48OzRQ2krO0w3yZGO3/ANauMX7nyjJ5zXeeDmEvhy7UnYiTckHnov8AjRIR0niEMRbZGPnbj8BXOLvWWUDqWGOa6HxApCxfMfvnr17VzwGJJT1wRyTSQmMVGQgMcjJxg+1b1r/yJcv/AF7yf+g1hRLtypYPyTkHOOK37XH/AAhko7/Z5P8A0GmNnkkg/eN9aIxlwOPxpZf9a31pqkA5NNAdb4ftbq40LUUjmgigwVkLRl2OQeeGGO/JFdprDFtIjOMYIP6VyfgybydP1MuyhDCWYlQflAOfrXXaqFbR025xkdal7j6H0x/F+Fcj4r/4/If90/0rrff2rk/FQ/0qE+x/pUSEjBAp15GR4d1EZ5EL/wDoJpBUl0d/h/UFU5IhfI/4CazW5R4Ck8TL5Ijw+B82K0dNQnxJCRwAD/6CapLMCzL5GEGBnHPT1q/prq3iOFlUgbT/ACNb9CWZPxHH/ExtP+uf+FcWehrt/iMP9Msm7lCP5Vw5PNMRZ05d+o2y7wmZVG89F5HNeuWM/wBo1BQJhMsUJQlBhTjA+vOK8etyFuIy33Qwz9M169p9nBaavGYkWNnsVf5B97gdcd+aBoydQIN7dYGFLDJ/AVRneZII/JQMNg61o6kS13c54AYcD6CqDrcNDEIgR8o60xMfy/lGX5W8xeP+Amr/AI8Rn8PKq9ROCABy3HSqbq/7vfgkSLk49jWr4svBp1nbXzW6TrFcEbHGVOUIzj8aka2PLnhYhA0bghfugciiNJUHmKrBc4JA4H1rbHinE0z/ANnW2JWXBZOQAT0P41UOtFtNubT7NGolkLllGMAjFAjs9Dk/4lWkkM4ZZCm4jggKOlXteyL+A5yCjf0rO0WYnR9HjL8eZwu/JztHOK0/EGDf2vQnY31/hoRXQxype35wBv6/hUOxY7eZVbcNp5/CptgeLBJxv7H2phiVIZlGceWT+lO+o1D3bm4v/Imt/wBcX/ma8gr2BOfBzf8AXB/5mvHxSW5JPCMg5UEDk57V1ugXscOizRRWk+XcK8i7ducg8859O1ceFJXI6jHNdz4Wk2+GdURthJlHzFNxPCcA9qcgOo8QDcIW/wBs/wBKwdoJmz3I/lW/rmfLh7fvCOfwrB2/PKM5JcAYpLYa3SIvLEbMO5z/ACrbtR/xSUv/AFwk/wDQax5FIlAfrg/yrZs+fCU3/XGQf+O0ka14KM9DySb/AF7/AO8aapwc+lOm/wBfJ/vGmqcGrRidboP9o3Oh6nHBPGIY4WeVWHLLgkgV2+oAHRUx7VxnhhfL8O6zNKkYjktniEkiZYZUj5a7PUyV0KMggnAqXuB9Ldq5bxSp+0QMRxg8/lXVDpXM+Khn7P8A8C/pUSBHOjripp4v+JFqBiU/NDJx3+6aiUfOKJZ2j0+8jP3DBJg/8BNZrco8IE7PK0SplRjnFW9NUnxFAARjaf5Gq4a7jmdBGvl84P8Ak1Y0olfEFv67T/I1v0JZn/EYH7TYn/ZP9K4fBJ4ru/iR/rrD6N/SuFU7ee9UgJrIR/bLcy8Q+au8+2RmvU9LvLa48QbYblJ4ktdqmJtxA44PpivPvC+mw6r4ggs592xw3A9cV6nZ+HINAZmt4ZYWc7Cz4+b8hU3GjF1GMrfXeeoYcenyis+ZLiWFBE4XCA1pasCbu7APzEg/oKpWcoaJnb/nmUA/CmSISxjjBHAddx9eDWh41tp7zSorS1j8yaSfKRg88Lk/oDVE/wCqX/rov8jV/wAbXMtlpMFzbsY5kn4cY6FcY/Wiw7nnw8P6q8pj+yN5iYG3I4J6fyqJtMu0tprsQM8ET+VI5IG1xyRUqa7qSSyOLpg0py2QPm/zmo7a/u5LiKNpd0ZlDlCOM56/rRYDqtG1ddTvtPtlsxA1v/y1DZyMelb+t7TfWwH3wr5PryK66WzIsmuFmUqoVjGVOBk449a5PXeb63dSSSjAn/vnp7f/AFqQXMheY/8Agf8ASmyDCzA9fLP8qZAWZ3X+6c05yWEhP/PNv5VLdmdaivY3NuP/AJE5v+uD/wDoRryAV69F/wAiY3/XF/8A0I15D2qonISqR5ftxmum0rVpE0uLS2sd2+UOsyyFcfUDrXMIOMjBwM4Ir3rw9bRXWgQbLnycnbjYcHqeuKcgRj65/qoi3I809PwrAR1E8yjjLBh9K6HWMGGIdFD5A9OnNcqzFdTc9iCP1FJLQcU3JWJBN50oBPzKDj3rbs/+RSnH/TKT+VZKhRt+XnBGa1rP/kVZ/wDrlJ/KhGtdPmuzyWb/AF8n+8f50iYLDOce1LP/AMfMn+8aI+WFUjE67R9F8QzaQ62ctutpdKQyS5JxyOPlOOvau11RNmkCM9VxV/4fWsVx4aVJoFkAZeNwDZOcbc9Pqar66oFpKFJIBwCfrUgfRhcgcLx6niuW8RXlvcTRwxTJJJFnzApB25x/ga6rJYkHgdvevOtcSS01+8mk4ik24OB05/xqJDQIG3ZPb+VMvAv2C57nyXH/AI6aUOSo9+KhuCRYXSHr5T/yNZrcZ4u6Si+f5iy5PAPSpbHnxBa8beD/ACNRm3k/tF2WUAEng1NZDOv2gPof5Gt+hLKHxJGG089/n/8AZa4P+Cu++JOP+Jf9X/8AZa4Eg7RVIDpPA7lPFVkV6kn+Ve36yrfYoXLTSDd0YlgD7Mf5V4b4JwfFVkCcDJBr2/WVVYIRFIsik9yQeO2OlQx9DhNSOL673LjkH9BWVCAsDM7ADccdq2NUXN9dk98Z9uBWLHHG1u3mybVDHj1qkSi2wyqhPmXevI+lT+Psnw8pPBEoNQg/u18n7pI/lU3j9h/wj688mQUAeX5PWrNgxF7D3+cdfrVYKcE4qxYg/bIT/tgUDPo2VlfRs5yNqAkphRz2PY+tcRrQJvICAQoVwCOnJHSu3uIWk0RCUTegUllY9Mjt0ri9d8w3dqE4O18+/IqWBz6yrAblhlmAGBjHpSRuZbeR2QodjDH4U5WdPtJChmwOv1FPV5JLZ2lUKxjbAHpiqsWpu3KbMAz4NbP/ADxf/wBCNeQkcV7Bb/8AInMO/kv/AOhGvH+oP0pRIHq5VceoxX0F4QdR4Vto2DMWYn5U3YGD27189qRj8Oa+hPByfafCkFuAjMSQNxIwOTkkc0SGjn9XVhbRE4Kk5DDuOOK5pxtvjuGWwTtrp9W4tUHJw2c/XHFcy+F1DJUk4+UflTWwrtbC280sufMj2gdOK27EZ8MXAPTy5f5Viwm4ZibgAf3cVuWGP+EZuP8Acm/lSDmlL4jyKf8A4+Jf98/zpqgk8Ak+1STqTcSkdnP86RMK2SB360wPdvh2P+KVjk2qVHMjmESFQCeM9v8A61UdaOdNmYAD5uMDA61P8O722g8MxC535ZhtI+6FBO7P6VFrgzplwV5G7cPpmkB9GN94GvNviJrcWk39rLMgMLEI4I7HHP4V6VjIz3Fed/EXwdqPiv7L9iktUWLeJTO5TOcYwQD6GpeozKgmREDI6Pbk7onBzjjp/Op5f+Pa4TOcQk59eDWUvh298GabDFq95DLDM/lxbD8qZyepA9D+dWWd4xcBm3J5YRePrUWsx9DyyS23XzzF8DeRj8aS02DXLM5I+U/yNWZY1+1S/KQwlbIz7mobYZ1myGOx/rWvQhblL4kD/jw/3n/9lriYrW4uP9TDLIAOdiE4/Ku7+I0TOtgMDdukyM/7tWfhzaMIbhJUXDybSzKDxgGi4zmvCNlfQeJLW4e0nRFYnc0ZAFevXupz38CxSopVX+8vt0rVk0TSbZ3R7tR82FI4wPzqK503SLK1ZluUldlYoElJ+bt3pMaOC1JCLu4VRxgf0rMtolmgZT2Y1sagCLy4VuwH4dKy7PhXx/eNUSxzpsZETpkVJ49B/wCEdXjpKKVgRJkDbjnmr/inS7rVdNNtaAGTzAfm6Y4pDPMtJ0m71qZobYD5eTmujtPAOpLcxM80S7WBIBH+Na3hTw1qOj380t2sYSRNoVCT/QV6cmsaVAyPHbFm24cGIH/PNIDCHmESRjcBIc4XkGsXW8Lc2hVTkK4JP1H+cV28fiGyhjkT7GBI24glAMNiuK135ru2eQ537yQOOpBNAGFEubiVfWnzLthI9I2/lTIWYXUpAzxxU1wuYzlwG2Nn8qpko0rb/kU27fuX/wDQjXlWnWf2++htt2wyvt3bc161pcSXHhxYXbAkRlyO3zGsTTPA8dhfW92btz5b7sEDFSUVV+GMzq7fb5MBsKEtGbJ/A13Fppk1nZQW0dtOTEMbyhBxnr0461sQ66YbJbVIAzIzEOGxncc1KPEd0AWNskkm3aAD15+lAHK65HNFD5c0ciyI+RuHzYyOK5eQf8TFTxzzxXX+I55rjzLiRW3ySZIY9OR0rk5FA1JTgkY9MY6U0Jk7jpWpYD/imbj/AHJv5VnSRlQCXGMZwOtaujhW0ho5Cuzc6uGOMqaGCPKEgWe/2OAFaUr79TXsFv8ADvT5oGngsVaNZNhcuuO3t71mp4c8PQzeetugbOQTOx5/E10MeuNFbPBHfwpC7bmXcOvH+ApDNCHwndQrDa28UUaKhaIBxt7f41jeJLOS0tLmGY73RRnn6VP/AMJGYjxqacLtGGHA9qytU1W2u7WbfdrJIw5O7k80AfS3NRyRg85wfWpaaxUfeoA81+LtheXuh2i2lrJKyzDcE5KjDc/y/OuW8NzaqlpLbanZTKYYQiSsn31UH07j+te5MF25OSPfmopLeORGBjVlddpz6d6TVx3Pl+U+ZczMvK+axyeOpNU4ZUi1S2lkJCIDuOCcda+hG+HXh1riSdrQMXbccAYFW4vA/h2IYGlWzY4y0an+lMR4l/bVogIR3IyMBUP9RSNrFu7BhFcMRxwh/wAK93TwloMf3dKtD/2xX/CrCaBo0fTSrJf+2K/4UAeAf2q2CE0+6fJzu8s0q3d48bBNKvGPJwyda+hF0qxX7llbKPaEVKLO2j5W3jX/AHUFAHzi2l6reTzyjTLiMPgAFPYVVPh/V9PlMVzp86SFtwAXdx+Ga+mwq9Aox6EYoMSMwZ0Ut6kZp3A+am0HWJzuhsJ3bHQrt/nitmTTfEjyErokh54JZcf+hV7/ALEPRR+FAXaMAGkB4END8XyHcukIvtuH/wAVUq+FPGckYC2cIzzjI/8Aiq94wc55x9aXPoCPwoA8LPgfxvKB+4iUZPRl/wDiqYfhj4qnnjnnCF06AsuP517wB70YoA8Lk+E3iFGWaKWAsR8yccfrSt8K/EMr/P5QU5BwR0P417nijFO4rHjFv8LfEMFskEWoQxxrngrngnPrVkfCvWpQPN1gqf8AYVcfqDXr2KMUhnk3/Cpr9x+81lz2zhf8KUfB6Rhh9WlOfp/hXrGKMUAeWD4NWioM6jcs2cn5h/8AE1cuPhBo01kF+0XZnA+/vXJ/8dr0cigCgDzOL4QWRVVn1K8ZAPuhk/8AianT4OeHtrbp77k5xvT/AOJr0XFGKAOFT4UeGgBuSdsf3mX/AAqzH8NPDcRAFnuHviuxxRigDmovAnh+Hpp0Z+tXE8K6MigJp8Kj6GtmloAKMZoooArk/vsdqVifPIzxgUUUAOj/ANWfqf508dT9aKKAFNAoooAWmUUUARsf3g+lTDoKKKAFoFFFADT94Up6UUUAC9KWiigAooooAKKKKACiiigAooooAKKKKACiiigBKWiigD//2f/hDHdodHRwOi8vbnMuYWRvYmUuY29tL3hhcC8xLjAvADw/eHBhY2tldCBiZWdpbj0i77u/IiBpZD0iVzVNME1wQ2VoaUh6cmVTek5UY3prYzlkIj8+IDx4OnhtcG1ldGEgeG1sbnM6eD0iYWRvYmU6bnM6bWV0YS8iIHg6eG1wdGs9IlhNUCBDb3JlIDQuNC4wLUV4aXYyIj4gPHJkZjpSREYgeG1sbnM6cmRmPSJodHRwOi8vd3d3LnczLm9yZy8xOTk5LzAyLzIyLXJkZi1zeW50YXgtbnMjIj4gPHJkZjpEZXNjcmlwdGlvbiByZGY6YWJvdXQ9IiIgeG1sbnM6eG1wTU09Imh0dHA6Ly9ucy5hZG9iZS5jb20veGFwLzEuMC9tbS8iIHhtbG5zOnN0RXZ0PSJodHRwOi8vbnMuYWRvYmUuY29tL3hhcC8xLjAvc1R5cGUvUmVzb3VyY2VFdmVudCMiIHhtbG5zOmRjPSJodHRwOi8vcHVybC5vcmcvZGMvZWxlbWVudHMvMS4xLyIgeG1sbnM6R0lNUD0iaHR0cDovL3d3dy5naW1wLm9yZy94bXAvIiB4bWxuczp4bXA9Imh0dHA6Ly9ucy5hZG9iZS5jb20veGFwLzEuMC8iIHhtcE1NOkRvY3VtZW50SUQ9ImdpbXA6ZG9jaWQ6Z2ltcDo0YTUzZDgyNS1iZmFlLTQwNDgtYjZjOS0xMTgzODgyM2M1NGUiIHhtcE1NOkluc3RhbmNlSUQ9InhtcC5paWQ6Njk3Y2E1NjEtZjVlMy00OGQxLWJhMzMtOTIyMzMzMjIyNjgyIiB4bXBNTTpPcmlnaW5hbERvY3VtZW50SUQ9InhtcC5kaWQ6NDMyZDVlYWUtN2NkYS00MTNmLWE2ZGYtMzJjMGQ5ZmFiYTg2IiBkYzpGb3JtYXQ9ImltYWdlL2pwZWciIEdJTVA6QVBJPSIyLjAiIEdJTVA6UGxhdGZvcm09IkxpbnV4IiBHSU1QOlRpbWVTdGFtcD0iMTY1MzU3NDYxMjk0Nzg1MSIgR0lNUDpWZXJzaW9uPSIyLjEwLjMwIiB4bXA6Q3JlYXRvclRvb2w9IkdJTVAgMi4xMCI+IDx4bXBNTTpIaXN0b3J5PiA8cmRmOlNlcT4gPHJkZjpsaSBzdEV2dDphY3Rpb249InNhdmVkIiBzdEV2dDpjaGFuZ2VkPSIvIiBzdEV2dDppbnN0YW5jZUlEPSJ4bXAuaWlkOjI0MjA1YTNjLWU3NWMtNDZkZC05ODg5LWQwMGU0M2Q3NDMyMSIgc3RFdnQ6c29mdHdhcmVBZ2VudD0iR2ltcCAyLjEwIChMaW51eCkiIHN0RXZ0OndoZW49IjIwMjItMDUtMjZUMTE6MTY6NTItMDM6MDAiLz4gPC9yZGY6U2VxPiA8L3htcE1NOkhpc3Rvcnk+IDwvcmRmOkRlc2NyaXB0aW9uPiA8L3JkZjpSREY+IDwveDp4bXBtZXRhPiAgICAgICAgICAgICAgICAgICAgICAgICAgICAgICAgICAgICAgICAgICAgICAgICAgICAgICAgICAgICAgICAgICAgICAgICAgICAgICAgICAgICAgICAgICAgICAgICAgICAgICAgICAgICAgICAgICAgICAgICAgICAgICAgICAgICAgICAgICAgICAgICAgICAgICAgICAgICAgICAgICAgICAgICAgICAgICAgICAgICAgICAgICAgICAgICAgICAgICAgICAgICAgICAgICAgICAgICAgICAgICAgICAgICAgICAgICAgICAgICAgICAgICAgICAgICAgICAgICAgICAgICAgICAgICAgICAgICAgICAgICAgICAgICAgICAgICAgICAgICAgICAgICAgICAgICAgICAgICAgICAgICAgICAgICAgICAgICAgICAgICAgICAgICAgICAgICAgICAgICAgICAgICAgICAgICAgICAgICAgICAgICAgICAgICAgICAgICAgICAgICAgICAgICAgICAgICAgICAgICAgICAgICAgICAgICAgICAgICAgICAgICAgICAgICAgICAgICAgICAgICAgICAgICAgICAgICAgICAgICAgICAgICAgICAgICAgICAgICAgICAgICAgICAgICAgICAgICAgICAgICAgICAgICAgICAgICAgICAgICAgICAgICAgICAgICAgICAgICAgICAgICAgICAgICAgICAgICAgICAgICAgICAgICAgICAgICAgICAgICAgICAgICAgICAgICAgICAgICAgICAgICAgICAgICAgICAgICAgICAgICAgICAgICAgICAgICAgICAgICAgICAgICAgICAgICAgICAgICAgICAgICAgICAgICAgICAgICAgICAgICAgICAgICAgICAgICAgICAgICAgICAgICAgICAgICAgICAgICAgICAgICAgICAgICAgICAgICAgICAgICAgICAgICAgICAgICAgICAgICAgICAgICAgICAgICAgICAgICAgICAgICAgICAgICAgICAgICAgICAgICAgICAgICAgICAgICAgICAgICAgICAgICAgICAgICAgICAgICAgICAgICAgICAgICAgICAgICAgICAgICAgICAgICAgICAgICAgICAgICAgICAgICAgICAgICAgICAgICAgICAgICAgICAgICAgICAgICAgICAgICAgICAgICAgICAgICAgICAgICAgICAgICAgICAgICAgICAgICAgICAgICAgICAgICAgICAgICAgICAgICAgICAgICAgICAgICAgICAgICAgICAgICAgICAgICAgICAgICAgICAgICAgICAgICAgICAgICAgICAgICAgICAgICAgICAgICAgICAgICAgICAgICAgICAgICAgICAgICAgICAgICAgICAgICAgICAgICAgICAgICAgICAgICAgICAgICAgICAgICAgICAgICAgICAgICAgICAgICAgICAgICAgICAgICAgICAgICAgICAgICAgICAgICAgICAgICAgICAgICAgICAgICAgICAgICAgICAgICAgICAgICAgICAgICAgICAgICAgICAgICAgICAgICAgICAgICAgICAgICAgICAgICAgICAgICAgICAgICAgICAgICAgICAgICAgICAgICAgICAgICAgICAgICAgICAgICAgICAgICAgICAgICAgICAgICAgICAgICAgICAgICAgICAgICAgICAgICAgICAgICAgICAgICAgICAgICAgICAgICAgICAgICAgICAgICAgICAgICAgICAgICAgICAgICAgICAgICAgICAgICAgICAgICAgICAgICAgICAgICAgICAgICAgICAgICAgICAgICAgICAgICAgICAgICAgICAgICAgICAgICAgICAgICAgICAgICAgICAgICAgICAgICAgICAgICAgICAgICAgICAgICAgICAgICAgICAgICAgICAgICAgICAgICAgICAgICAgICAgICAgICAgICAgICAgICAgICAgICAgICAgICAgICAgICAgICAgICAgICAgICAgICAgICAgICAgICAgICAgICAgICAgICAgICAgICAgICAgICAgICAgICAgICAgICAgICAgICAgICAgICAgICAgICAgICAgICAgICAgICAgICAgICAgICAgICAgICAgICAgICAgICAgICAgICAgICAgICAgICAgICAgICAgICAgICAgICAgICAgICAgICAgICAgICAgICAgICAgICAgICAgICAgICAgICAgICAgICAgICAgICAgICAgICAgICAgICAgICAgICAgICAgICAgICAgICAgICAgICAgICAgICAgICAgICAgICAgICAgICAgICAgICAgICAgICAgICAgICAgICAgICAgICAgICAgICAgICAgICAgICAgICAgICAgICAgICAgICAgICAgICAgICAgICAgICAgICAgICAgICAgICAgICAgICAgICAgICAgICAgICAgICAgICAgICAgICAgICAgICAgICAgICAgICAgICAgICAgICAgICAgICAgICAgICAgICAgICAgICAgICAgICAgICAgICAgICAgICAgICAgICAgICAgICAgICAgICAgICAgICAgICAgICAgIDw/eHBhY2tldCBlbmQ9InciPz7/4gKwSUNDX1BST0ZJTEUAAQEAAAKgbGNtcwQwAABtbnRyUkdCIFhZWiAH5gAFABoADgAOABZhY3NwQVBQTAAAAAAAAAAAAAAAAAAAAAAAAAAAAAAAAAAA9tYAAQAAAADTLWxjbXMAAAAAAAAAAAAAAAAAAAAAAAAAAAAAAAAAAAAAAAAAAAAAAAAAAAAAAAAAAAAAAA1kZXNjAAABIAAAAEBjcHJ0AAABYAAAADZ3dHB0AAABmAAAABRjaGFkAAABrAAAACxyWFlaAAAB2AAAABRiWFlaAAAB7AAAABRnWFlaAAACAAAAABRyVFJDAAACFAAAACBnVFJDAAACFAAAACBiVFJDAAACFAAAACBjaHJtAAACNAAAACRkbW5kAAACWAAAACRkbWRkAAACfAAAACRtbHVjAAAAAAAAAAEAAAAMZW5VUwAAACQAAAAcAEcASQBNAFAAIABiAHUAaQBsAHQALQBpAG4AIABzAFIARwBCbWx1YwAAAAAAAAABAAAADGVuVVMAAAAaAAAAHABQAHUAYgBsAGkAYwAgAEQAbwBtAGEAaQBuAABYWVogAAAAAAAA9tYAAQAAAADTLXNmMzIAAAAAAAEMQgAABd7///MlAAAHkwAA/ZD///uh///9ogAAA9wAAMBuWFlaIAAAAAAAAG+gAAA49QAAA5BYWVogAAAAAAAAJJ8AAA+EAAC2xFhZWiAAAAAAAABilwAAt4cAABjZcGFyYQAAAAAAAwAAAAJmZgAA8qcAAA1ZAAAT0AAACltjaHJtAAAAAAADAAAAAKPXAABUfAAATM0AAJmaAAAmZwAAD1xtbHVjAAAAAAAAAAEAAAAMZW5VUwAAAAgAAAAcAEcASQBNAFBtbHVjAAAAAAAAAAEAAAAMZW5VUwAAAAgAAAAcAHMAUgBHAEL/2wBDAAMCAgMCAgMDAwMEAwMEBQgFBQQEBQoHBwYIDAoMDAsKCwsNDhIQDQ4RDgsLEBYQERMUFRUVDA8XGBYUGBIUFRT/2wBDAQMEBAUEBQkFBQkUDQsNFBQUFBQUFBQUFBQUFBQUFBQUFBQUFBQUFBQUFBQUFBQUFBQUFBQUFBQUFBQUFBQUFBT/wgARCACYAKwDAREAAhEBAxEB/8QAHAAAAgIDAQEAAAAAAAAAAAAABgcEBQACCAMB/8QAGQEBAQEBAQEAAAAAAAAAAAAAAAIBAwQF/9oADAMBAAIQAxAAAAHqkw1nMNtYZjDWmH0wxvxmGGx8MbjMMApoOfNiMfKzxNsfM2LTDSM8DS98mY3UiwxmG5F3Yo3J6JniHuuV1vc1PIinoamJ0MNTVWhvrLjTnuG916HUvLVNxAXWqa0tGxeLAy+IpuwiA1hQDzL0k7YlUF0aIhZeQjqLzldwsLrRDut+nMTvCrltd57ldEXvAvOn5SeVd+wMMpBj4H/Nd76pCESFE211V55VnC1t10f7hveYveNXnuvnuRau7wuJ1ug9QnFywf06oC/S73JXeSS7pIrq7zyquFgvWQr0BjZpBr5VKWGVHQADMKvovotN3z8cO6aHS2rFzgo0QnWvnK7hYf1lc+gM7NEOmqDy351QoFhllX0XkWmq5+A75Uee2bXkWLDnVqdc8i281hXSVv6AzuD46M0VuLfnVOVQblDVEEWmOnHy074uj5+qfXlWl8yZRVrrbkXHmsM6Sr/QGqwVw980SuLTnS5Iw3Qdqb+LTHWShh/Churblq4uSRpRrsPiV/CxlKg7ofTBO8bEaO3zn8+goVQ1Aa6TdxaV3CIZUKG03CdrGJmleb23zxM8LELlRdw7uBlnxAZvna8+gcVQzCl6TexaT3CIZsBy1jhO2P5Feb3BzxP8LDbJ/wBEDm4Fj42h5FlFBJUjeWN3F3hJBEMqKpXeXXmTljqRxjtjmUfCw+ya9EDu4ED82h5FjFLkgDcXWZ3tHFJXyvWs6NqHukV4E5Y2kb47hgovNYb0JvvA9QVH5GitxP3QQ981qwCs+lbT40n34MmaOMkLfRsd8CavOguatOyJLXzWHdCf7wP0FDqGNVNxa7qrLbNdcFtdEMakenNozRjgFc7bbTFOhIVB2tO898XlpR+iKDagjzjV7cWU0tw+waAJcWkWqx0noBlxLi6Icovjt3NTQvOYA7RPyjshtA7iwmvgV4rSkuJ8XZl6RCvuLaLtiUeZ0ORAbKEmE4mkk9SUe57GGGGGGGGGH0//xAAvEAAABQICCQQDAAMAAAAAAAABAgMEBQAGERITFBUiJCUzNDUHFjI2ECMmF0BC/9oACAEBAAEFAv8AWuSf2AgHqKJqH1BUyj6huq/yC7NXv9/XvuSyjfMpQ3vL5hvOZNQ3hNGL7umsw3ZOGr3LOmoLimqGamjVt6co09PUE1OZdty5qNMy5aG45Mo+oRMzPV8pnMo4ZGLcjoqu3ZSjTEoahmZApkZl1pRnnZVdsSlbUlDUEi9KZvIrGoZh7pdpyVa/JUEi7pF8sZDakkrWtSpq0kvSb56Wr/XKkwEtTpMpojzctczpk+Zzsk8SfLKOoRPqxAc7kbmepPms4/dIPnIuoluWrdHK6PeTnMjNSCqE8bMqh0kHwsLf92SBqZybgzyQDmF+Y6nlqVK31qL8y6euCyLqaeILpulHVtRLpu1eRWG215A6T9eXelU0p3EFHuEmtQPdLyrpul7gf1OjmM2dAkwSVFvb7qadpGhpV6vJyQcwvYmZgBauooGSjQ5tcYiWbqOD+VikWrh/FBzmSBQ9DSH1pEBqC7py9BdCpqkyCVIUtYt10z1ctslIapEA1+8g5YBavIoFaxwc0uXzaKWlVbNjtYLMCVRPllm51XT1A7Vdv9aEMxYLujfKpYMxRLmpRI69uuIxw1LbR8tSYcfdvicu7ewDqbEo7UufzbTHWnQcKfGooB2pIi3K6dE0rpsUS26b4wXeKfKpTpCcNEsmJraMisUltYarL+Qu8csKBavkoagxHmN0ebRECqmIBWCwbsSHMZFQSrp4uJ3Dkg41BBxinywqS6ACGgWOdK3V5Bw6Lb+OWUDjrtw2IBavcMscz7+6fNl+SxcrVb4xPfzQ82ad0YMsOf4wneKdS2yZpZ7vNTY0dQULfcSirpO2yjo5TvZ1gElGFCrraHes0CaKRnY07yVdRwszaQirMw5ai+/lEmRnzBJIz5xvMBHdhQ4xXqQJhJIuw4PHddfWqtwQKhJ96v0ChV6CcsSgA65dvmsaKU5Wa1RfeSbAVZFFuKDpHIaEMFQ3eK9S3wzSz0uVrhuuQ/mqttNNWpYvGK9IAq9yckbl/fd3mf8ApFUF2p8ajQHXJWOcLyKLZZuqv2CmGWH7xbrwObaa28wEgZXIfzlQAHMnKBxanTwq9S8hQH993+WpPHQKlCo4A1qbUPtZqfiSK6eJqH7xbrwqybWRMHLhENE5+uVBGEpZgMzwfjhvXgYTQiQjp7w8sySBw82MlCts+V1Hd1KyjhCRt055KalmpGrUojmh+8X69kNEnTyXTBKkS5knP1+rJRKrCSocVJrnbMCnA1XabNDJhvXl5aP76cAdEcB08eHFTvmbP+wT/wAVcKiQ49x1/TzycyG8XCnAfz9WOUDQUz3broRcuR7VyjmiQDKa8Q5szgJArp851pIxMy7AmV1ItjurghbSdsHkymsVqUuZWK79lHbUlISz3UKvNJKpGbh+pwH8/aVvIzhmFuJM0JoOLMXMW4YOPt2HePEn8IbqS8ClKum8sk1QfzaTpqbrt1CJOtWjNc2+fK/frP0tQcFVYs3STpCJVSV0EyYy8BMvaCzJduZnaU43L7TnDUFlS5qW9OX7g1LJJrpyFtR79sHp/EUWxYUtFs+GLRbdjEqNDsVUiRLJKtTRLQJELWFYVhWFYfjCsKw/P//EACQRAAIBBAMAAgIDAAAAAAAAAAABEQIQEiADITAEQBMiMTJQ/9oACAEDAQE/AbQRrBF4III8cjLXIyvkZGRl44mJBBBBiYmJiQQQQRbEx1kkkm8kkk3km8k/Vf1n5Mp8f4MqvNlPi+jirpjsezFd2Q94RRA9mLRiHu0ymR+iHuxXXkh7sV14sQ78dPQundfqmcXH+Thb9UO/DTKOTp3fcnxqseB+dQtfiVY0nL3VZH9ji4qYH5VC1VeJV3ZWyqW9Qrv6VQv8n//EACMRAAIBAwQCAwEAAAAAAAAAAAABAhARIAMSMDEhQCIzUGH/2gAIAQIBAT8Brati3pWwtzsYvUYxC9NjpGu2z8mtpa0/rIYakd8vA/jGqNTSbeLGQOq7W35Nd68PrIf3CMbD+Vei+LGQ5kPFjIcyHiyRDmRJCwZIhzRGsWMT2ie7jQ8XRjFHcKO3jQ8XRjIcUuyXREYh1dGMhxS7JdESQh1dGSIDEPOQhEiJLFkiAxDzXkkIkRHixoh6tiP5X//EAEUQAAEDAgMCCAsHAAoDAAAAAAEAAgMRIQQSMRMiEEFRcXJzgbEFIzIzNFJhkbLBwhRCgpKTodEVQ2Jjg6LS4fDxMDVA/9oACAEBAAY/Av8A5sO/Y7XaybOldLV+Stgh+r/sqtwDD7dtbuVsDH+of4W7go/eV6ND7LH+V6Phh2O/lWw+G7GuPzXmYW+zZO/leQxvNCVoxvtEKy5x+irS+6ELzz/02hXmkNeQNVsbM3ptaF6XJ/luvS5OwtXpsh/E1XxU/OyRoX/sJv1FQ+E3jnlosEeSf6HJpHF71EAWPa9tavsVkZDt3kmlLkr0Kb8q9Em7W1ommXCmJpoKvaQE8Z2ZRyg1TYmMErvZmJIXo8n5XLzM3uevGwmJp4y1wqU4GUObXQtqnMiBloBoCSvR5PyuVdjJ+VycJWGC1Ru0JV5i6mlRUjtTtkHvbUiojqF5mT9FWhk/SRbI+WNw+7pRYJhBrJiRQ8m648EFN3xd1hOZ/cpYIRGGRkDfFSU94lwcTWkDxlqkoPly7UStDtmbVDk9M6t6nhiLWsjcWgZa6IvONw0FDQB4FSsNK8guLrlmhO8E/nWJ6tiOSOFo4qgk96ExGEyEZshcQSOPjUB5Yndib2qWdgzFsr6V5S5axiuhyJkUuLw84LspjjFDVYjnHwhYIDQ4gV7GuPBhvtBe2LZuuzWvEsN+LuU4Z4QhwzY5AAwsFQO0J0TcS2Vo0e2Jt/2W1lOd+1F6U+8ny4iEYmL1CaBNIGVpa+g1oFPXwrNARK9mzDCcouE4M8ITPZxEOIqsFLK8veXXcTWvlKfawsnzNLBn+6fWWJ6pqjMeOhlMg3mMibVn7Lzo/Sb/AAsMf7p3yUsGyY50hB2hFS1PeJTBSZ3jAKlu+iyLwlNKwaPAyLDMlxc72F9CDKaFT84+ELDHjE4+F3BhqsL93QLCc7rcllib8Y+EcH+L9QUrMZKYoMtagVNUz1cr1i2Z8Hss0lA8jaN3yac/HwYLpf6k6w141ieqatl9nhY8HzjBlJ4MN1Tvkmg0bbtopWF7YqzHfeaAb689C/Tzb61/580Xlgc9k0dCRoCp+z4QojyTN+fBgjXZOGZmcanRYTpHuWJ/D8ITGVDcxAqdAp4JKZ45RWl6eSfmnkjNciii6t6nLfBu3rK5202lC4B/t5qJzHs2R1y10BusJ0v9SZbNqsT1TUefgwnVH6VHb+rF+xTxMGZ7piANPvomaPJlAJr7U8NEnnY8xB3aVtVS/h+EJvXMp7+DBZGB53rHj0WEr5WY9yxP4fhUVPWavCPXDXmapMhDXV1Oii9rXqd7/tO02zq5LMO//CyRMldUgND7uWGBFCJKEG1LuTb5dVieqanc/BhOqP0pvrFo9vEpwwEuMpoB00c7HNaNajRSml9tDU/iUnM3uCceSaKl6U328GCrXLU6cywXS+Sn5m/CEwkVAIJ5ljwIzE0SijHihG6xPGTPcW5VFbLuutyLEj+kdgKyDY5a2zut8+1QkYgYl7i3xj2a25P2UdaV2ztBQeU5NpTtU/VBO5+DCdUfpTfWpZYksOV4lJBHFvBUlmc8UpvmtlTOABPHQUFXGvv5FJ2dylr68Z/zt4MIQ/K7aEVPFZYS+be15bKXmb3Ic/EsfYAlzSRybrU8kltxcaqL73i3dtli+tco6xmXebuesqbPYAYg+L9UZym7hfelAp+qHenc6ivSjXnTXdWC6r5NUW5m3RU8llO9mrZSRUceYIsfs7jKcjACRWqnNsu1grb+2n9ilhLyy7X1H9k1+XBgoImZ3vmIA0+6sMwjLlloRyFSlksbAGiu1fTiUZfLHK11/EurQLH5AWgFtntofJb/AN9qfbNcWF6qI0y7rrcYspzLNIyXavzgMqByfJYYMe93jr1FN23+6f15pan316typeqHepOcpmQFzy12WhpQ0WA6r5NTLjLlWL6w/EODE1GssABpfy0/s7k/olNWGLH5Hiaz9KbpWGNc3jBflT+izu4MXnOZxa0ghtBSifU5G2vxqK+bddc6mynl20EeeV9nvoRT/n7qAiVgdtsoMZqRSl/3QLCXM2xIL9TvLQuuVJ1Q71JzlRMzvbUOG4aE2WEFNI6a14gm24teRYvrD8Q4Jy5jc7XRlryNN79keYJ/NwYa2fx+nLuuWGtk8aLcid0G8GLpV1I2i7cpNtU+lM1tdFFXysrtNNAsS9kL3skldlIGtNe4+5RPewtG1DL+sFP7Jz7fvq5y3Omqf1Q70/pFQbKLay3yjNS9FgD/AHQ+EJp5AFi+ke8cEtCBG18RcMla74GvFxLsCdzcEVTTx2o5MrlhqEubtRRf4TeDFsPlMhjB9pyJ9QXaWCioMu663JZYtoe7KJXUFdFFtZDGzOHEm9FK8EODpiQRxjOu0p3VD4k/pFRyyvDGsBNSKgmiwHVDXoBD1iBRY3pH5cDmCGR7pJY/GBtWgB1TzI83B2prLWmaRXTRywxNPON00TeqaoIjXK57WmnJVTsi0ka4k5s1VfybFRczu5TxMkpHHK/KKA0r/wBrDwT0lifI95YW1GYjVOiYA1oLCKNoOJP9hTuq+pP6RU7JYxJ4uoq0Op701g0YXAWorjNSqxvSPy4JyQXZHEgitl2KeaK72NJFRVVWmbxgt71hrFvjG2KZ1Q7ysP1re9UILXbJ3arDM7LZRV8qh000WL6ZWE5zxV4lLXiLdOPRPq8sbmGgundV9Sk6RU98vijfkVxldmdUaKOpOapoBosfzn6eDEi2YOdSvN/z3odAKW2bdNlLTdfG4iRnLyOTr/1jbqC5dSRt0zqh3lQPOHIaHNcSSBZOsxtGuG5aqoeNqYB5IBU8LKAySkAlMxWfMIwTuNdxjlTjOHtcctM9tCE/nBTur+pSQZ9nUvNaV0UrwXveQG8Tcp96aJfLrU3qbhO5ysfzn6VK2WtQQG72UaEpsUE0LGXcau40PvbvzVFPjcHhWxYlpaA8uLrE+0p88Ry+MbmZxtdZRdY1NlfiNlRuSlK/P2prKQZhXfealOZWBjaGzDqbpvRTS85W0NzzL7Vd0+bPUFxumgPmygUFIeL3Jw2U8r7AEx0oKpxOHnyvuDsnUKdL9knc3KRuREmtVtYPA84ea1eIaKv2DGOdyk0TK+D5m31fICSnRHBF/GCxzSO9OAwTLurUzNFFeHDNHtlqrvwbPzFZnYzD10tGeAslYJGHVjxUFOgMDImkg1iFCCt+KSXpyL0IHncVbwfD2iq3cBB+QLIcHAWVrTZjVbmEhZzRhWhjH4QrMA7P/J//xAAoEAABAwIFBAMBAQEAAAAAAAABABEhMfAQQVFhcYGRobHB0eHxIDD/2gAIAQEAAT8h/wCTp0/+XwdOnXRHlA37wS+Xr1Jefj/QvvcS+bwhZP5eOqP1KYpOZIuRuSV3vP8AJR+M/wBfCsbdQjfh2Vv84V/CZgSjdu4BXO+MFfZsN4X1M7NUngJ4F0cdjKtfdJtu2PRVj6dJk4L/AIQtZfiw4ksN1/Q/Tr5m9TRdLprTBjhfAYxqC7QuDFqDy+A9mPa6Dd4PmW/iu2j4gelyC8hx7xHP81NWh3XB+pg4qGwldAUcHUD0v1/6Q+jvpDTJyLUARHVdAOhEeMCzxY8K2a1pm2AHeu66WYRhp477Fs+bjREH4yIOFuzVNnarPIS/QnZQik56DU3MLQ17UBCNiz9VZcYFLalA/RUz+Ww7mTd9iFdcEH5VhytqSxgudkO1ogPyTwqp79lRiKs7mogiuF7+J4Dzg2jku4iqst6I8QmIFXADO+ckZ0+OlDg8AuFaGdQDA2McqAAgBqLqO+hwC4zD+V3bmQWHQFlHO464KXYw3fZfW3bjJGoh9lCTnktZrhIAwNmGwplh3RCCHpnY8sipVnkplSAcngaArWnewYS2cOFXrMVYmK6J97+xzIgliNsLVo/yjA+zb+yszacDAE4UaQz+DtDGwFYrNBspiGJBncQQDyMNvullsRhR/NLonDGWOXZHBHzZwenRu64nvBJJVU8lxEcMDwHSEqhHIILGuVN1CKOrd04D5wOhvRAQHk+cJo9xAGbaOQs5Zz2XUdxh8EC2YOxP2vGBOHMmZmIAJZwABKjPhcjbTAAHBORCv90u8k/xXTXGrOUS6lhVF245Gqy96HMQKGZBWx0dpQvJd2OUl6MpHVWPRBPB7toVPgWtlsQfJWo0VxZODQPBE513N7jPgXd5chBByPsualGwIipWd/6yV6Zq2arznvCyaJZGCNNvKzt+joUWkymcSAZ3BHRH1nmlA7vrXKMIWttQyCyrWmB7rjT9Kz5qCQ6W/AM0I9jlZmfAAUBIbRsmgUFnS/FZ1ALU36lUPGZc+1V1vqxCkgQSzOYy0Oh3HqgQCARhvZma857wWzQlZhC5DrLFVEL9YYXAfOZ6o9/6SMLGgBi0g8jsXrUP+YbCs+DvdWbhV80q6OteWi8OQZBLO2jar9fjKyKKszNGPJ8lShroxXR9GRgREOBEOrzfPBnzvtfZPAG2rVWrWX85Iflam+VAgjlBMhNOGKCJejVl10PAz7weN9GXieiG28x0W9YdcLqGNUNTQQ7rsPqjBlA+/J05W8jJa3T3AxzAyMdMiHFXdl4gk1aiDqqf7cYv4dS4UZ1nsCWAvL5snK23xRhIGJfNwF8LGYHYa1X4RpucDNq1VCOjSMyCKOOtRhSNvYHxjw6005YPOeeXiehWbTCe594D5Y3xehO0+a8hy4gzGcK3lK/jrMreFBQLuGikasWbeW8UQDBojIwj3H2qyYE9ArsUwxtWq1aEEjDjKFZelK/VckY2EdHNHILEmrUS7VobMyXmvWMfizyaEFlkgnU3TyzdwxdzXZX8pwPVav8AY4MNhUTKmUagLT7ovw7uCvKv4mw5smqLlG9YdDkDk04JCzY2E0FU/wBvOEDdTpqymK856QS5/HXA+C05QC9flBAkag1iJVnzK/K6scrMKgGcZWptq1CWGcDdSf3WzBmeaaqzthhbtU5AQpwgAsCwJNWOFEsqAIV21wUKaBwAT0F56VTq24y/TvVd8D8rxqVuGmjgB9oZTqOIEVFKmELUtDeVdNK1/cOBeomquqbIYG4XbmYFdk1jkuYlQRnlGchXenDFm1Ww9lh8ibILxTiA1MqUyVlp3V61QLaHysOgIyEGsUkjxayNvUcbOFd7qrqLJ/TxoFodzlX0XgiWnuelFd5MrmIfrC18K8s1fyeVBzQL6dqHTCC5alW4pfiHlXclkwbSgpQL73DZ6YUAFsfkvW7AhzAIcMzNcIWyQVuWqUGDkCR+PdpIr5X6fScDKq30uAddFZJoIupV39F/C6LJO4mV170UgGEVd9l0sogvr9xqQe6CYNHC3xbFNjNYyzXAVSoy2cvrOIFDN0Q6sljoyroWs1AF3HbKFlNGX3YQOs8HMQRJBpDVyXsciAHjyGOavmpWkC6oJLuQ8MloN0JGjwuJPEAzM6mFe8L2Bw66ZbG5gGWpYropNVB2VbLrMH/a4JpQfZcgMoGnCpg8M5rUgqzhmq7BxAaXbyt8l1B4Mtws/AAMA7Id7m9MJkFQgDIfeFH7YdAUyyQ0ZSg3PdZ6dz45V+91XudexXzxva25uzI7NovHTPhDwt+pegt/oBH+h//aAAwDAQACAAMAAAAQk/8A/wC0lW0kFuBY2oQkEAM3IXbbZLtbaTeSUvoWxa/eZuQPQUNzbnKWvUdSELx93BUoEbnom5bQQSaSbha35IDS7YSV3JnbbLCsFCVmalLJ0GWxCZmUXJK3YKTCb2SHZKnKQLQfhanbYEaOJANzK1ZLyi6rAX7YoARDV6BaHpKqATbXcJbX0SnKCSCCSBK+AnaCQQSCCASASAAAAAAT/8QAHhEBAQADAQEAAwEAAAAAAAAAAQAQESAxITBAQVH/2gAIAQMBAT8Q4N27dvJu3yG7du3bt8u7du3n3b5/du3bt2/0TENifkD1y2rWdJOUjkiZ7IwfYwRyRM9kGDGCO5nJGdfzf5nJE9TOSM/X7eEvTwR1nnGH5xAmLkjnemMPC0YOSOWec9jyedwfYjlnnPY8nH3eeD7ETOXzhl/JFQhx6FpS1r5wRM5fJzmNxDL8IIGfeCJnB0MajPa5KrTe23wvBEzg7G+SXqMHT5PifyJ6Ms/jWeSMs/t//8QAHhEAAgMBAQEAAwAAAAAAAAAAAAEQETEgITBAQVH/2gAIAQIBAT8QioUVJRU0UUVzRU0oUUVCipooor5BfVC6aG4X02lvCLS184ND9FrRCGhV15LJU9HLlsedT7LkhKkuMGhLGghDuiiSyWr+hyj0z2qUEj3nBqD+L431wag5orljnfXMjlC5Y+DIKcyOULljEM0KYhd76EIXLHOhCFFZzVoQhcsc6EIUVnGcfvpDh+ToUVnGcZ24cY4aFFZzGYoUsYliVvOIQ4z0NC4YgSs51CnBfBljYhdOULnRjYyyxC5Y5Qvy/wD/xAAnEAABAwIGAgIDAQAAAAAAAAABABEgITEQQVFhcfAwgaHxQJGxwf/aAAgBAQABPxDBgmEWCYJmiZomaJgmCYJgmaYM0TNEzRAeSliACYrcqTdtElNlnCiRxOcqAglyMyqYVyAHGFiUUgmgDqZcIAhCWZkBwEEqz3FcQUMAkAtxwfjIxNMlvQYgJHVAAsioUZBUAcdAIqIQo2JoggthUCNXAw4jtYrY8KBtRCDldhlQhiAQDNQB9psRoX1AgFkMiZcaoRKwjC+YUQUkYwgGSZrc4gM/BwCgFUTIjAehx/NkR3rzygq0wNidSzfVmn4B00w+iAAqgGPxSUyMhHXiJ0yBDeLtqZSeEZC3kYAnmiQEwIaGu0voANqogTi6iA7nmw8UEVCUYRkMk3aDO3BaAQEGYYeFADpGwdhAGwb+aADNNEDY13kvwHhSGEARBVsfQPLIoAjFdIKyjSsFg34qZkYF4FOCUFxRnmEID7XaMgcV46mNbIMCOEMgA3xyWFiuxCw5CWjBAgP0PxCDgEgBA6jlNvwiYCqs1uAqoLRZxFNNnUbqAghblnuAAKAi6o0GJRY3Eh85O7LxAEkgAQKFBIGFA5+FygUHbERJF2FEAhPEpTjbriEACRqVWw4BSBt7ugoawKSUAZS7FL0A7g9A2Qd61nABE+Awdl8DFQCITjWGNiwABZhUwIGg3blCUI53UrLHnWakkAAP7YbEwQJEBtgj0ocAJBs71MoRi8vkAC8hIMXC2wHw4eAUACxkKASXQr9EPSCR4hXHLMBmoLkodAHDFJF32IB0WlHuK8MDgGPCYARtC01CM4SAPJWG4yQAKpZWKQAAHQbgKZlCtstNIFel2OmRC3KAWTMQWA6JBoAMmMDLwz1CvoJFxiEXI5TB0miMYCREAPwmEZtHJstAH8gLEYBG/wCSJC8FLJjmyFjgwhiQ1Qb1kuFnCABMPg5Bx5f7RkgEQAHBrExY1bxK2MyAaCoA1TOu1qnyyYlABdkqA7TK4pMwDomUToeEDFtIPxRFCYC8MsBmO3yEGs4XggVBiYoa40UkEXFHwDAFMSl8MefJaEYBvr/qr3EjYBipilsfvYWTO2LMBUEZqMfASMECR3BAEgaKChNmAJUNm87DEigZpkCsVOJqILQAFUd6lNpCzQaAqCHEGyn/AH3mQuJACxzUpKmNHB9C0bJQADCAEsq0x9VxyitQAI63dferGncZ4IEMGBjOcqahBABAkVkuWy28yjf8JzEwDKDEFgaZMBV3vUCT3BACmHRp6zFMJLFsWQfyyWyWy19oZtaHAg9fKJCCVBVgc4LDNKAIONAqYwNmUl8BKCcUhCyZEAjhQhMDgByddHAKBB5UUcdeGUcAGB+eVo9JOFKcnPdhT/RyIXMLkMHABoZEoHVICswG+Uu9CTrIAhdYd+jCDfagC5LkuS5Lkn1yXJcsf//Z" parent="1" vertex="1">
          <mxGeometry x="456.97" y="235" width="84.87" height="75" as="geometry" />
        </mxCell>
        <mxCell id="nHwe-JYxMAztrHhhpzCX-4" value="DCN02" style="text;html=1;align=center;verticalAlign=middle;whiteSpace=wrap;rounded=0;fillColor=none;" parent="1" vertex="1">
          <mxGeometry x="420" y="210" width="49.08" height="35" as="geometry" />
        </mxCell>
        <mxCell id="nHwe-JYxMAztrHhhpzCX-5" value="" style="endArrow=none;html=1;rounded=0;strokeWidth=2;startArrow=none;" parent="1" source="iKYcSD9UfC03l7dQsfJ--1" edge="1">
          <mxGeometry width="50" height="50" relative="1" as="geometry">
            <mxPoint x="190" y="190" as="sourcePoint" />
            <mxPoint x="610" y="190" as="targetPoint" />
          </mxGeometry>
        </mxCell>
        <mxCell id="nHwe-JYxMAztrHhhpzCX-6" value="" style="image;html=1;image=img/lib/clip_art/networking/Switch_128x128.png;fillColor=none;" parent="1" vertex="1">
          <mxGeometry x="590" y="145" width="100" height="90" as="geometry" />
        </mxCell>
        <mxCell id="nHwe-JYxMAztrHhhpzCX-7" value="" style="endArrow=none;html=1;rounded=0;strokeWidth=2;" parent="1" edge="1">
          <mxGeometry width="50" height="50" relative="1" as="geometry">
            <mxPoint x="320" y="241" as="sourcePoint" />
            <mxPoint x="320" y="190" as="targetPoint" />
          </mxGeometry>
        </mxCell>
        <mxCell id="nHwe-JYxMAztrHhhpzCX-8" value="" style="endArrow=none;html=1;rounded=0;strokeWidth=2;" parent="1" edge="1">
          <mxGeometry width="50" height="50" relative="1" as="geometry">
            <mxPoint x="497" y="241" as="sourcePoint" />
            <mxPoint x="497" y="190.0000000000001" as="targetPoint" />
          </mxGeometry>
        </mxCell>
        <mxCell id="nHwe-JYxMAztrHhhpzCX-9" value="" style="endArrow=none;html=1;rounded=0;strokeWidth=2;" parent="1" edge="1">
          <mxGeometry width="50" height="50" relative="1" as="geometry">
            <mxPoint x="270" y="130" as="sourcePoint" />
            <mxPoint x="270" y="190" as="targetPoint" />
          </mxGeometry>
        </mxCell>
        <mxCell id="nHwe-JYxMAztrHhhpzCX-10" value="" style="fontColor=#0066CC;verticalAlign=top;verticalLabelPosition=bottom;labelPosition=center;align=center;html=1;outlineConnect=0;fillColor=#CCCCCC;strokeColor=#6881B3;gradientColor=none;gradientDirection=north;strokeWidth=2;shape=mxgraph.networks.virtual_pc;" parent="1" vertex="1">
          <mxGeometry x="207.04" y="50" width="115" height="85" as="geometry" />
        </mxCell>
        <mxCell id="nHwe-JYxMAztrHhhpzCX-11" value="" style="fontColor=#0066CC;verticalAlign=top;verticalLabelPosition=bottom;labelPosition=center;align=center;html=1;outlineConnect=0;fillColor=#CCCCCC;strokeColor=#6881B3;gradientColor=none;gradientDirection=north;strokeWidth=2;shape=mxgraph.networks.pc;" parent="1" vertex="1">
          <mxGeometry x="380" y="60" width="100" height="70" as="geometry" />
        </mxCell>
        <mxCell id="nHwe-JYxMAztrHhhpzCX-12" value="" style="endArrow=none;html=1;rounded=0;strokeWidth=2;" parent="1" edge="1">
          <mxGeometry width="50" height="50" relative="1" as="geometry">
            <mxPoint x="440" y="130" as="sourcePoint" />
            <mxPoint x="440" y="190" as="targetPoint" />
          </mxGeometry>
        </mxCell>
        <mxCell id="nHwe-JYxMAztrHhhpzCX-13" value="OPC UA&lt;br&gt;Client" style="text;html=1;strokeColor=none;fillColor=none;align=center;verticalAlign=middle;whiteSpace=wrap;rounded=0;" parent="1" vertex="1">
          <mxGeometry x="234.54" y="60" width="79.46" height="49" as="geometry" />
        </mxCell>
        <mxCell id="nHwe-JYxMAztrHhhpzCX-14" value="OPC UA&lt;br&gt;Server" style="text;html=1;strokeColor=none;fillColor=none;align=center;verticalAlign=middle;whiteSpace=wrap;rounded=0;" parent="1" vertex="1">
          <mxGeometry x="399.99999999999994" y="62" width="79.46" height="49" as="geometry" />
        </mxCell>
        <mxCell id="nHwe-JYxMAztrHhhpzCX-15" value="GDS" style="rounded=0;whiteSpace=wrap;html=1;fillColor=none;" parent="1" vertex="1">
          <mxGeometry x="520" y="130" width="40" height="30" as="geometry" />
        </mxCell>
        <mxCell id="nHwe-JYxMAztrHhhpzCX-16" value="" style="endArrow=none;html=1;rounded=0;strokeWidth=2;entryX=0.5;entryY=1;entryDx=0;entryDy=0;" parent="1" target="nHwe-JYxMAztrHhhpzCX-15" edge="1">
          <mxGeometry width="50" height="50" relative="1" as="geometry">
            <mxPoint x="540" y="190" as="sourcePoint" />
            <mxPoint x="400" y="160" as="targetPoint" />
          </mxGeometry>
        </mxCell>
        <mxCell id="nHwe-JYxMAztrHhhpzCX-18" value="&lt;b&gt;Remote config&lt;/b&gt;" style="rounded=0;whiteSpace=wrap;html=1;fillColor=#fad9d5;align=left;horizontal=1;verticalAlign=top;strokeColor=#ae4132;fillOpacity=50;" parent="1" vertex="1">
          <mxGeometry x="150" y="370" width="550" height="490" as="geometry" />
        </mxCell>
        <mxCell id="nHwe-JYxMAztrHhhpzCX-19" value="" style="shape=image;verticalLabelPosition=bottom;verticalAlign=top;imageAspect=0;aspect=fixed;image=data:image/jpeg,/9j/4AAQSkZJRgABAQEBLAEsAAD/4S+gRXhpZgAASUkqAAgAAAAHABIBAwABAAAAAQAAABoBBQABAAAAYgAAABsBBQABAAAAagAAACgBAwABAAAAAgAAADEBAgANAAAAcgAAADIBAgAUAAAAgAAAAGmHBAABAAAAlAAAAKYAAAAsAQAAAQAAACwBAAABAAAAR0lNUCAyLjEwLjMwAAAyMDIyOjA1OjI2IDExOjE2OjUxAAEAAaADAAEAAAABAAAAAAAAAAkA/gAEAAEAAAABAAAAAAEEAAEAAAAAAQAAAQEEAAEAAADiAAAAAgEDAAMAAAAYAQAAAwEDAAEAAAAGAAAABgEDAAEAAAAGAAAAFQEDAAEAAAADAAAAAQIEAAEAAAAeAQAAAgIEAAEAAAB6LgAAAAAAAAgACAAIAP/Y/+AAEEpGSUYAAQEAAAEAAQAA/9sAQwAIBgYHBgUIBwcHCQkICgwUDQwLCwwZEhMPFB0aHx4dGhwcICQuJyAiLCMcHCg3KSwwMTQ0NB8nOT04MjwuMzQy/9sAQwEJCQkMCwwYDQ0YMiEcITIyMjIyMjIyMjIyMjIyMjIyMjIyMjIyMjIyMjIyMjIyMjIyMjIyMjIyMjIyMjIyMjIy/8AAEQgA4gEAAwEiAAIRAQMRAf/EAB8AAAEFAQEBAQEBAAAAAAAAAAABAgMEBQYHCAkKC//EALUQAAIBAwMCBAMFBQQEAAABfQECAwAEEQUSITFBBhNRYQcicRQygZGhCCNCscEVUtHwJDNicoIJChYXGBkaJSYnKCkqNDU2Nzg5OkNERUZHSElKU1RVVldYWVpjZGVmZ2hpanN0dXZ3eHl6g4SFhoeIiYqSk5SVlpeYmZqio6Slpqeoqaqys7S1tre4ubrCw8TFxsfIycrS09TV1tfY2drh4uPk5ebn6Onq8fLz9PX29/j5+v/EAB8BAAMBAQEBAQEBAQEAAAAAAAABAgMEBQYHCAkKC//EALURAAIBAgQEAwQHBQQEAAECdwABAgMRBAUhMQYSQVEHYXETIjKBCBRCkaGxwQkjM1LwFWJy0QoWJDThJfEXGBkaJicoKSo1Njc4OTpDREVGR0hJSlNUVVZXWFlaY2RlZmdoaWpzdHV2d3h5eoKDhIWGh4iJipKTlJWWl5iZmqKjpKWmp6ipqrKztLW2t7i5usLDxMXGx8jJytLT1NXW19jZ2uLj5OXm5+jp6vLz9PX29/j5+v/aAAwDAQACEQMRAD8A9/opu/pkdaAxycqaAHUlJuHvSb+cBT9e1ADsUUgPt+VGaVgsOoppbHp+dJvGadhXH0U0Pk4Apd2BzxRYLi0UzfnoMigyAdSB+NKwXHUYqFrqFDhpEB/3qPtUAGTKgH+9TsOxNRxVQ6nYq203cAJ4wZBQ2o2ajJuoAPeQUBsW+KOKzhrml5wdQtQfQzLn+dB1zSgf+QjaD6zL/jQK5o8UVmN4g0dfvapZj6zr/jUZ8UaGvXVrL8J1/wAadh2NfFGKxD4u0EHH9qWv/f1f8aaPGOgknGpW/H/TVf8AGlYLG7igVzx8b+HlJVtUtlYdjKo/rTf+E78OA86nb/XzFx/OiwWOkxScVzh8d+HRydTt/wAJV/xo/wCE68OEZOpwD6yL/jQK50dFcy3j/wAMr11SD8JF/wAaB4/8NkZGpQn/AIGv+NA7nTUcVzX/AAnnh8rkXyN/usD/AFqFviL4bQ4a+UH0OP8AGgVzq+KOK5P/AIWN4aBwb7H1A/xo/wCFi+G/+fw49cD/ABphc2Nbnmt9FvJYm2ypHuVq8Th8e+IDbQu16ytIofKopHIz3Fe1eIU36HeL6xt/Kvn2yt/Ms4BnBESj9BUt2Gbw8beIZeups3ssaf4U5fGHiR4yItXLL6GJP/iawo42hnZgvl994qpc6zcaZapJcxear4KnOT9PwoUhNG+3inxISd2qy/QRpx/47ULeIvEbnP8AaU7f8AT/AArn5vFm+NXVJlBIDhzwR9MU8eOLGLsc9FCZXH5iqFZm6PEHiCT/AJfZ/wAl/wAKbJqmuSYV7udye2cfyrn/APhO4v76f8CBzR/wnUZHyzbSDnHNO4WN7+1NXZfL+1Tj239Poev509brVQuDe3BH++a5dvGqZHyq5HJ4NEnjaF5EYB0IGMA8Y9KQ7HTJc35BxqF117SGkLaq5+W5um/7a/8A165e78TymESxQ7Fx90HAPPepIfE088JP2WZM9PLbHXvQFjdkXVN37yS5z/11P+NPWLVGH3rlh/12P+Nc+fGC26r5kUxkXj525/lUT+NV2psSZfl5G7vTuKzOlNtqJBys/wBfM/8Ar0q2WpFek5X/AGpf/r1y3/Cat6TD/gVIfGUjfx3P/fz/AOtSYWZ0z2d0sZJSQH/f4/nmmJaXJUkrIB7P/ia5h/Faup85Jn28gl+akTxA88BeONxjgB2zQGp0YsLl/uox/wB5/wD69H9l3f8AzyH/AH1XN2eu3zBk2LMpP3mU/lU82uT2aO4iCKBkonAB9RTuKzN7+ybrGSVA+tSf2fdxAFCh/GuUPjFvLUFZBnvnk0z/AIS4+kv/AH1Rcdmdn9hunXEtvE/481G+jrtL7lRh0BPArjX8Vu3AEv8A31QvilxwyyEejNxRcLM6o6XJ/EyH0INOGjylcmePPof/ANVczb+JGumaOCLyyV65qOPW9SjuHWKYScAlGBwMcetKwWOn/smXOGmh29+v+FTDSG2fLPB+v+Fc5Jqt1bzeYFgX2Cnnj61UPjG7Vc7IjuXHIP6c0NCOtXTpk4WeIsPTP+FT/ZrgxlJZYNp64Hzfyrhh4tuiOYUz/tdaafFF03/LGIfUf/XoGdk9jEoIE8Sx++dx/SqzwxRnDs6e7DP8q5b/AISm7XpFB+R/xqW38T3sswWNo4ifvFf/ANdOw7H1nqi+bpl0oHIjcfpXgNkAtsq9dvykfSveNdmlt9DvJIhlxEeBzntXgulO8unRPIuHZQzfU1EiidwChUjjFc5rqsukW4YDC4wcZ54ya6dl4NYXiRSdGgQ/56VERo5B3MiCLflc9cVb8L6VZarqF8l3B5ixgFRuIx+VU8BXAHtWz4F41TUj7LWqC5s/8IroUYHm26x7gSN0jf40g8MeHgvCRZPfzm4/WuT8X/brjXZAqzeUqnaY1YjqfT8KwEtNQBAeK7XPTKNz9KBXPTj4a8OknEaemfNb/GkuvCmhpayNFa7dsZbcJGOTjqOa51fDml/ZLcPqd2LiRRuUBsA+v3eBXUaLGYtEltvNaUQhlWRxg4yc9hQC1OEuCGslGScEj9TU9rI4hQB2B4GQcdKguQRb89Nxx+ZqW24jTPsaB2ILpPOu7dZDuDOc12j+EtEj3GVCiKBljKwH864+b/j9tf8AfNdV48W5OjqlqJHLzBXWNCxIxnt74oC41/D/AIZUnE8RAOP9e3X86X+wvC6KCZ4m9hOSf5158NN1Mxsy2N3tX7xMbcZ6Vs6Fo0LwSyaml8hHSNYWy3/jpoC518Hhrw7dRs0ISZQRu2TMSPTvWDq2nwaffzwW25UCqwBJPUe9aHhyzgstWU2i3Xlyo28SxlQODjqBzUPiFj/acwxxsXn8KBXMOyZyzgs2M4IBxTr5zJayg52qox8xNFkAGfP97+lLdD/RJ8ei/wBaAsdPYeE9LnsIJpY3eR0/vsO/1qceDdJPPkMB7yN/jTp5pIfCRkizvWBiuBk5rzQvqkshYx3TE+itQGx6SPB+jcFYnI7nzGwP1pT4O0l3wLeQgct+8bgfnXC6Lp89/PJHdz3NvHt4Y7gQT3+gro7Kzjsb+2mtNQuZVYlGjccd/wDZ9s0BcTWNHtNKvrZbJCgePJ+Yn19TWJHzfPgkYUjg47iuq8V/8fdkV4PIP5VyyYF8/wBDTQNFtiZM5bb1yevatjRfDGmXWh2V1PEzySpubLtxwD61jL8udw7n+VdNp8k6+BlkhXMotCFA/wBztQ9RLQG8M+HUYb9gPfM7cfrQND8Mocfut2OP37f415w1lq087AWl2ztzyjCtDSNKuLq8QX1vdRRDOSIX9PoaQ7neR6L4dk+WKOKZ/wC5HKSf51ma9pVlYw2z21uI2afB5J42nj9KpQWNpazpPZQagk8TER74W5IPDH5cY4z+NbnioH7NZ7s588Zz/uNVCPo3W2MGjXMq9UjY/mMV4XpuWsI2PVxv/PmvdtaBbR7tcZBhb+VeIWAAsYRjogH6VjIaJCvFYPiSIHSI0LYy4G7sMkV0ZXg1z/idB/YCEHc2c8fhUIo53W9Kh0s24hvI7kSIGITHyHA64J9aPBQzql4P9laxoprmYMbkYVThT7VteDfl1e8C8javJrSKsIt6pqOtLq1zb6dZxvBAhYs8DY4J446nj8arXOseJorBLy4trBIYwQHaM5U/3cf3iOQM9KzPFOqXOm+JZXtriRQ8Y3Lng5J7dPxrGn8SalLaPam6ZonBUqVGMH8Ovv1FaIk0D431F8kR2SnAH+qxn9f1rsfDGoz6ro0010F3Nlf3a8dSP6V5OHwTwMHtXpfgRt3h6XI/ix192okla7A5y6bNthdvyyMuNvbJrrfDDeHV0iZNXQPcNEPKf0GDXJzRkK5VsDe3GOvJqWKJ5IbdoW/dgAt9D2rKpTU18VikMmVDqkBXlPNcLn+7k4/TFdh4omvlgtY9PmEVxPMVzvKjAUnnH0rkJMC4ts9RIf611vii2W6isbeSf7LGbhiZ92Cp8tsc/kPxq4bAzGiHiyGKeE6jExdUY5mYnHPT3rnrnxF4htbloG1C4DDriRsfzp+safeaVFDcJqn2gSZDGOVjtxjHX61z8sskpzI5ZvU9aZJ2/g7XNTv9Z+z3V5NPHtY7HYkdDV3xDHjUrkIesSkD04rC8AMf+EhA7bG/ka3/ABHxqsxH/PMfyoGUPDctlb6sk+owefaqx8yM9D8uB2PtSa69pLcX72MPk2rNmNPRcnFUYEL+btOMn8+lPnjMdpOpOTgf1qIQ97mYHXmaS38JJNEqNIkZKhxlSeeorn7nW/EOjxx3lxp1okEwKo/2VthJB6HOK3ZkZ/BoRWCsYmAY9utcrrGla9/Zpury9FzZR4Kop4GTgYGAO9WndiKr+NtTUgGCyyB/zy/+vVzRPFl9fazbW00Nqsbk5KR4PQnrmuOkbc2SPatLw1/yMVn/ALx/9BNNgeg+LPmurI+zfyrl4di6iJJBuRDkp/eFdR4n4nsv+BD9K5VFL3cq52nsaVrqw0b+v6hZ6lfrLY2kdtAFIwgHXB9hWjp0jxeCoGjIV0t9yHtuCjH61zARY3G7q2eAeOldFA2z4fkbckWp6H0TrShDk0GzEvL/AMVaXAt9JdwbG6FZGz0+vtWFN4s1xSQmqXAAJ+5IwH86zWnubiNY3lmkXOQrOSPyzVY439TjFUQb9j4o1qe9t45dXvApbDEynBruvFI/0K06f68dP9w159o+jz3Ua3kMkWyNwWBJ3d+2Mdq9B8T7jZWmQP8AXD/0A0FI+k7/AP5Bt0D/AM82/lXiNpHtgX6V7jfLu0+4HrG38q8TtxlCP7pK/lWMhIdt+U1geIy6+Ho8YyTxkY9K6TbxVDxNHFJ4NmQx/vYgm1sdMsBUx3KPK41uF3m4GF6qK2/CQH9vXm3hdo4/CsRI5oy6zS7/AE56Vt+FR/xP5/8AcH8jW/QLmB48UDxE2P8Ankv82rmD7V1Hj0f8VF/2xX+bVzUYB6jdntnFMkZg5r07wGMeHpc8fP8A1avPLO0nvZhFbxNNIAWIUdABmvSPBNvPb6XPHcQMjZU/P0w2SD7ZFDA5y5GYHGBgu3Pfqa6jwx4gtdL8Mz2U1szyyJtDH+EkY/rXO3C4jbPQyHafxqZmihjeKTmRmyDWdSnGotUNFOZd11bt/wBND/Wut8WrYy21mupytHY+efMZASR8h29Af4sdq5KT/X2n/XT/ABrqPGMlrHaWzXyF7UT5dASM/KfSqSsNnGalZ6HBpjG2vpXuiQyRspwyZ4PTA4rnSCegrrpL/wAOH7sbRDynAj2bsg42jJ6fWuVmwHbyxtG7KjdkgUyTo/APHiIZ4+Rv5Gui8RgnVZcdfLH8q5zwLn/hIlznPltnP0NdJ4h41Zv+ua/yoA5+GAqriQlRnOfWpLhVFrcbTkHB/nViYr9li3DOBz+dQT4FpMAO3P1qnsM6m6GfBRHHMLdfxry5LlxEY95WNgAw+hr1G8/5Ec/9cH/rXkvZqSExZMbjhgc85ArT8Nf8jFZ/7x/9BNZJrT8PHGvWn+8f5GgD0XxR/r7P6t/KuZS2LNcT5wACn5//AKq6nxSN01r/ALzfyrAh2rbXKsMgyL/I0kNWW5EPJy/lEkMDye3FdFYqg8DhZWIj+zNuYdcba52FQQHQcc/yrobZtvgGRmIGbVsDH+xTvcG09jkri38LmGRrS+m3mP5VKsPn4/2enWsK/Nqbl/sTs8OMjd1z+lQLuy2QMAdCMUGLZ8rqAT3JoEdf4XDy+GtSUL9xlO9VJwMEnNdV4jYnT7XIwRMP/QDXJ+HJreHR5xHfeVcvwYA/EnUZZc9B06c5rrPEeG023K9POHfP8JpgfS9x81nMO+xh+leKwxhXmGefOkB/BjXtMo/0WZhzlWP6V45Ep8y4YgjNxKf/AB41jIEKVwKr+J7cL4QvJCcK6oPp8wq6w4qHxRk+DrkKcEqn8xUR3KZ45HbCBGLz+YW5Hr+Na/hZiPEE+R/AP5GsmKzCNK/2gSFucelbHhgZ8QTg8fIP61v0EYXj4Y8R/WAfzNcujFTkdhmuo8f/APIxj/rgP5muWH8XPamSbPhdsa/aHD/ewcHqPSvTLCT/AIm2olZN3KAKB0HPyn6dK8w8N7I9dtZGYIFbO7cBjHevUrLDajqLb8q/luGWQMDkE5470ykcdcrhZlwP9aT9KjlWN5EaVyHJGKluCqrLtGWMhyagnSAtE1wcMpG3PrRYIgyqZ7bJPEn+NdX4muPsaWd2sAuGjnYCE/xZjYfpnP4Vy0iD/RiCD+87fjXVeJTPENPeyiEt0J2KLjOf3bZ6e2TUjZzMPiOTyPIXSGLAfe2/MR6Yz2rndfvDqWpTXHkmJiVzHjG3Cgf0reuNQ8QfaraVLII4yqvEjFSWIxk/hXO6ybs6ncC6GybK71I2nO0djQSangTjxEvP8DfyrqfECE6oc94x0+lYnhXS7jTtatJpjCVlhJCo2SOO/vW5r4QawxVz/qhx6cCgDJbatvEG57VBclXs5mUY+WrDFRDHuGar3BBsptoxx0qmNHUXI3eCDn/ng/8AWvJe31r1qf8A5Eg/9cH/AJmvJewpIGMrS0D/AJDtp/vH+RrNrS0D/kOWn+8f5GhiPS/EoxLan/ab+VYUK7kmOMkyqMduhrd8SjMlr/vN/KsC2kZPtABb7wIAPtQthq19QKiKNVXBzk459K27NzH4I3AfctmO3/gNYRleRtwQ8Z6n2roLZS/gkxx43tbMP/HKSLqKN/dOOuPFi3Nm8D6bEuU27wTn69ax9Tv2v74Tqip8u0Kv4/41bl8LapHE8/kF40TezYOMVn6hZPp9wYJdpJUMpHpn/wCtTMzqfDFoF8O6rO8Icbcq2eRhTmuq8R7hpUBbkiUf+gmuZ8OSA+FNRV2UBVyqseTwfu10viPcdIhyCD5o4PX7ppgfTEihkkBBMZXkCvGrfDXGoBFdUW+uAu45P+savZ2BO76V41bxGO/1XPU6hcnn/rq1ZSBE4WofE6/8UhcgdPLXn8atBag8RfvPClygUgCPnNZLco8Xt40jdtj7srk+1a/ho58Ry+6f0NZMX2ZJHERYvs5z07Vq+HV2eI3A6hcfoa6OgkYvxBH/ABUEf/XBf5muVXhjzXWfELjXYj/0xUfqa5MMQQRTEaugG2XWrU3Aj8sNyXcqAf6/TvXp2lJbC+1D7LLDPCTGxeKQsASDkH0I7jtXlOkkLq1opUN+/Tn8Rx9K9bs0Kaper5UcOUib5emMHnrQM5K5UgzErhd5xVa7mgRoTMm4HkVeuQoacdzJmqc8kcIi8yMv8gxx0poljiVMkDKMJ5g4/A11HiOO7dLEafIFvGlcR57Dy2J/TNc02PNgYcLvXj8DWz47nltdIgkjIV0n+Uj3XH9TUjRzrWHiSK2gd7yJbfepR9xwCCMdqytetNQttblXUWje7wpkI6Y2jB6emKzDeTk4aViobOPSl8ySaUkksy/NljyfSgD0XT0u/wC0tKWWzSKIQnbLE+/fx1yQKd4iUf2o3TGwc9D0pulpdz3ek31xFCBJEygIjKfu5yST70viIKNU+Ukjy+c/QUAY8rMqjau6o5WZ7SQsu07elTyAhAFzuPSo5Q/2WTzPvbTTY0zpJR/xQzf9cW/ma8l7CvW5P+RHI9YX/ma8jz0oQSG4rR0LjW7X/e/oapIoPGfwrqPDWk201i+ptJL9ogn2KgI24wOvHv602Sdp4j4a1/3nH6Vz1rjzpB7iuh8S9bY/7bH9K56BPlncH5w4GO3IpJXRalFMfMFjkAUZBzkD6Vs2hZPAr5wGFvJj1+7WCgkXcxIyM9PXFb9mA3g1y2Axgc5PrtqErFTaex50uuaiIZIxezEMMOjNxj/OKpTzTXcgeU5YLtGfSukfQdGmjnaDVWacJuWEqRg8dTjGKxdTtrS2uoks7s3ETRAtIVIw2TxyB7fnVmRu6HJdT+HLqBJI/IgOWBQbiDknnGc12Guj/iVQZOf3g5/4Ca4/w9++8PanFJdmNYkJEYXIbgkg8V2mvZbTIt4wQwP6Uxn0rIdqsQMnFePRyCTVdWA6C9m/9DavYdoOeo4xzXlt1oT6LqV7vlD/AGq5knHPQMxYD9aykCGKtM11gfCl+pUf6vGfpUyijV12+GtQyBjyunoazW5TPCYHgw6rHiRlOSRWtoHy+InB6lePyNVBAAgkMTDeOHI4P0q5oBDeJstxgEf+Omtk+wkY3xCBOtxEA48kfzrkijcgqeBk8dBXdeObKa61aBbVWlbylxjH+ea59fDesujGOykOOT8y8D35qhFHSQf7XtQm0Ayr984HWvXbQIt7cJvVmZI9zI25eAcKDXllhZG21uC1viLZ45Rv3nhenUivVLKWF9UnW2eM/u41ypJBwME8+tDA5S5UedOOAA/XPtVe8dokhAj3KUGTirl3xJNmM4D/AJVFNNHBHG0pyvljimhMiYjzID0G9cD8K0/iGrLoiZ5/fg/Tis9/meJlX5C6ke3Fb3im2TUYLSyknWFZJjmR+gIUn09qkpbHkozv4Gee9SoH8wndnjGev5V0Unhq2L3JGpQ+XEQvU5ZiT049qypbGOPTmmF0DMtx5Xlj+7tJ3dKBHaaDb6gsOlS3F+Zo23GOEyFtoK+pPp2xV3xDtGrRleQ0JBGOmMZzT9PikttL0RQ6p5i5C9TnaOabrwH9oxsOf3Z3Z9sUAYrCRrRghw+eGPao3SVLN1lcO+w5IPtU4YG3O1lX5qZLkwz5YN8p5FNoSOgk58Ef9sX/AJmvJPSvXCP+KKP/AFxf+ZryIdaENkiHtx257133hzb/AMIfMFjCus43sOp6df0rgI13Kf6da7LRbtB4eWGF7gEzgSgquwn69emKGB1XiIZNvnp5jfyFYUS/69VPJdT+ldB4jHy23++38hWBGHDTbR3B/SiLE7XK1rBJCCWkDliTgnpxXQ23PgxmIBIgkOP+A1hQ7yilh2Jrdtf+RLl/695P/QaHuUeVSMFlOVU4JOByDQX8xyAx2/7RzxUUn+sb60RjLj5gPrQhHaeGkhbw1rZ8xOIzhSMsTtOPw9q6/XDu0yIgYyw757Vy3hJgPDGu+YpCMmCxxhSVP411GsZ/siHOM7x0+houB9MYyOec1xXi1ANSix3X/Cu27YrjfFoJ1GE442n+lZyBHPqPmx2pNURG8OXxXAzCc8deDUir8+cUuoKf7A1DaoP7luPTg1C1KZ5FqXiaPV9JttM8hE+zrjcoI/KqehkHxHHnrtPT6GqML2oYxoP3hALE1oaPGF8QRDPO08/ga0jDlEReNdVu9J1qBrSTbuhBIPTjp+Vc4PGOtecZjdZcjAJH3T6j3rW+I/8AyFrY9vIxXFHoKtCNKK+e61KJ5ygDyruOOAMivTNFS1GrTfYViAaFd/lDAJx1x6+teU2ADX9sCu4GVcj15FevWKiG+Ux+UqmD7kQCleBw2OtDAwrs5nuQpYDfzn1wKoXE0cSRM8fm/KO2a0L5Ga5uQWGN46d+BVF3EEUQWEvlRzimSyThhGVyqtIpAPbg1p+P/wDkX0Uf8/A498VnMMmMuvV1wB24NbPi0Wn2a2N9u+y+eRLtJzjacHj3xUlo8sxvPz8bcj8aArx4wFODmugD+GRPLvSYqHVYsFuRk5PX6VRnXTRpki2/mG7NzkFsjEW08deecUCOx0nUPttxpSQwyJGEJaRo2Vc7eQpIxV3XP+Qov8SiJgPXtWboss5bR4jb+XZ+XkSCQsC+3pgjg9K1NcIGoxbRz5Z/pQBiFn8ghMj5qRwxin3kk7T1pzK7QnDAfNTWVhDPuO75Tz+FUxI3yc+C2/64P/M15EOteu/8yW//AFwf+ZryIdaS3KY+M8FSOv5Cuz8NT48OzRQ2krO0w3yZGO3/ANauMX7nyjJ5zXeeDmEvhy7UnYiTckHnov8AjRIR0niEMRbZGPnbj8BXOLvWWUDqWGOa6HxApCxfMfvnr17VzwGJJT1wRyTSQmMVGQgMcjJxg+1b1r/yJcv/AF7yf+g1hRLtypYPyTkHOOK37XH/AAhko7/Z5P8A0GmNnkkg/eN9aIxlwOPxpZf9a31pqkA5NNAdb4ftbq40LUUjmgigwVkLRl2OQeeGGO/JFdprDFtIjOMYIP6VyfgybydP1MuyhDCWYlQflAOfrXXaqFbR025xkdal7j6H0x/F+Fcj4r/4/If90/0rrff2rk/FQ/0qE+x/pUSEjBAp15GR4d1EZ5EL/wDoJpBUl0d/h/UFU5IhfI/4CazW5R4Ck8TL5Ijw+B82K0dNQnxJCRwAD/6CapLMCzL5GEGBnHPT1q/prq3iOFlUgbT/ACNb9CWZPxHH/ExtP+uf+FcWehrt/iMP9Msm7lCP5Vw5PNMRZ05d+o2y7wmZVG89F5HNeuWM/wBo1BQJhMsUJQlBhTjA+vOK8etyFuIy33Qwz9M169p9nBaavGYkWNnsVf5B97gdcd+aBoydQIN7dYGFLDJ/AVRneZII/JQMNg61o6kS13c54AYcD6CqDrcNDEIgR8o60xMfy/lGX5W8xeP+Amr/AI8Rn8PKq9ROCABy3HSqbq/7vfgkSLk49jWr4svBp1nbXzW6TrFcEbHGVOUIzj8aka2PLnhYhA0bghfugciiNJUHmKrBc4JA4H1rbHinE0z/ANnW2JWXBZOQAT0P41UOtFtNubT7NGolkLllGMAjFAjs9Dk/4lWkkM4ZZCm4jggKOlXteyL+A5yCjf0rO0WYnR9HjL8eZwu/JztHOK0/EGDf2vQnY31/hoRXQxype35wBv6/hUOxY7eZVbcNp5/CptgeLBJxv7H2phiVIZlGceWT+lO+o1D3bm4v/Imt/wBcX/ma8gr2BOfBzf8AXB/5mvHxSW5JPCMg5UEDk57V1ugXscOizRRWk+XcK8i7ducg8859O1ceFJXI6jHNdz4Wk2+GdURthJlHzFNxPCcA9qcgOo8QDcIW/wBs/wBKwdoJmz3I/lW/rmfLh7fvCOfwrB2/PKM5JcAYpLYa3SIvLEbMO5z/ACrbtR/xSUv/AFwk/wDQax5FIlAfrg/yrZs+fCU3/XGQf+O0ka14KM9DySb/AF7/AO8aapwc+lOm/wBfJ/vGmqcGrRidboP9o3Oh6nHBPGIY4WeVWHLLgkgV2+oAHRUx7VxnhhfL8O6zNKkYjktniEkiZYZUj5a7PUyV0KMggnAqXuB9Ldq5bxSp+0QMRxg8/lXVDpXM+Khn7P8A8C/pUSBHOjripp4v+JFqBiU/NDJx3+6aiUfOKJZ2j0+8jP3DBJg/8BNZrco8IE7PK0SplRjnFW9NUnxFAARjaf5Gq4a7jmdBGvl84P8Ak1Y0olfEFv67T/I1v0JZn/EYH7TYn/ZP9K4fBJ4ru/iR/rrD6N/SuFU7ee9UgJrIR/bLcy8Q+au8+2RmvU9LvLa48QbYblJ4ktdqmJtxA44PpivPvC+mw6r4ggs592xw3A9cV6nZ+HINAZmt4ZYWc7Cz4+b8hU3GjF1GMrfXeeoYcenyis+ZLiWFBE4XCA1pasCbu7APzEg/oKpWcoaJnb/nmUA/CmSISxjjBHAddx9eDWh41tp7zSorS1j8yaSfKRg88Lk/oDVE/wCqX/rov8jV/wAbXMtlpMFzbsY5kn4cY6FcY/Wiw7nnw8P6q8pj+yN5iYG3I4J6fyqJtMu0tprsQM8ET+VI5IG1xyRUqa7qSSyOLpg0py2QPm/zmo7a/u5LiKNpd0ZlDlCOM56/rRYDqtG1ddTvtPtlsxA1v/y1DZyMelb+t7TfWwH3wr5PryK66WzIsmuFmUqoVjGVOBk449a5PXeb63dSSSjAn/vnp7f/AFqQXMheY/8Agf8ASmyDCzA9fLP8qZAWZ3X+6c05yWEhP/PNv5VLdmdaivY3NuP/AJE5v+uD/wDoRryAV69F/wAiY3/XF/8A0I15D2qonISqR5ftxmum0rVpE0uLS2sd2+UOsyyFcfUDrXMIOMjBwM4Ir3rw9bRXWgQbLnycnbjYcHqeuKcgRj65/qoi3I809PwrAR1E8yjjLBh9K6HWMGGIdFD5A9OnNcqzFdTc9iCP1FJLQcU3JWJBN50oBPzKDj3rbs/+RSnH/TKT+VZKhRt+XnBGa1rP/kVZ/wDrlJ/KhGtdPmuzyWb/AF8n+8f50iYLDOce1LP/AMfMn+8aI+WFUjE67R9F8QzaQ62ctutpdKQyS5JxyOPlOOvau11RNmkCM9VxV/4fWsVx4aVJoFkAZeNwDZOcbc9Pqar66oFpKFJIBwCfrUgfRhcgcLx6niuW8RXlvcTRwxTJJJFnzApB25x/ga6rJYkHgdvevOtcSS01+8mk4ik24OB05/xqJDQIG3ZPb+VMvAv2C57nyXH/AI6aUOSo9+KhuCRYXSHr5T/yNZrcZ4u6Si+f5iy5PAPSpbHnxBa8beD/ACNRm3k/tF2WUAEng1NZDOv2gPof5Gt+hLKHxJGG089/n/8AZa4P+Cu++JOP+Jf9X/8AZa4Eg7RVIDpPA7lPFVkV6kn+Ve36yrfYoXLTSDd0YlgD7Mf5V4b4JwfFVkCcDJBr2/WVVYIRFIsik9yQeO2OlQx9DhNSOL673LjkH9BWVCAsDM7ADccdq2NUXN9dk98Z9uBWLHHG1u3mybVDHj1qkSi2wyqhPmXevI+lT+Psnw8pPBEoNQg/u18n7pI/lU3j9h/wj688mQUAeX5PWrNgxF7D3+cdfrVYKcE4qxYg/bIT/tgUDPo2VlfRs5yNqAkphRz2PY+tcRrQJvICAQoVwCOnJHSu3uIWk0RCUTegUllY9Mjt0ri9d8w3dqE4O18+/IqWBz6yrAblhlmAGBjHpSRuZbeR2QodjDH4U5WdPtJChmwOv1FPV5JLZ2lUKxjbAHpiqsWpu3KbMAz4NbP/ADxf/wBCNeQkcV7Bb/8AInMO/kv/AOhGvH+oP0pRIHq5VceoxX0F4QdR4Vto2DMWYn5U3YGD27189qRj8Oa+hPByfafCkFuAjMSQNxIwOTkkc0SGjn9XVhbRE4Kk5DDuOOK5pxtvjuGWwTtrp9W4tUHJw2c/XHFcy+F1DJUk4+UflTWwrtbC280sufMj2gdOK27EZ8MXAPTy5f5Viwm4ZibgAf3cVuWGP+EZuP8Acm/lSDmlL4jyKf8A4+Jf98/zpqgk8Ak+1STqTcSkdnP86RMK2SB360wPdvh2P+KVjk2qVHMjmESFQCeM9v8A61UdaOdNmYAD5uMDA61P8O722g8MxC535ZhtI+6FBO7P6VFrgzplwV5G7cPpmkB9GN94GvNviJrcWk39rLMgMLEI4I7HHP4V6VjIz3Fed/EXwdqPiv7L9iktUWLeJTO5TOcYwQD6GpeozKgmREDI6Pbk7onBzjjp/Op5f+Pa4TOcQk59eDWUvh298GabDFq95DLDM/lxbD8qZyepA9D+dWWd4xcBm3J5YRePrUWsx9DyyS23XzzF8DeRj8aS02DXLM5I+U/yNWZY1+1S/KQwlbIz7mobYZ1myGOx/rWvQhblL4kD/jw/3n/9lriYrW4uP9TDLIAOdiE4/Ku7+I0TOtgMDdukyM/7tWfhzaMIbhJUXDybSzKDxgGi4zmvCNlfQeJLW4e0nRFYnc0ZAFevXupz38CxSopVX+8vt0rVk0TSbZ3R7tR82FI4wPzqK503SLK1ZluUldlYoElJ+bt3pMaOC1JCLu4VRxgf0rMtolmgZT2Y1sagCLy4VuwH4dKy7PhXx/eNUSxzpsZETpkVJ49B/wCEdXjpKKVgRJkDbjnmr/inS7rVdNNtaAGTzAfm6Y4pDPMtJ0m71qZobYD5eTmujtPAOpLcxM80S7WBIBH+Na3hTw1qOj380t2sYSRNoVCT/QV6cmsaVAyPHbFm24cGIH/PNIDCHmESRjcBIc4XkGsXW8Lc2hVTkK4JP1H+cV28fiGyhjkT7GBI24glAMNiuK135ru2eQ537yQOOpBNAGFEubiVfWnzLthI9I2/lTIWYXUpAzxxU1wuYzlwG2Nn8qpko0rb/kU27fuX/wDQjXlWnWf2++htt2wyvt3bc161pcSXHhxYXbAkRlyO3zGsTTPA8dhfW92btz5b7sEDFSUVV+GMzq7fb5MBsKEtGbJ/A13Fppk1nZQW0dtOTEMbyhBxnr0461sQ66YbJbVIAzIzEOGxncc1KPEd0AWNskkm3aAD15+lAHK65HNFD5c0ciyI+RuHzYyOK5eQf8TFTxzzxXX+I55rjzLiRW3ySZIY9OR0rk5FA1JTgkY9MY6U0Jk7jpWpYD/imbj/AHJv5VnSRlQCXGMZwOtaujhW0ho5Cuzc6uGOMqaGCPKEgWe/2OAFaUr79TXsFv8ADvT5oGngsVaNZNhcuuO3t71mp4c8PQzeetugbOQTOx5/E10MeuNFbPBHfwpC7bmXcOvH+ApDNCHwndQrDa28UUaKhaIBxt7f41jeJLOS0tLmGY73RRnn6VP/AMJGYjxqacLtGGHA9qytU1W2u7WbfdrJIw5O7k80AfS3NRyRg85wfWpaaxUfeoA81+LtheXuh2i2lrJKyzDcE5KjDc/y/OuW8NzaqlpLbanZTKYYQiSsn31UH07j+te5MF25OSPfmopLeORGBjVlddpz6d6TVx3Pl+U+ZczMvK+axyeOpNU4ZUi1S2lkJCIDuOCcda+hG+HXh1riSdrQMXbccAYFW4vA/h2IYGlWzY4y0an+lMR4l/bVogIR3IyMBUP9RSNrFu7BhFcMRxwh/wAK93TwloMf3dKtD/2xX/CrCaBo0fTSrJf+2K/4UAeAf2q2CE0+6fJzu8s0q3d48bBNKvGPJwyda+hF0qxX7llbKPaEVKLO2j5W3jX/AHUFAHzi2l6reTzyjTLiMPgAFPYVVPh/V9PlMVzp86SFtwAXdx+Ga+mwq9Aox6EYoMSMwZ0Ut6kZp3A+am0HWJzuhsJ3bHQrt/nitmTTfEjyErokh54JZcf+hV7/ALEPRR+FAXaMAGkB4END8XyHcukIvtuH/wAVUq+FPGckYC2cIzzjI/8Aiq94wc55x9aXPoCPwoA8LPgfxvKB+4iUZPRl/wDiqYfhj4qnnjnnCF06AsuP517wB70YoA8Lk+E3iFGWaKWAsR8yccfrSt8K/EMr/P5QU5BwR0P417nijFO4rHjFv8LfEMFskEWoQxxrngrngnPrVkfCvWpQPN1gqf8AYVcfqDXr2KMUhnk3/Cpr9x+81lz2zhf8KUfB6Rhh9WlOfp/hXrGKMUAeWD4NWioM6jcs2cn5h/8AE1cuPhBo01kF+0XZnA+/vXJ/8dr0cigCgDzOL4QWRVVn1K8ZAPuhk/8AianT4OeHtrbp77k5xvT/AOJr0XFGKAOFT4UeGgBuSdsf3mX/AAqzH8NPDcRAFnuHviuxxRigDmovAnh+Hpp0Z+tXE8K6MigJp8Kj6GtmloAKMZoooArk/vsdqVifPIzxgUUUAOj/ANWfqf508dT9aKKAFNAoooAWmUUUARsf3g+lTDoKKKAFoFFFADT94Up6UUUAC9KWiigAooooAKKKKACiiigAooooAKKKKACiiigBKWiigD//2f/hDHdodHRwOi8vbnMuYWRvYmUuY29tL3hhcC8xLjAvADw/eHBhY2tldCBiZWdpbj0i77u/IiBpZD0iVzVNME1wQ2VoaUh6cmVTek5UY3prYzlkIj8+IDx4OnhtcG1ldGEgeG1sbnM6eD0iYWRvYmU6bnM6bWV0YS8iIHg6eG1wdGs9IlhNUCBDb3JlIDQuNC4wLUV4aXYyIj4gPHJkZjpSREYgeG1sbnM6cmRmPSJodHRwOi8vd3d3LnczLm9yZy8xOTk5LzAyLzIyLXJkZi1zeW50YXgtbnMjIj4gPHJkZjpEZXNjcmlwdGlvbiByZGY6YWJvdXQ9IiIgeG1sbnM6eG1wTU09Imh0dHA6Ly9ucy5hZG9iZS5jb20veGFwLzEuMC9tbS8iIHhtbG5zOnN0RXZ0PSJodHRwOi8vbnMuYWRvYmUuY29tL3hhcC8xLjAvc1R5cGUvUmVzb3VyY2VFdmVudCMiIHhtbG5zOmRjPSJodHRwOi8vcHVybC5vcmcvZGMvZWxlbWVudHMvMS4xLyIgeG1sbnM6R0lNUD0iaHR0cDovL3d3dy5naW1wLm9yZy94bXAvIiB4bWxuczp4bXA9Imh0dHA6Ly9ucy5hZG9iZS5jb20veGFwLzEuMC8iIHhtcE1NOkRvY3VtZW50SUQ9ImdpbXA6ZG9jaWQ6Z2ltcDo0YTUzZDgyNS1iZmFlLTQwNDgtYjZjOS0xMTgzODgyM2M1NGUiIHhtcE1NOkluc3RhbmNlSUQ9InhtcC5paWQ6Njk3Y2E1NjEtZjVlMy00OGQxLWJhMzMtOTIyMzMzMjIyNjgyIiB4bXBNTTpPcmlnaW5hbERvY3VtZW50SUQ9InhtcC5kaWQ6NDMyZDVlYWUtN2NkYS00MTNmLWE2ZGYtMzJjMGQ5ZmFiYTg2IiBkYzpGb3JtYXQ9ImltYWdlL2pwZWciIEdJTVA6QVBJPSIyLjAiIEdJTVA6UGxhdGZvcm09IkxpbnV4IiBHSU1QOlRpbWVTdGFtcD0iMTY1MzU3NDYxMjk0Nzg1MSIgR0lNUDpWZXJzaW9uPSIyLjEwLjMwIiB4bXA6Q3JlYXRvclRvb2w9IkdJTVAgMi4xMCI+IDx4bXBNTTpIaXN0b3J5PiA8cmRmOlNlcT4gPHJkZjpsaSBzdEV2dDphY3Rpb249InNhdmVkIiBzdEV2dDpjaGFuZ2VkPSIvIiBzdEV2dDppbnN0YW5jZUlEPSJ4bXAuaWlkOjI0MjA1YTNjLWU3NWMtNDZkZC05ODg5LWQwMGU0M2Q3NDMyMSIgc3RFdnQ6c29mdHdhcmVBZ2VudD0iR2ltcCAyLjEwIChMaW51eCkiIHN0RXZ0OndoZW49IjIwMjItMDUtMjZUMTE6MTY6NTItMDM6MDAiLz4gPC9yZGY6U2VxPiA8L3htcE1NOkhpc3Rvcnk+IDwvcmRmOkRlc2NyaXB0aW9uPiA8L3JkZjpSREY+IDwveDp4bXBtZXRhPiAgICAgICAgICAgICAgICAgICAgICAgICAgICAgICAgICAgICAgICAgICAgICAgICAgICAgICAgICAgICAgICAgICAgICAgICAgICAgICAgICAgICAgICAgICAgICAgICAgICAgICAgICAgICAgICAgICAgICAgICAgICAgICAgICAgICAgICAgICAgICAgICAgICAgICAgICAgICAgICAgICAgICAgICAgICAgICAgICAgICAgICAgICAgICAgICAgICAgICAgICAgICAgICAgICAgICAgICAgICAgICAgICAgICAgICAgICAgICAgICAgICAgICAgICAgICAgICAgICAgICAgICAgICAgICAgICAgICAgICAgICAgICAgICAgICAgICAgICAgICAgICAgICAgICAgICAgICAgICAgICAgICAgICAgICAgICAgICAgICAgICAgICAgICAgICAgICAgICAgICAgICAgICAgICAgICAgICAgICAgICAgICAgICAgICAgICAgICAgICAgICAgICAgICAgICAgICAgICAgICAgICAgICAgICAgICAgICAgICAgICAgICAgICAgICAgICAgICAgICAgICAgICAgICAgICAgICAgICAgICAgICAgICAgICAgICAgICAgICAgICAgICAgICAgICAgICAgICAgICAgICAgICAgICAgICAgICAgICAgICAgICAgICAgICAgICAgICAgICAgICAgICAgICAgICAgICAgICAgICAgICAgICAgICAgICAgICAgICAgICAgICAgICAgICAgICAgICAgICAgICAgICAgICAgICAgICAgICAgICAgICAgICAgICAgICAgICAgICAgICAgICAgICAgICAgICAgICAgICAgICAgICAgICAgICAgICAgICAgICAgICAgICAgICAgICAgICAgICAgICAgICAgICAgICAgICAgICAgICAgICAgICAgICAgICAgICAgICAgICAgICAgICAgICAgICAgICAgICAgICAgICAgICAgICAgICAgICAgICAgICAgICAgICAgICAgICAgICAgICAgICAgICAgICAgICAgICAgICAgICAgICAgICAgICAgICAgICAgICAgICAgICAgICAgICAgICAgICAgICAgICAgICAgICAgICAgICAgICAgICAgICAgICAgICAgICAgICAgICAgICAgICAgICAgICAgICAgICAgICAgICAgICAgICAgICAgICAgICAgICAgICAgICAgICAgICAgICAgICAgICAgICAgICAgICAgICAgICAgICAgICAgICAgICAgICAgICAgICAgICAgICAgICAgICAgICAgICAgICAgICAgICAgICAgICAgICAgICAgICAgICAgICAgICAgICAgICAgICAgICAgICAgICAgICAgICAgICAgICAgICAgICAgICAgICAgICAgICAgICAgICAgICAgICAgICAgICAgICAgICAgICAgICAgICAgICAgICAgICAgICAgICAgICAgICAgICAgICAgICAgICAgICAgICAgICAgICAgICAgICAgICAgICAgICAgICAgICAgICAgICAgICAgICAgICAgICAgICAgICAgICAgICAgICAgICAgICAgICAgICAgICAgICAgICAgICAgICAgICAgICAgICAgICAgICAgICAgICAgICAgICAgICAgICAgICAgICAgICAgICAgICAgICAgICAgICAgICAgICAgICAgICAgICAgICAgICAgICAgICAgICAgICAgICAgICAgICAgICAgICAgICAgICAgICAgICAgICAgICAgICAgICAgICAgICAgICAgICAgICAgICAgICAgICAgICAgICAgICAgICAgICAgICAgICAgICAgICAgICAgICAgICAgICAgICAgICAgICAgICAgICAgICAgICAgICAgICAgICAgICAgICAgICAgICAgICAgICAgICAgICAgICAgICAgICAgICAgICAgICAgICAgICAgICAgICAgICAgICAgICAgICAgICAgICAgICAgICAgICAgICAgICAgICAgICAgICAgICAgICAgICAgICAgICAgICAgICAgICAgICAgICAgICAgICAgICAgICAgICAgICAgICAgICAgICAgICAgICAgICAgICAgICAgICAgICAgICAgICAgICAgICAgICAgICAgICAgICAgICAgICAgICAgICAgICAgICAgICAgICAgICAgICAgICAgICAgICAgICAgICAgICAgICAgICAgICAgICAgICAgICAgICAgICAgICAgICAgICAgICAgICAgICAgICAgICAgICAgICAgICAgICAgICAgICAgICAgICAgICAgICAgICAgICAgICAgICAgICAgICAgICAgICAgICAgICAgICAgICAgICAgICAgICAgICAgICAgICAgICAgICAgICAgICAgICAgICAgICAgICAgICAgICAgICAgICAgICAgICAgICAgICAgICAgICAgICAgICAgICAgICAgICAgICAgICAgICAgICAgICAgICAgICAgICAgICAgICAgICAgICAgICAgICAgICAgICAgICAgICAgICAgICAgICAgICAgICAgICAgICAgICAgICAgICAgICAgICAgICAgICAgICAgICAgIDw/eHBhY2tldCBlbmQ9InciPz7/4gKwSUNDX1BST0ZJTEUAAQEAAAKgbGNtcwQwAABtbnRyUkdCIFhZWiAH5gAFABoADgAOABZhY3NwQVBQTAAAAAAAAAAAAAAAAAAAAAAAAAAAAAAAAAAA9tYAAQAAAADTLWxjbXMAAAAAAAAAAAAAAAAAAAAAAAAAAAAAAAAAAAAAAAAAAAAAAAAAAAAAAAAAAAAAAA1kZXNjAAABIAAAAEBjcHJ0AAABYAAAADZ3dHB0AAABmAAAABRjaGFkAAABrAAAACxyWFlaAAAB2AAAABRiWFlaAAAB7AAAABRnWFlaAAACAAAAABRyVFJDAAACFAAAACBnVFJDAAACFAAAACBiVFJDAAACFAAAACBjaHJtAAACNAAAACRkbW5kAAACWAAAACRkbWRkAAACfAAAACRtbHVjAAAAAAAAAAEAAAAMZW5VUwAAACQAAAAcAEcASQBNAFAAIABiAHUAaQBsAHQALQBpAG4AIABzAFIARwBCbWx1YwAAAAAAAAABAAAADGVuVVMAAAAaAAAAHABQAHUAYgBsAGkAYwAgAEQAbwBtAGEAaQBuAABYWVogAAAAAAAA9tYAAQAAAADTLXNmMzIAAAAAAAEMQgAABd7///MlAAAHkwAA/ZD///uh///9ogAAA9wAAMBuWFlaIAAAAAAAAG+gAAA49QAAA5BYWVogAAAAAAAAJJ8AAA+EAAC2xFhZWiAAAAAAAABilwAAt4cAABjZcGFyYQAAAAAAAwAAAAJmZgAA8qcAAA1ZAAAT0AAACltjaHJtAAAAAAADAAAAAKPXAABUfAAATM0AAJmaAAAmZwAAD1xtbHVjAAAAAAAAAAEAAAAMZW5VUwAAAAgAAAAcAEcASQBNAFBtbHVjAAAAAAAAAAEAAAAMZW5VUwAAAAgAAAAcAHMAUgBHAEL/2wBDAAMCAgMCAgMDAwMEAwMEBQgFBQQEBQoHBwYIDAoMDAsKCwsNDhIQDQ4RDgsLEBYQERMUFRUVDA8XGBYUGBIUFRT/2wBDAQMEBAUEBQkFBQkUDQsNFBQUFBQUFBQUFBQUFBQUFBQUFBQUFBQUFBQUFBQUFBQUFBQUFBQUFBQUFBQUFBQUFBT/wgARCACYAKwDAREAAhEBAxEB/8QAHAAAAgIDAQEAAAAAAAAAAAAABgcEBQACCAMB/8QAGQEBAQEBAQEAAAAAAAAAAAAAAAIBAwQF/9oADAMBAAIQAxAAAAHqkw1nMNtYZjDWmH0wxvxmGGx8MbjMMApoOfNiMfKzxNsfM2LTDSM8DS98mY3UiwxmG5F3Yo3J6JniHuuV1vc1PIinoamJ0MNTVWhvrLjTnuG916HUvLVNxAXWqa0tGxeLAy+IpuwiA1hQDzL0k7YlUF0aIhZeQjqLzldwsLrRDut+nMTvCrltd57ldEXvAvOn5SeVd+wMMpBj4H/Nd76pCESFE211V55VnC1t10f7hveYveNXnuvnuRau7wuJ1ug9QnFywf06oC/S73JXeSS7pIrq7zyquFgvWQr0BjZpBr5VKWGVHQADMKvovotN3z8cO6aHS2rFzgo0QnWvnK7hYf1lc+gM7NEOmqDy351QoFhllX0XkWmq5+A75Uee2bXkWLDnVqdc8i281hXSVv6AzuD46M0VuLfnVOVQblDVEEWmOnHy074uj5+qfXlWl8yZRVrrbkXHmsM6Sr/QGqwVw980SuLTnS5Iw3Qdqb+LTHWShh/Churblq4uSRpRrsPiV/CxlKg7ofTBO8bEaO3zn8+goVQ1Aa6TdxaV3CIZUKG03CdrGJmleb23zxM8LELlRdw7uBlnxAZvna8+gcVQzCl6TexaT3CIZsBy1jhO2P5Feb3BzxP8LDbJ/wBEDm4Fj42h5FlFBJUjeWN3F3hJBEMqKpXeXXmTljqRxjtjmUfCw+ya9EDu4ED82h5FjFLkgDcXWZ3tHFJXyvWs6NqHukV4E5Y2kb47hgovNYb0JvvA9QVH5GitxP3QQ981qwCs+lbT40n34MmaOMkLfRsd8CavOguatOyJLXzWHdCf7wP0FDqGNVNxa7qrLbNdcFtdEMakenNozRjgFc7bbTFOhIVB2tO898XlpR+iKDagjzjV7cWU0tw+waAJcWkWqx0noBlxLi6Icovjt3NTQvOYA7RPyjshtA7iwmvgV4rSkuJ8XZl6RCvuLaLtiUeZ0ORAbKEmE4mkk9SUe57GGGGGGGGGH0//xAAvEAAABQICCQQDAAMAAAAAAAABAgMEBQAGERITFBUiJCUzNDUHFjI2ECMmF0BC/9oACAEBAAEFAv8AWuSf2AgHqKJqH1BUyj6huq/yC7NXv9/XvuSyjfMpQ3vL5hvOZNQ3hNGL7umsw3ZOGr3LOmoLimqGamjVt6co09PUE1OZdty5qNMy5aG45Mo+oRMzPV8pnMo4ZGLcjoqu3ZSjTEoahmZApkZl1pRnnZVdsSlbUlDUEi9KZvIrGoZh7pdpyVa/JUEi7pF8sZDakkrWtSpq0kvSb56Wr/XKkwEtTpMpojzctczpk+Zzsk8SfLKOoRPqxAc7kbmepPms4/dIPnIuoluWrdHK6PeTnMjNSCqE8bMqh0kHwsLf92SBqZybgzyQDmF+Y6nlqVK31qL8y6euCyLqaeILpulHVtRLpu1eRWG215A6T9eXelU0p3EFHuEmtQPdLyrpul7gf1OjmM2dAkwSVFvb7qadpGhpV6vJyQcwvYmZgBauooGSjQ5tcYiWbqOD+VikWrh/FBzmSBQ9DSH1pEBqC7py9BdCpqkyCVIUtYt10z1ctslIapEA1+8g5YBavIoFaxwc0uXzaKWlVbNjtYLMCVRPllm51XT1A7Vdv9aEMxYLujfKpYMxRLmpRI69uuIxw1LbR8tSYcfdvicu7ewDqbEo7UufzbTHWnQcKfGooB2pIi3K6dE0rpsUS26b4wXeKfKpTpCcNEsmJraMisUltYarL+Qu8csKBavkoagxHmN0ebRECqmIBWCwbsSHMZFQSrp4uJ3Dkg41BBxinywqS6ACGgWOdK3V5Bw6Lb+OWUDjrtw2IBavcMscz7+6fNl+SxcrVb4xPfzQ82ad0YMsOf4wneKdS2yZpZ7vNTY0dQULfcSirpO2yjo5TvZ1gElGFCrraHes0CaKRnY07yVdRwszaQirMw5ai+/lEmRnzBJIz5xvMBHdhQ4xXqQJhJIuw4PHddfWqtwQKhJ96v0ChV6CcsSgA65dvmsaKU5Wa1RfeSbAVZFFuKDpHIaEMFQ3eK9S3wzSz0uVrhuuQ/mqttNNWpYvGK9IAq9yckbl/fd3mf8ApFUF2p8ajQHXJWOcLyKLZZuqv2CmGWH7xbrwObaa28wEgZXIfzlQAHMnKBxanTwq9S8hQH993+WpPHQKlCo4A1qbUPtZqfiSK6eJqH7xbrwqybWRMHLhENE5+uVBGEpZgMzwfjhvXgYTQiQjp7w8sySBw82MlCts+V1Hd1KyjhCRt055KalmpGrUojmh+8X69kNEnTyXTBKkS5knP1+rJRKrCSocVJrnbMCnA1XabNDJhvXl5aP76cAdEcB08eHFTvmbP+wT/wAVcKiQ49x1/TzycyG8XCnAfz9WOUDQUz3broRcuR7VyjmiQDKa8Q5szgJArp851pIxMy7AmV1ItjurghbSdsHkymsVqUuZWK79lHbUlISz3UKvNJKpGbh+pwH8/aVvIzhmFuJM0JoOLMXMW4YOPt2HePEn8IbqS8ClKum8sk1QfzaTpqbrt1CJOtWjNc2+fK/frP0tQcFVYs3STpCJVSV0EyYy8BMvaCzJduZnaU43L7TnDUFlS5qW9OX7g1LJJrpyFtR79sHp/EUWxYUtFs+GLRbdjEqNDsVUiRLJKtTRLQJELWFYVhWFYfjCsKw/P//EACQRAAIBBAMAAgIDAAAAAAAAAAABEQIQEiADITAEQBMiMTJQ/9oACAEDAQE/AbQRrBF4III8cjLXIyvkZGRl44mJBBBBiYmJiQQQQRbEx1kkkm8kkk3km8k/Vf1n5Mp8f4MqvNlPi+jirpjsezFd2Q94RRA9mLRiHu0ymR+iHuxXXkh7sV14sQ78dPQundfqmcXH+Thb9UO/DTKOTp3fcnxqseB+dQtfiVY0nL3VZH9ji4qYH5VC1VeJV3ZWyqW9Qrv6VQv8n//EACMRAAIBAwQCAwEAAAAAAAAAAAABAhARIAMSMDEhQCIzUGH/2gAIAQIBAT8Brati3pWwtzsYvUYxC9NjpGu2z8mtpa0/rIYakd8vA/jGqNTSbeLGQOq7W35Nd68PrIf3CMbD+Vei+LGQ5kPFjIcyHiyRDmRJCwZIhzRGsWMT2ie7jQ8XRjFHcKO3jQ8XRjIcUuyXREYh1dGMhxS7JdESQh1dGSIDEPOQhEiJLFkiAxDzXkkIkRHixoh6tiP5X//EAEUQAAEDAgMCCAsHAAoDAAAAAAEAAgMRIQQSMRMiEEFRcXJzgbEFIzIzNFJhkbLBwhRCgpKTodEVQ2Jjg6LS4fDxMDVA/9oACAEBAAY/Av8A5sO/Y7XaybOldLV+Stgh+r/sqtwDD7dtbuVsDH+of4W7go/eV6ND7LH+V6Phh2O/lWw+G7GuPzXmYW+zZO/leQxvNCVoxvtEKy5x+irS+6ELzz/02hXmkNeQNVsbM3ptaF6XJ/luvS5OwtXpsh/E1XxU/OyRoX/sJv1FQ+E3jnlosEeSf6HJpHF71EAWPa9tavsVkZDt3kmlLkr0Kb8q9Em7W1ommXCmJpoKvaQE8Z2ZRyg1TYmMErvZmJIXo8n5XLzM3uevGwmJp4y1wqU4GUObXQtqnMiBloBoCSvR5PyuVdjJ+VycJWGC1Ru0JV5i6mlRUjtTtkHvbUiojqF5mT9FWhk/SRbI+WNw+7pRYJhBrJiRQ8m648EFN3xd1hOZ/cpYIRGGRkDfFSU94lwcTWkDxlqkoPly7UStDtmbVDk9M6t6nhiLWsjcWgZa6IvONw0FDQB4FSsNK8guLrlmhO8E/nWJ6tiOSOFo4qgk96ExGEyEZshcQSOPjUB5Yndib2qWdgzFsr6V5S5axiuhyJkUuLw84LspjjFDVYjnHwhYIDQ4gV7GuPBhvtBe2LZuuzWvEsN+LuU4Z4QhwzY5AAwsFQO0J0TcS2Vo0e2Jt/2W1lOd+1F6U+8ny4iEYmL1CaBNIGVpa+g1oFPXwrNARK9mzDCcouE4M8ITPZxEOIqsFLK8veXXcTWvlKfawsnzNLBn+6fWWJ6pqjMeOhlMg3mMibVn7Lzo/Sb/AAsMf7p3yUsGyY50hB2hFS1PeJTBSZ3jAKlu+iyLwlNKwaPAyLDMlxc72F9CDKaFT84+ELDHjE4+F3BhqsL93QLCc7rcllib8Y+EcH+L9QUrMZKYoMtagVNUz1cr1i2Z8Hss0lA8jaN3yac/HwYLpf6k6w141ieqatl9nhY8HzjBlJ4MN1Tvkmg0bbtopWF7YqzHfeaAb689C/Tzb61/580Xlgc9k0dCRoCp+z4QojyTN+fBgjXZOGZmcanRYTpHuWJ/D8ITGVDcxAqdAp4JKZ45RWl6eSfmnkjNciii6t6nLfBu3rK5202lC4B/t5qJzHs2R1y10BusJ0v9SZbNqsT1TUefgwnVH6VHb+rF+xTxMGZ7piANPvomaPJlAJr7U8NEnnY8xB3aVtVS/h+EJvXMp7+DBZGB53rHj0WEr5WY9yxP4fhUVPWavCPXDXmapMhDXV1Oii9rXqd7/tO02zq5LMO//CyRMldUgND7uWGBFCJKEG1LuTb5dVieqanc/BhOqP0pvrFo9vEpwwEuMpoB00c7HNaNajRSml9tDU/iUnM3uCceSaKl6U328GCrXLU6cywXS+Sn5m/CEwkVAIJ5ljwIzE0SijHihG6xPGTPcW5VFbLuutyLEj+kdgKyDY5a2zut8+1QkYgYl7i3xj2a25P2UdaV2ztBQeU5NpTtU/VBO5+DCdUfpTfWpZYksOV4lJBHFvBUlmc8UpvmtlTOABPHQUFXGvv5FJ2dylr68Z/zt4MIQ/K7aEVPFZYS+be15bKXmb3Ic/EsfYAlzSRybrU8kltxcaqL73i3dtli+tco6xmXebuesqbPYAYg+L9UZym7hfelAp+qHenc6ivSjXnTXdWC6r5NUW5m3RU8llO9mrZSRUceYIsfs7jKcjACRWqnNsu1grb+2n9ilhLyy7X1H9k1+XBgoImZ3vmIA0+6sMwjLlloRyFSlksbAGiu1fTiUZfLHK11/EurQLH5AWgFtntofJb/AN9qfbNcWF6qI0y7rrcYspzLNIyXavzgMqByfJYYMe93jr1FN23+6f15pan316typeqHepOcpmQFzy12WhpQ0WA6r5NTLjLlWL6w/EODE1GssABpfy0/s7k/olNWGLH5Hiaz9KbpWGNc3jBflT+izu4MXnOZxa0ghtBSifU5G2vxqK+bddc6mynl20EeeV9nvoRT/n7qAiVgdtsoMZqRSl/3QLCXM2xIL9TvLQuuVJ1Q71JzlRMzvbUOG4aE2WEFNI6a14gm24teRYvrD8Q4Jy5jc7XRlryNN79keYJ/NwYa2fx+nLuuWGtk8aLcid0G8GLpV1I2i7cpNtU+lM1tdFFXysrtNNAsS9kL3skldlIGtNe4+5RPewtG1DL+sFP7Jz7fvq5y3Omqf1Q70/pFQbKLay3yjNS9FgD/AHQ+EJp5AFi+ke8cEtCBG18RcMla74GvFxLsCdzcEVTTx2o5MrlhqEubtRRf4TeDFsPlMhjB9pyJ9QXaWCioMu663JZYtoe7KJXUFdFFtZDGzOHEm9FK8EODpiQRxjOu0p3VD4k/pFRyyvDGsBNSKgmiwHVDXoBD1iBRY3pH5cDmCGR7pJY/GBtWgB1TzI83B2prLWmaRXTRywxNPON00TeqaoIjXK57WmnJVTsi0ka4k5s1VfybFRczu5TxMkpHHK/KKA0r/wBrDwT0lifI95YW1GYjVOiYA1oLCKNoOJP9hTuq+pP6RU7JYxJ4uoq0Op701g0YXAWorjNSqxvSPy4JyQXZHEgitl2KeaK72NJFRVVWmbxgt71hrFvjG2KZ1Q7ysP1re9UILXbJ3arDM7LZRV8qh000WL6ZWE5zxV4lLXiLdOPRPq8sbmGgundV9Sk6RU98vijfkVxldmdUaKOpOapoBosfzn6eDEi2YOdSvN/z3odAKW2bdNlLTdfG4iRnLyOTr/1jbqC5dSRt0zqh3lQPOHIaHNcSSBZOsxtGuG5aqoeNqYB5IBU8LKAySkAlMxWfMIwTuNdxjlTjOHtcctM9tCE/nBTur+pSQZ9nUvNaV0UrwXveQG8Tcp96aJfLrU3qbhO5ysfzn6VK2WtQQG72UaEpsUE0LGXcau40PvbvzVFPjcHhWxYlpaA8uLrE+0p88Ry+MbmZxtdZRdY1NlfiNlRuSlK/P2prKQZhXfealOZWBjaGzDqbpvRTS85W0NzzL7Vd0+bPUFxumgPmygUFIeL3Jw2U8r7AEx0oKpxOHnyvuDsnUKdL9knc3KRuREmtVtYPA84ea1eIaKv2DGOdyk0TK+D5m31fICSnRHBF/GCxzSO9OAwTLurUzNFFeHDNHtlqrvwbPzFZnYzD10tGeAslYJGHVjxUFOgMDImkg1iFCCt+KSXpyL0IHncVbwfD2iq3cBB+QLIcHAWVrTZjVbmEhZzRhWhjH4QrMA7P/J//xAAoEAABAwIFBAMBAQEAAAAAAAABABEhMfAQQVFhcYGRobHB0eHxIDD/2gAIAQEAAT8h/wCTp0/+XwdOnXRHlA37wS+Xr1Jefj/QvvcS+bwhZP5eOqP1KYpOZIuRuSV3vP8AJR+M/wBfCsbdQjfh2Vv84V/CZgSjdu4BXO+MFfZsN4X1M7NUngJ4F0cdjKtfdJtu2PRVj6dJk4L/AIQtZfiw4ksN1/Q/Tr5m9TRdLprTBjhfAYxqC7QuDFqDy+A9mPa6Dd4PmW/iu2j4gelyC8hx7xHP81NWh3XB+pg4qGwldAUcHUD0v1/6Q+jvpDTJyLUARHVdAOhEeMCzxY8K2a1pm2AHeu66WYRhp477Fs+bjREH4yIOFuzVNnarPIS/QnZQik56DU3MLQ17UBCNiz9VZcYFLalA/RUz+Ww7mTd9iFdcEH5VhytqSxgudkO1ogPyTwqp79lRiKs7mogiuF7+J4Dzg2jku4iqst6I8QmIFXADO+ckZ0+OlDg8AuFaGdQDA2McqAAgBqLqO+hwC4zD+V3bmQWHQFlHO464KXYw3fZfW3bjJGoh9lCTnktZrhIAwNmGwplh3RCCHpnY8sipVnkplSAcngaArWnewYS2cOFXrMVYmK6J97+xzIgliNsLVo/yjA+zb+yszacDAE4UaQz+DtDGwFYrNBspiGJBncQQDyMNvullsRhR/NLonDGWOXZHBHzZwenRu64nvBJJVU8lxEcMDwHSEqhHIILGuVN1CKOrd04D5wOhvRAQHk+cJo9xAGbaOQs5Zz2XUdxh8EC2YOxP2vGBOHMmZmIAJZwABKjPhcjbTAAHBORCv90u8k/xXTXGrOUS6lhVF245Gqy96HMQKGZBWx0dpQvJd2OUl6MpHVWPRBPB7toVPgWtlsQfJWo0VxZODQPBE513N7jPgXd5chBByPsualGwIipWd/6yV6Zq2arznvCyaJZGCNNvKzt+joUWkymcSAZ3BHRH1nmlA7vrXKMIWttQyCyrWmB7rjT9Kz5qCQ6W/AM0I9jlZmfAAUBIbRsmgUFnS/FZ1ALU36lUPGZc+1V1vqxCkgQSzOYy0Oh3HqgQCARhvZma857wWzQlZhC5DrLFVEL9YYXAfOZ6o9/6SMLGgBi0g8jsXrUP+YbCs+DvdWbhV80q6OteWi8OQZBLO2jar9fjKyKKszNGPJ8lShroxXR9GRgREOBEOrzfPBnzvtfZPAG2rVWrWX85Iflam+VAgjlBMhNOGKCJejVl10PAz7weN9GXieiG28x0W9YdcLqGNUNTQQ7rsPqjBlA+/J05W8jJa3T3AxzAyMdMiHFXdl4gk1aiDqqf7cYv4dS4UZ1nsCWAvL5snK23xRhIGJfNwF8LGYHYa1X4RpucDNq1VCOjSMyCKOOtRhSNvYHxjw6005YPOeeXiehWbTCe594D5Y3xehO0+a8hy4gzGcK3lK/jrMreFBQLuGikasWbeW8UQDBojIwj3H2qyYE9ArsUwxtWq1aEEjDjKFZelK/VckY2EdHNHILEmrUS7VobMyXmvWMfizyaEFlkgnU3TyzdwxdzXZX8pwPVav8AY4MNhUTKmUagLT7ovw7uCvKv4mw5smqLlG9YdDkDk04JCzY2E0FU/wBvOEDdTpqymK856QS5/HXA+C05QC9flBAkag1iJVnzK/K6scrMKgGcZWptq1CWGcDdSf3WzBmeaaqzthhbtU5AQpwgAsCwJNWOFEsqAIV21wUKaBwAT0F56VTq24y/TvVd8D8rxqVuGmjgB9oZTqOIEVFKmELUtDeVdNK1/cOBeomquqbIYG4XbmYFdk1jkuYlQRnlGchXenDFm1Ww9lh8ibILxTiA1MqUyVlp3V61QLaHysOgIyEGsUkjxayNvUcbOFd7qrqLJ/TxoFodzlX0XgiWnuelFd5MrmIfrC18K8s1fyeVBzQL6dqHTCC5alW4pfiHlXclkwbSgpQL73DZ6YUAFsfkvW7AhzAIcMzNcIWyQVuWqUGDkCR+PdpIr5X6fScDKq30uAddFZJoIupV39F/C6LJO4mV170UgGEVd9l0sogvr9xqQe6CYNHC3xbFNjNYyzXAVSoy2cvrOIFDN0Q6sljoyroWs1AF3HbKFlNGX3YQOs8HMQRJBpDVyXsciAHjyGOavmpWkC6oJLuQ8MloN0JGjwuJPEAzM6mFe8L2Bw66ZbG5gGWpYropNVB2VbLrMH/a4JpQfZcgMoGnCpg8M5rUgqzhmq7BxAaXbyt8l1B4Mtws/AAMA7Id7m9MJkFQgDIfeFH7YdAUyyQ0ZSg3PdZ6dz45V+91XudexXzxva25uzI7NovHTPhDwt+pegt/oBH+h//aAAwDAQACAAMAAAAQk/8A/wC0lW0kFuBY2oQkEAM3IXbbZLtbaTeSUvoWxa/eZuQPQUNzbnKWvUdSELx93BUoEbnom5bQQSaSbha35IDS7YSV3JnbbLCsFCVmalLJ0GWxCZmUXJK3YKTCb2SHZKnKQLQfhanbYEaOJANzK1ZLyi6rAX7YoARDV6BaHpKqATbXcJbX0SnKCSCCSBK+AnaCQQSCCASASAAAAAAT/8QAHhEBAQADAQEAAwEAAAAAAAAAAQAQESAxITBAQVH/2gAIAQMBAT8Q4N27dvJu3yG7du3bt8u7du3n3b5/du3bt2/0TENifkD1y2rWdJOUjkiZ7IwfYwRyRM9kGDGCO5nJGdfzf5nJE9TOSM/X7eEvTwR1nnGH5xAmLkjnemMPC0YOSOWec9jyedwfYjlnnPY8nH3eeD7ETOXzhl/JFQhx6FpS1r5wRM5fJzmNxDL8IIGfeCJnB0MajPa5KrTe23wvBEzg7G+SXqMHT5PifyJ6Ms/jWeSMs/t//8QAHhEAAgMBAQEAAwAAAAAAAAAAAAEQETEgITBAQVH/2gAIAQIBAT8QioUVJRU0UUVzRU0oUUVCipooor5BfVC6aG4X02lvCLS184ND9FrRCGhV15LJU9HLlsedT7LkhKkuMGhLGghDuiiSyWr+hyj0z2qUEj3nBqD+L431wag5orljnfXMjlC5Y+DIKcyOULljEM0KYhd76EIXLHOhCFFZzVoQhcsc6EIUVnGcfvpDh+ToUVnGcZ24cY4aFFZzGYoUsYliVvOIQ4z0NC4YgSs51CnBfBljYhdOULnRjYyyxC5Y5Qvy/wD/xAAnEAABAwIGAgIDAQAAAAAAAAABABEgITEQQVFhcfAwgaHxQJGxwf/aAAgBAQABPxDBgmEWCYJmiZomaJgmCYJgmaYM0TNEzRAeSliACYrcqTdtElNlnCiRxOcqAglyMyqYVyAHGFiUUgmgDqZcIAhCWZkBwEEqz3FcQUMAkAtxwfjIxNMlvQYgJHVAAsioUZBUAcdAIqIQo2JoggthUCNXAw4jtYrY8KBtRCDldhlQhiAQDNQB9psRoX1AgFkMiZcaoRKwjC+YUQUkYwgGSZrc4gM/BwCgFUTIjAehx/NkR3rzygq0wNidSzfVmn4B00w+iAAqgGPxSUyMhHXiJ0yBDeLtqZSeEZC3kYAnmiQEwIaGu0voANqogTi6iA7nmw8UEVCUYRkMk3aDO3BaAQEGYYeFADpGwdhAGwb+aADNNEDY13kvwHhSGEARBVsfQPLIoAjFdIKyjSsFg34qZkYF4FOCUFxRnmEID7XaMgcV46mNbIMCOEMgA3xyWFiuxCw5CWjBAgP0PxCDgEgBA6jlNvwiYCqs1uAqoLRZxFNNnUbqAghblnuAAKAi6o0GJRY3Eh85O7LxAEkgAQKFBIGFA5+FygUHbERJF2FEAhPEpTjbriEACRqVWw4BSBt7ugoawKSUAZS7FL0A7g9A2Qd61nABE+Awdl8DFQCITjWGNiwABZhUwIGg3blCUI53UrLHnWakkAAP7YbEwQJEBtgj0ocAJBs71MoRi8vkAC8hIMXC2wHw4eAUACxkKASXQr9EPSCR4hXHLMBmoLkodAHDFJF32IB0WlHuK8MDgGPCYARtC01CM4SAPJWG4yQAKpZWKQAAHQbgKZlCtstNIFel2OmRC3KAWTMQWA6JBoAMmMDLwz1CvoJFxiEXI5TB0miMYCREAPwmEZtHJstAH8gLEYBG/wCSJC8FLJjmyFjgwhiQ1Qb1kuFnCABMPg5Bx5f7RkgEQAHBrExY1bxK2MyAaCoA1TOu1qnyyYlABdkqA7TK4pMwDomUToeEDFtIPxRFCYC8MsBmO3yEGs4XggVBiYoa40UkEXFHwDAFMSl8MefJaEYBvr/qr3EjYBipilsfvYWTO2LMBUEZqMfASMECR3BAEgaKChNmAJUNm87DEigZpkCsVOJqILQAFUd6lNpCzQaAqCHEGyn/AH3mQuJACxzUpKmNHB9C0bJQADCAEsq0x9VxyitQAI63dferGncZ4IEMGBjOcqahBABAkVkuWy28yjf8JzEwDKDEFgaZMBV3vUCT3BACmHRp6zFMJLFsWQfyyWyWy19oZtaHAg9fKJCCVBVgc4LDNKAIONAqYwNmUl8BKCcUhCyZEAjhQhMDgByddHAKBB5UUcdeGUcAGB+eVo9JOFKcnPdhT/RyIXMLkMHABoZEoHVICswG+Uu9CTrIAhdYd+jCDfagC5LkuS5Lkn1yXJcsf//Z" parent="1" vertex="1">
          <mxGeometry x="261.97" y="765" width="84.87" height="75" as="geometry" />
        </mxCell>
        <mxCell id="nHwe-JYxMAztrHhhpzCX-20" value="DCN01" style="text;html=1;align=center;verticalAlign=middle;whiteSpace=wrap;rounded=0;fillColor=none;" parent="1" vertex="1">
          <mxGeometry x="225" y="740" width="49.08" height="35" as="geometry" />
        </mxCell>
        <mxCell id="nHwe-JYxMAztrHhhpzCX-21" value="" style="shape=image;verticalLabelPosition=bottom;verticalAlign=top;imageAspect=0;aspect=fixed;image=data:image/jpeg,/9j/4AAQSkZJRgABAQEBLAEsAAD/4S+gRXhpZgAASUkqAAgAAAAHABIBAwABAAAAAQAAABoBBQABAAAAYgAAABsBBQABAAAAagAAACgBAwABAAAAAgAAADEBAgANAAAAcgAAADIBAgAUAAAAgAAAAGmHBAABAAAAlAAAAKYAAAAsAQAAAQAAACwBAAABAAAAR0lNUCAyLjEwLjMwAAAyMDIyOjA1OjI2IDExOjE2OjUxAAEAAaADAAEAAAABAAAAAAAAAAkA/gAEAAEAAAABAAAAAAEEAAEAAAAAAQAAAQEEAAEAAADiAAAAAgEDAAMAAAAYAQAAAwEDAAEAAAAGAAAABgEDAAEAAAAGAAAAFQEDAAEAAAADAAAAAQIEAAEAAAAeAQAAAgIEAAEAAAB6LgAAAAAAAAgACAAIAP/Y/+AAEEpGSUYAAQEAAAEAAQAA/9sAQwAIBgYHBgUIBwcHCQkICgwUDQwLCwwZEhMPFB0aHx4dGhwcICQuJyAiLCMcHCg3KSwwMTQ0NB8nOT04MjwuMzQy/9sAQwEJCQkMCwwYDQ0YMiEcITIyMjIyMjIyMjIyMjIyMjIyMjIyMjIyMjIyMjIyMjIyMjIyMjIyMjIyMjIyMjIyMjIy/8AAEQgA4gEAAwEiAAIRAQMRAf/EAB8AAAEFAQEBAQEBAAAAAAAAAAABAgMEBQYHCAkKC//EALUQAAIBAwMCBAMFBQQEAAABfQECAwAEEQUSITFBBhNRYQcicRQygZGhCCNCscEVUtHwJDNicoIJChYXGBkaJSYnKCkqNDU2Nzg5OkNERUZHSElKU1RVVldYWVpjZGVmZ2hpanN0dXZ3eHl6g4SFhoeIiYqSk5SVlpeYmZqio6Slpqeoqaqys7S1tre4ubrCw8TFxsfIycrS09TV1tfY2drh4uPk5ebn6Onq8fLz9PX29/j5+v/EAB8BAAMBAQEBAQEBAQEAAAAAAAABAgMEBQYHCAkKC//EALURAAIBAgQEAwQHBQQEAAECdwABAgMRBAUhMQYSQVEHYXETIjKBCBRCkaGxwQkjM1LwFWJy0QoWJDThJfEXGBkaJicoKSo1Njc4OTpDREVGR0hJSlNUVVZXWFlaY2RlZmdoaWpzdHV2d3h5eoKDhIWGh4iJipKTlJWWl5iZmqKjpKWmp6ipqrKztLW2t7i5usLDxMXGx8jJytLT1NXW19jZ2uLj5OXm5+jp6vLz9PX29/j5+v/aAAwDAQACEQMRAD8A9/opu/pkdaAxycqaAHUlJuHvSb+cBT9e1ADsUUgPt+VGaVgsOoppbHp+dJvGadhXH0U0Pk4Apd2BzxRYLi0UzfnoMigyAdSB+NKwXHUYqFrqFDhpEB/3qPtUAGTKgH+9TsOxNRxVQ6nYq203cAJ4wZBQ2o2ajJuoAPeQUBsW+KOKzhrml5wdQtQfQzLn+dB1zSgf+QjaD6zL/jQK5o8UVmN4g0dfvapZj6zr/jUZ8UaGvXVrL8J1/wAadh2NfFGKxD4u0EHH9qWv/f1f8aaPGOgknGpW/H/TVf8AGlYLG7igVzx8b+HlJVtUtlYdjKo/rTf+E78OA86nb/XzFx/OiwWOkxScVzh8d+HRydTt/wAJV/xo/wCE68OEZOpwD6yL/jQK50dFcy3j/wAMr11SD8JF/wAaB4/8NkZGpQn/AIGv+NA7nTUcVzX/AAnnh8rkXyN/usD/AFqFviL4bQ4a+UH0OP8AGgVzq+KOK5P/AIWN4aBwb7H1A/xo/wCFi+G/+fw49cD/ABphc2Nbnmt9FvJYm2ypHuVq8Th8e+IDbQu16ytIofKopHIz3Fe1eIU36HeL6xt/Kvn2yt/Ms4BnBESj9BUt2Gbw8beIZeups3ssaf4U5fGHiR4yItXLL6GJP/iawo42hnZgvl994qpc6zcaZapJcxear4KnOT9PwoUhNG+3inxISd2qy/QRpx/47ULeIvEbnP8AaU7f8AT/AArn5vFm+NXVJlBIDhzwR9MU8eOLGLsc9FCZXH5iqFZm6PEHiCT/AJfZ/wAl/wAKbJqmuSYV7udye2cfyrn/APhO4v76f8CBzR/wnUZHyzbSDnHNO4WN7+1NXZfL+1Tj239Poev509brVQuDe3BH++a5dvGqZHyq5HJ4NEnjaF5EYB0IGMA8Y9KQ7HTJc35BxqF117SGkLaq5+W5um/7a/8A165e78TymESxQ7Fx90HAPPepIfE088JP2WZM9PLbHXvQFjdkXVN37yS5z/11P+NPWLVGH3rlh/12P+Nc+fGC26r5kUxkXj525/lUT+NV2psSZfl5G7vTuKzOlNtqJBys/wBfM/8Ar0q2WpFek5X/AGpf/r1y3/Cat6TD/gVIfGUjfx3P/fz/AOtSYWZ0z2d0sZJSQH/f4/nmmJaXJUkrIB7P/ia5h/Faup85Jn28gl+akTxA88BeONxjgB2zQGp0YsLl/uox/wB5/wD69H9l3f8AzyH/AH1XN2eu3zBk2LMpP3mU/lU82uT2aO4iCKBkonAB9RTuKzN7+ybrGSVA+tSf2fdxAFCh/GuUPjFvLUFZBnvnk0z/AIS4+kv/AH1Rcdmdn9hunXEtvE/481G+jrtL7lRh0BPArjX8Vu3AEv8A31QvilxwyyEejNxRcLM6o6XJ/EyH0INOGjylcmePPof/ANVczb+JGumaOCLyyV65qOPW9SjuHWKYScAlGBwMcetKwWOn/smXOGmh29+v+FTDSG2fLPB+v+Fc5Jqt1bzeYFgX2Cnnj61UPjG7Vc7IjuXHIP6c0NCOtXTpk4WeIsPTP+FT/ZrgxlJZYNp64Hzfyrhh4tuiOYUz/tdaafFF03/LGIfUf/XoGdk9jEoIE8Sx++dx/SqzwxRnDs6e7DP8q5b/AISm7XpFB+R/xqW38T3sswWNo4ifvFf/ANdOw7H1nqi+bpl0oHIjcfpXgNkAtsq9dvykfSveNdmlt9DvJIhlxEeBzntXgulO8unRPIuHZQzfU1EiidwChUjjFc5rqsukW4YDC4wcZ54ya6dl4NYXiRSdGgQ/56VERo5B3MiCLflc9cVb8L6VZarqF8l3B5ixgFRuIx+VU8BXAHtWz4F41TUj7LWqC5s/8IroUYHm26x7gSN0jf40g8MeHgvCRZPfzm4/WuT8X/brjXZAqzeUqnaY1YjqfT8KwEtNQBAeK7XPTKNz9KBXPTj4a8OknEaemfNb/GkuvCmhpayNFa7dsZbcJGOTjqOa51fDml/ZLcPqd2LiRRuUBsA+v3eBXUaLGYtEltvNaUQhlWRxg4yc9hQC1OEuCGslGScEj9TU9rI4hQB2B4GQcdKguQRb89Nxx+ZqW24jTPsaB2ILpPOu7dZDuDOc12j+EtEj3GVCiKBljKwH864+b/j9tf8AfNdV48W5OjqlqJHLzBXWNCxIxnt74oC41/D/AIZUnE8RAOP9e3X86X+wvC6KCZ4m9hOSf5158NN1Mxsy2N3tX7xMbcZ6Vs6Fo0LwSyaml8hHSNYWy3/jpoC518Hhrw7dRs0ISZQRu2TMSPTvWDq2nwaffzwW25UCqwBJPUe9aHhyzgstWU2i3Xlyo28SxlQODjqBzUPiFj/acwxxsXn8KBXMOyZyzgs2M4IBxTr5zJayg52qox8xNFkAGfP97+lLdD/RJ8ei/wBaAsdPYeE9LnsIJpY3eR0/vsO/1qceDdJPPkMB7yN/jTp5pIfCRkizvWBiuBk5rzQvqkshYx3TE+itQGx6SPB+jcFYnI7nzGwP1pT4O0l3wLeQgct+8bgfnXC6Lp89/PJHdz3NvHt4Y7gQT3+gro7Kzjsb+2mtNQuZVYlGjccd/wDZ9s0BcTWNHtNKvrZbJCgePJ+Yn19TWJHzfPgkYUjg47iuq8V/8fdkV4PIP5VyyYF8/wBDTQNFtiZM5bb1yevatjRfDGmXWh2V1PEzySpubLtxwD61jL8udw7n+VdNp8k6+BlkhXMotCFA/wBztQ9RLQG8M+HUYb9gPfM7cfrQND8Mocfut2OP37f415w1lq087AWl2ztzyjCtDSNKuLq8QX1vdRRDOSIX9PoaQ7neR6L4dk+WKOKZ/wC5HKSf51ma9pVlYw2z21uI2afB5J42nj9KpQWNpazpPZQagk8TER74W5IPDH5cY4z+NbnioH7NZ7s588Zz/uNVCPo3W2MGjXMq9UjY/mMV4XpuWsI2PVxv/PmvdtaBbR7tcZBhb+VeIWAAsYRjogH6VjIaJCvFYPiSIHSI0LYy4G7sMkV0ZXg1z/idB/YCEHc2c8fhUIo53W9Kh0s24hvI7kSIGITHyHA64J9aPBQzql4P9laxoprmYMbkYVThT7VteDfl1e8C8javJrSKsIt6pqOtLq1zb6dZxvBAhYs8DY4J446nj8arXOseJorBLy4trBIYwQHaM5U/3cf3iOQM9KzPFOqXOm+JZXtriRQ8Y3Lng5J7dPxrGn8SalLaPam6ZonBUqVGMH8Ovv1FaIk0D431F8kR2SnAH+qxn9f1rsfDGoz6ro0010F3Nlf3a8dSP6V5OHwTwMHtXpfgRt3h6XI/ix192okla7A5y6bNthdvyyMuNvbJrrfDDeHV0iZNXQPcNEPKf0GDXJzRkK5VsDe3GOvJqWKJ5IbdoW/dgAt9D2rKpTU18VikMmVDqkBXlPNcLn+7k4/TFdh4omvlgtY9PmEVxPMVzvKjAUnnH0rkJMC4ts9RIf611vii2W6isbeSf7LGbhiZ92Cp8tsc/kPxq4bAzGiHiyGKeE6jExdUY5mYnHPT3rnrnxF4htbloG1C4DDriRsfzp+safeaVFDcJqn2gSZDGOVjtxjHX61z8sskpzI5ZvU9aZJ2/g7XNTv9Z+z3V5NPHtY7HYkdDV3xDHjUrkIesSkD04rC8AMf+EhA7bG/ka3/ABHxqsxH/PMfyoGUPDctlb6sk+owefaqx8yM9D8uB2PtSa69pLcX72MPk2rNmNPRcnFUYEL+btOMn8+lPnjMdpOpOTgf1qIQ97mYHXmaS38JJNEqNIkZKhxlSeeorn7nW/EOjxx3lxp1okEwKo/2VthJB6HOK3ZkZ/BoRWCsYmAY9utcrrGla9/Zpury9FzZR4Kop4GTgYGAO9WndiKr+NtTUgGCyyB/zy/+vVzRPFl9fazbW00Nqsbk5KR4PQnrmuOkbc2SPatLw1/yMVn/ALx/9BNNgeg+LPmurI+zfyrl4di6iJJBuRDkp/eFdR4n4nsv+BD9K5VFL3cq52nsaVrqw0b+v6hZ6lfrLY2kdtAFIwgHXB9hWjp0jxeCoGjIV0t9yHtuCjH61zARY3G7q2eAeOldFA2z4fkbckWp6H0TrShDk0GzEvL/AMVaXAt9JdwbG6FZGz0+vtWFN4s1xSQmqXAAJ+5IwH86zWnubiNY3lmkXOQrOSPyzVY439TjFUQb9j4o1qe9t45dXvApbDEynBruvFI/0K06f68dP9w159o+jz3Ua3kMkWyNwWBJ3d+2Mdq9B8T7jZWmQP8AXD/0A0FI+k7/AP5Bt0D/AM82/lXiNpHtgX6V7jfLu0+4HrG38q8TtxlCP7pK/lWMhIdt+U1geIy6+Ho8YyTxkY9K6TbxVDxNHFJ4NmQx/vYgm1sdMsBUx3KPK41uF3m4GF6qK2/CQH9vXm3hdo4/CsRI5oy6zS7/AE56Vt+FR/xP5/8AcH8jW/QLmB48UDxE2P8Ankv82rmD7V1Hj0f8VF/2xX+bVzUYB6jdntnFMkZg5r07wGMeHpc8fP8A1avPLO0nvZhFbxNNIAWIUdABmvSPBNvPb6XPHcQMjZU/P0w2SD7ZFDA5y5GYHGBgu3Pfqa6jwx4gtdL8Mz2U1szyyJtDH+EkY/rXO3C4jbPQyHafxqZmihjeKTmRmyDWdSnGotUNFOZd11bt/wBND/Wut8WrYy21mupytHY+efMZASR8h29Af4sdq5KT/X2n/XT/ABrqPGMlrHaWzXyF7UT5dASM/KfSqSsNnGalZ6HBpjG2vpXuiQyRspwyZ4PTA4rnSCegrrpL/wAOH7sbRDynAj2bsg42jJ6fWuVmwHbyxtG7KjdkgUyTo/APHiIZ4+Rv5Gui8RgnVZcdfLH8q5zwLn/hIlznPltnP0NdJ4h41Zv+ua/yoA5+GAqriQlRnOfWpLhVFrcbTkHB/nViYr9li3DOBz+dQT4FpMAO3P1qnsM6m6GfBRHHMLdfxry5LlxEY95WNgAw+hr1G8/5Ec/9cH/rXkvZqSExZMbjhgc85ArT8Nf8jFZ/7x/9BNZJrT8PHGvWn+8f5GgD0XxR/r7P6t/KuZS2LNcT5wACn5//AKq6nxSN01r/ALzfyrAh2rbXKsMgyL/I0kNWW5EPJy/lEkMDye3FdFYqg8DhZWIj+zNuYdcba52FQQHQcc/yrobZtvgGRmIGbVsDH+xTvcG09jkri38LmGRrS+m3mP5VKsPn4/2enWsK/Nqbl/sTs8OMjd1z+lQLuy2QMAdCMUGLZ8rqAT3JoEdf4XDy+GtSUL9xlO9VJwMEnNdV4jYnT7XIwRMP/QDXJ+HJreHR5xHfeVcvwYA/EnUZZc9B06c5rrPEeG023K9POHfP8JpgfS9x81nMO+xh+leKwxhXmGefOkB/BjXtMo/0WZhzlWP6V45Ep8y4YgjNxKf/AB41jIEKVwKr+J7cL4QvJCcK6oPp8wq6w4qHxRk+DrkKcEqn8xUR3KZ45HbCBGLz+YW5Hr+Na/hZiPEE+R/AP5GsmKzCNK/2gSFucelbHhgZ8QTg8fIP61v0EYXj4Y8R/WAfzNcujFTkdhmuo8f/APIxj/rgP5muWH8XPamSbPhdsa/aHD/ewcHqPSvTLCT/AIm2olZN3KAKB0HPyn6dK8w8N7I9dtZGYIFbO7cBjHevUrLDajqLb8q/luGWQMDkE5470ykcdcrhZlwP9aT9KjlWN5EaVyHJGKluCqrLtGWMhyagnSAtE1wcMpG3PrRYIgyqZ7bJPEn+NdX4muPsaWd2sAuGjnYCE/xZjYfpnP4Vy0iD/RiCD+87fjXVeJTPENPeyiEt0J2KLjOf3bZ6e2TUjZzMPiOTyPIXSGLAfe2/MR6Yz2rndfvDqWpTXHkmJiVzHjG3Cgf0reuNQ8QfaraVLII4yqvEjFSWIxk/hXO6ybs6ncC6GybK71I2nO0djQSangTjxEvP8DfyrqfECE6oc94x0+lYnhXS7jTtatJpjCVlhJCo2SOO/vW5r4QawxVz/qhx6cCgDJbatvEG57VBclXs5mUY+WrDFRDHuGar3BBsptoxx0qmNHUXI3eCDn/ng/8AWvJe31r1qf8A5Eg/9cH/AJmvJewpIGMrS0D/AJDtp/vH+RrNrS0D/kOWn+8f5GhiPS/EoxLan/ab+VYUK7kmOMkyqMduhrd8SjMlr/vN/KsC2kZPtABb7wIAPtQthq19QKiKNVXBzk459K27NzH4I3AfctmO3/gNYRleRtwQ8Z6n2roLZS/gkxx43tbMP/HKSLqKN/dOOuPFi3Nm8D6bEuU27wTn69ax9Tv2v74Tqip8u0Kv4/41bl8LapHE8/kF40TezYOMVn6hZPp9wYJdpJUMpHpn/wCtTMzqfDFoF8O6rO8Icbcq2eRhTmuq8R7hpUBbkiUf+gmuZ8OSA+FNRV2UBVyqseTwfu10viPcdIhyCD5o4PX7ppgfTEihkkBBMZXkCvGrfDXGoBFdUW+uAu45P+savZ2BO76V41bxGO/1XPU6hcnn/rq1ZSBE4WofE6/8UhcgdPLXn8atBag8RfvPClygUgCPnNZLco8Xt40jdtj7srk+1a/ho58Ry+6f0NZMX2ZJHERYvs5z07Vq+HV2eI3A6hcfoa6OgkYvxBH/ABUEf/XBf5muVXhjzXWfELjXYj/0xUfqa5MMQQRTEaugG2XWrU3Aj8sNyXcqAf6/TvXp2lJbC+1D7LLDPCTGxeKQsASDkH0I7jtXlOkkLq1opUN+/Tn8Rx9K9bs0Kaper5UcOUib5emMHnrQM5K5UgzErhd5xVa7mgRoTMm4HkVeuQoacdzJmqc8kcIi8yMv8gxx0poljiVMkDKMJ5g4/A11HiOO7dLEafIFvGlcR57Dy2J/TNc02PNgYcLvXj8DWz47nltdIgkjIV0n+Uj3XH9TUjRzrWHiSK2gd7yJbfepR9xwCCMdqytetNQttblXUWje7wpkI6Y2jB6emKzDeTk4aViobOPSl8ySaUkksy/NljyfSgD0XT0u/wC0tKWWzSKIQnbLE+/fx1yQKd4iUf2o3TGwc9D0pulpdz3ek31xFCBJEygIjKfu5yST70viIKNU+Ukjy+c/QUAY8rMqjau6o5WZ7SQsu07elTyAhAFzuPSo5Q/2WTzPvbTTY0zpJR/xQzf9cW/ma8l7CvW5P+RHI9YX/ma8jz0oQSG4rR0LjW7X/e/oapIoPGfwrqPDWk201i+ptJL9ogn2KgI24wOvHv602Sdp4j4a1/3nH6Vz1rjzpB7iuh8S9bY/7bH9K56BPlncH5w4GO3IpJXRalFMfMFjkAUZBzkD6Vs2hZPAr5wGFvJj1+7WCgkXcxIyM9PXFb9mA3g1y2Axgc5PrtqErFTaex50uuaiIZIxezEMMOjNxj/OKpTzTXcgeU5YLtGfSukfQdGmjnaDVWacJuWEqRg8dTjGKxdTtrS2uoks7s3ETRAtIVIw2TxyB7fnVmRu6HJdT+HLqBJI/IgOWBQbiDknnGc12Guj/iVQZOf3g5/4Ca4/w9++8PanFJdmNYkJEYXIbgkg8V2mvZbTIt4wQwP6Uxn0rIdqsQMnFePRyCTVdWA6C9m/9DavYdoOeo4xzXlt1oT6LqV7vlD/AGq5knHPQMxYD9aykCGKtM11gfCl+pUf6vGfpUyijV12+GtQyBjyunoazW5TPCYHgw6rHiRlOSRWtoHy+InB6lePyNVBAAgkMTDeOHI4P0q5oBDeJstxgEf+Omtk+wkY3xCBOtxEA48kfzrkijcgqeBk8dBXdeObKa61aBbVWlbylxjH+ea59fDesujGOykOOT8y8D35qhFHSQf7XtQm0Ayr984HWvXbQIt7cJvVmZI9zI25eAcKDXllhZG21uC1viLZ45Rv3nhenUivVLKWF9UnW2eM/u41ypJBwME8+tDA5S5UedOOAA/XPtVe8dokhAj3KUGTirl3xJNmM4D/AJVFNNHBHG0pyvljimhMiYjzID0G9cD8K0/iGrLoiZ5/fg/Tis9/meJlX5C6ke3Fb3im2TUYLSyknWFZJjmR+gIUn09qkpbHkozv4Gee9SoH8wndnjGev5V0Unhq2L3JGpQ+XEQvU5ZiT049qypbGOPTmmF0DMtx5Xlj+7tJ3dKBHaaDb6gsOlS3F+Zo23GOEyFtoK+pPp2xV3xDtGrRleQ0JBGOmMZzT9PikttL0RQ6p5i5C9TnaOabrwH9oxsOf3Z3Z9sUAYrCRrRghw+eGPao3SVLN1lcO+w5IPtU4YG3O1lX5qZLkwz5YN8p5FNoSOgk58Ef9sX/AJmvJPSvXCP+KKP/AFxf+ZryIdaENkiHtx257133hzb/AMIfMFjCus43sOp6df0rgI13Kf6da7LRbtB4eWGF7gEzgSgquwn69emKGB1XiIZNvnp5jfyFYUS/69VPJdT+ldB4jHy23++38hWBGHDTbR3B/SiLE7XK1rBJCCWkDliTgnpxXQ23PgxmIBIgkOP+A1hQ7yilh2Jrdtf+RLl/695P/QaHuUeVSMFlOVU4JOByDQX8xyAx2/7RzxUUn+sb60RjLj5gPrQhHaeGkhbw1rZ8xOIzhSMsTtOPw9q6/XDu0yIgYyw757Vy3hJgPDGu+YpCMmCxxhSVP411GsZ/siHOM7x0+houB9MYyOec1xXi1ANSix3X/Cu27YrjfFoJ1GE442n+lZyBHPqPmx2pNURG8OXxXAzCc8deDUir8+cUuoKf7A1DaoP7luPTg1C1KZ5FqXiaPV9JttM8hE+zrjcoI/KqehkHxHHnrtPT6GqML2oYxoP3hALE1oaPGF8QRDPO08/ga0jDlEReNdVu9J1qBrSTbuhBIPTjp+Vc4PGOtecZjdZcjAJH3T6j3rW+I/8AyFrY9vIxXFHoKtCNKK+e61KJ5ygDyruOOAMivTNFS1GrTfYViAaFd/lDAJx1x6+teU2ADX9sCu4GVcj15FevWKiG+Ux+UqmD7kQCleBw2OtDAwrs5nuQpYDfzn1wKoXE0cSRM8fm/KO2a0L5Ga5uQWGN46d+BVF3EEUQWEvlRzimSyThhGVyqtIpAPbg1p+P/wDkX0Uf8/A498VnMMmMuvV1wB24NbPi0Wn2a2N9u+y+eRLtJzjacHj3xUlo8sxvPz8bcj8aArx4wFODmugD+GRPLvSYqHVYsFuRk5PX6VRnXTRpki2/mG7NzkFsjEW08deecUCOx0nUPttxpSQwyJGEJaRo2Vc7eQpIxV3XP+Qov8SiJgPXtWboss5bR4jb+XZ+XkSCQsC+3pgjg9K1NcIGoxbRz5Z/pQBiFn8ghMj5qRwxin3kk7T1pzK7QnDAfNTWVhDPuO75Tz+FUxI3yc+C2/64P/M15EOteu/8yW//AFwf+ZryIdaS3KY+M8FSOv5Cuz8NT48OzRQ2krO0w3yZGO3/ANauMX7nyjJ5zXeeDmEvhy7UnYiTckHnov8AjRIR0niEMRbZGPnbj8BXOLvWWUDqWGOa6HxApCxfMfvnr17VzwGJJT1wRyTSQmMVGQgMcjJxg+1b1r/yJcv/AF7yf+g1hRLtypYPyTkHOOK37XH/AAhko7/Z5P8A0GmNnkkg/eN9aIxlwOPxpZf9a31pqkA5NNAdb4ftbq40LUUjmgigwVkLRl2OQeeGGO/JFdprDFtIjOMYIP6VyfgybydP1MuyhDCWYlQflAOfrXXaqFbR025xkdal7j6H0x/F+Fcj4r/4/If90/0rrff2rk/FQ/0qE+x/pUSEjBAp15GR4d1EZ5EL/wDoJpBUl0d/h/UFU5IhfI/4CazW5R4Ck8TL5Ijw+B82K0dNQnxJCRwAD/6CapLMCzL5GEGBnHPT1q/prq3iOFlUgbT/ACNb9CWZPxHH/ExtP+uf+FcWehrt/iMP9Msm7lCP5Vw5PNMRZ05d+o2y7wmZVG89F5HNeuWM/wBo1BQJhMsUJQlBhTjA+vOK8etyFuIy33Qwz9M169p9nBaavGYkWNnsVf5B97gdcd+aBoydQIN7dYGFLDJ/AVRneZII/JQMNg61o6kS13c54AYcD6CqDrcNDEIgR8o60xMfy/lGX5W8xeP+Amr/AI8Rn8PKq9ROCABy3HSqbq/7vfgkSLk49jWr4svBp1nbXzW6TrFcEbHGVOUIzj8aka2PLnhYhA0bghfugciiNJUHmKrBc4JA4H1rbHinE0z/ANnW2JWXBZOQAT0P41UOtFtNubT7NGolkLllGMAjFAjs9Dk/4lWkkM4ZZCm4jggKOlXteyL+A5yCjf0rO0WYnR9HjL8eZwu/JztHOK0/EGDf2vQnY31/hoRXQxype35wBv6/hUOxY7eZVbcNp5/CptgeLBJxv7H2phiVIZlGceWT+lO+o1D3bm4v/Imt/wBcX/ma8gr2BOfBzf8AXB/5mvHxSW5JPCMg5UEDk57V1ugXscOizRRWk+XcK8i7ducg8859O1ceFJXI6jHNdz4Wk2+GdURthJlHzFNxPCcA9qcgOo8QDcIW/wBs/wBKwdoJmz3I/lW/rmfLh7fvCOfwrB2/PKM5JcAYpLYa3SIvLEbMO5z/ACrbtR/xSUv/AFwk/wDQax5FIlAfrg/yrZs+fCU3/XGQf+O0ka14KM9DySb/AF7/AO8aapwc+lOm/wBfJ/vGmqcGrRidboP9o3Oh6nHBPGIY4WeVWHLLgkgV2+oAHRUx7VxnhhfL8O6zNKkYjktniEkiZYZUj5a7PUyV0KMggnAqXuB9Ldq5bxSp+0QMRxg8/lXVDpXM+Khn7P8A8C/pUSBHOjripp4v+JFqBiU/NDJx3+6aiUfOKJZ2j0+8jP3DBJg/8BNZrco8IE7PK0SplRjnFW9NUnxFAARjaf5Gq4a7jmdBGvl84P8Ak1Y0olfEFv67T/I1v0JZn/EYH7TYn/ZP9K4fBJ4ru/iR/rrD6N/SuFU7ee9UgJrIR/bLcy8Q+au8+2RmvU9LvLa48QbYblJ4ktdqmJtxA44PpivPvC+mw6r4ggs592xw3A9cV6nZ+HINAZmt4ZYWc7Cz4+b8hU3GjF1GMrfXeeoYcenyis+ZLiWFBE4XCA1pasCbu7APzEg/oKpWcoaJnb/nmUA/CmSISxjjBHAddx9eDWh41tp7zSorS1j8yaSfKRg88Lk/oDVE/wCqX/rov8jV/wAbXMtlpMFzbsY5kn4cY6FcY/Wiw7nnw8P6q8pj+yN5iYG3I4J6fyqJtMu0tprsQM8ET+VI5IG1xyRUqa7qSSyOLpg0py2QPm/zmo7a/u5LiKNpd0ZlDlCOM56/rRYDqtG1ddTvtPtlsxA1v/y1DZyMelb+t7TfWwH3wr5PryK66WzIsmuFmUqoVjGVOBk449a5PXeb63dSSSjAn/vnp7f/AFqQXMheY/8Agf8ASmyDCzA9fLP8qZAWZ3X+6c05yWEhP/PNv5VLdmdaivY3NuP/AJE5v+uD/wDoRryAV69F/wAiY3/XF/8A0I15D2qonISqR5ftxmum0rVpE0uLS2sd2+UOsyyFcfUDrXMIOMjBwM4Ir3rw9bRXWgQbLnycnbjYcHqeuKcgRj65/qoi3I809PwrAR1E8yjjLBh9K6HWMGGIdFD5A9OnNcqzFdTc9iCP1FJLQcU3JWJBN50oBPzKDj3rbs/+RSnH/TKT+VZKhRt+XnBGa1rP/kVZ/wDrlJ/KhGtdPmuzyWb/AF8n+8f50iYLDOce1LP/AMfMn+8aI+WFUjE67R9F8QzaQ62ctutpdKQyS5JxyOPlOOvau11RNmkCM9VxV/4fWsVx4aVJoFkAZeNwDZOcbc9Pqar66oFpKFJIBwCfrUgfRhcgcLx6niuW8RXlvcTRwxTJJJFnzApB25x/ga6rJYkHgdvevOtcSS01+8mk4ik24OB05/xqJDQIG3ZPb+VMvAv2C57nyXH/AI6aUOSo9+KhuCRYXSHr5T/yNZrcZ4u6Si+f5iy5PAPSpbHnxBa8beD/ACNRm3k/tF2WUAEng1NZDOv2gPof5Gt+hLKHxJGG089/n/8AZa4P+Cu++JOP+Jf9X/8AZa4Eg7RVIDpPA7lPFVkV6kn+Ve36yrfYoXLTSDd0YlgD7Mf5V4b4JwfFVkCcDJBr2/WVVYIRFIsik9yQeO2OlQx9DhNSOL673LjkH9BWVCAsDM7ADccdq2NUXN9dk98Z9uBWLHHG1u3mybVDHj1qkSi2wyqhPmXevI+lT+Psnw8pPBEoNQg/u18n7pI/lU3j9h/wj688mQUAeX5PWrNgxF7D3+cdfrVYKcE4qxYg/bIT/tgUDPo2VlfRs5yNqAkphRz2PY+tcRrQJvICAQoVwCOnJHSu3uIWk0RCUTegUllY9Mjt0ri9d8w3dqE4O18+/IqWBz6yrAblhlmAGBjHpSRuZbeR2QodjDH4U5WdPtJChmwOv1FPV5JLZ2lUKxjbAHpiqsWpu3KbMAz4NbP/ADxf/wBCNeQkcV7Bb/8AInMO/kv/AOhGvH+oP0pRIHq5VceoxX0F4QdR4Vto2DMWYn5U3YGD27189qRj8Oa+hPByfafCkFuAjMSQNxIwOTkkc0SGjn9XVhbRE4Kk5DDuOOK5pxtvjuGWwTtrp9W4tUHJw2c/XHFcy+F1DJUk4+UflTWwrtbC280sufMj2gdOK27EZ8MXAPTy5f5Viwm4ZibgAf3cVuWGP+EZuP8Acm/lSDmlL4jyKf8A4+Jf98/zpqgk8Ak+1STqTcSkdnP86RMK2SB360wPdvh2P+KVjk2qVHMjmESFQCeM9v8A61UdaOdNmYAD5uMDA61P8O722g8MxC535ZhtI+6FBO7P6VFrgzplwV5G7cPpmkB9GN94GvNviJrcWk39rLMgMLEI4I7HHP4V6VjIz3Fed/EXwdqPiv7L9iktUWLeJTO5TOcYwQD6GpeozKgmREDI6Pbk7onBzjjp/Op5f+Pa4TOcQk59eDWUvh298GabDFq95DLDM/lxbD8qZyepA9D+dWWd4xcBm3J5YRePrUWsx9DyyS23XzzF8DeRj8aS02DXLM5I+U/yNWZY1+1S/KQwlbIz7mobYZ1myGOx/rWvQhblL4kD/jw/3n/9lriYrW4uP9TDLIAOdiE4/Ku7+I0TOtgMDdukyM/7tWfhzaMIbhJUXDybSzKDxgGi4zmvCNlfQeJLW4e0nRFYnc0ZAFevXupz38CxSopVX+8vt0rVk0TSbZ3R7tR82FI4wPzqK503SLK1ZluUldlYoElJ+bt3pMaOC1JCLu4VRxgf0rMtolmgZT2Y1sagCLy4VuwH4dKy7PhXx/eNUSxzpsZETpkVJ49B/wCEdXjpKKVgRJkDbjnmr/inS7rVdNNtaAGTzAfm6Y4pDPMtJ0m71qZobYD5eTmujtPAOpLcxM80S7WBIBH+Na3hTw1qOj380t2sYSRNoVCT/QV6cmsaVAyPHbFm24cGIH/PNIDCHmESRjcBIc4XkGsXW8Lc2hVTkK4JP1H+cV28fiGyhjkT7GBI24glAMNiuK135ru2eQ537yQOOpBNAGFEubiVfWnzLthI9I2/lTIWYXUpAzxxU1wuYzlwG2Nn8qpko0rb/kU27fuX/wDQjXlWnWf2++htt2wyvt3bc161pcSXHhxYXbAkRlyO3zGsTTPA8dhfW92btz5b7sEDFSUVV+GMzq7fb5MBsKEtGbJ/A13Fppk1nZQW0dtOTEMbyhBxnr0461sQ66YbJbVIAzIzEOGxncc1KPEd0AWNskkm3aAD15+lAHK65HNFD5c0ciyI+RuHzYyOK5eQf8TFTxzzxXX+I55rjzLiRW3ySZIY9OR0rk5FA1JTgkY9MY6U0Jk7jpWpYD/imbj/AHJv5VnSRlQCXGMZwOtaujhW0ho5Cuzc6uGOMqaGCPKEgWe/2OAFaUr79TXsFv8ADvT5oGngsVaNZNhcuuO3t71mp4c8PQzeetugbOQTOx5/E10MeuNFbPBHfwpC7bmXcOvH+ApDNCHwndQrDa28UUaKhaIBxt7f41jeJLOS0tLmGY73RRnn6VP/AMJGYjxqacLtGGHA9qytU1W2u7WbfdrJIw5O7k80AfS3NRyRg85wfWpaaxUfeoA81+LtheXuh2i2lrJKyzDcE5KjDc/y/OuW8NzaqlpLbanZTKYYQiSsn31UH07j+te5MF25OSPfmopLeORGBjVlddpz6d6TVx3Pl+U+ZczMvK+axyeOpNU4ZUi1S2lkJCIDuOCcda+hG+HXh1riSdrQMXbccAYFW4vA/h2IYGlWzY4y0an+lMR4l/bVogIR3IyMBUP9RSNrFu7BhFcMRxwh/wAK93TwloMf3dKtD/2xX/CrCaBo0fTSrJf+2K/4UAeAf2q2CE0+6fJzu8s0q3d48bBNKvGPJwyda+hF0qxX7llbKPaEVKLO2j5W3jX/AHUFAHzi2l6reTzyjTLiMPgAFPYVVPh/V9PlMVzp86SFtwAXdx+Ga+mwq9Aox6EYoMSMwZ0Ut6kZp3A+am0HWJzuhsJ3bHQrt/nitmTTfEjyErokh54JZcf+hV7/ALEPRR+FAXaMAGkB4END8XyHcukIvtuH/wAVUq+FPGckYC2cIzzjI/8Aiq94wc55x9aXPoCPwoA8LPgfxvKB+4iUZPRl/wDiqYfhj4qnnjnnCF06AsuP517wB70YoA8Lk+E3iFGWaKWAsR8yccfrSt8K/EMr/P5QU5BwR0P417nijFO4rHjFv8LfEMFskEWoQxxrngrngnPrVkfCvWpQPN1gqf8AYVcfqDXr2KMUhnk3/Cpr9x+81lz2zhf8KUfB6Rhh9WlOfp/hXrGKMUAeWD4NWioM6jcs2cn5h/8AE1cuPhBo01kF+0XZnA+/vXJ/8dr0cigCgDzOL4QWRVVn1K8ZAPuhk/8AianT4OeHtrbp77k5xvT/AOJr0XFGKAOFT4UeGgBuSdsf3mX/AAqzH8NPDcRAFnuHviuxxRigDmovAnh+Hpp0Z+tXE8K6MigJp8Kj6GtmloAKMZoooArk/vsdqVifPIzxgUUUAOj/ANWfqf508dT9aKKAFNAoooAWmUUUARsf3g+lTDoKKKAFoFFFADT94Up6UUUAC9KWiigAooooAKKKKACiiigAooooAKKKKACiiigBKWiigD//2f/hDHdodHRwOi8vbnMuYWRvYmUuY29tL3hhcC8xLjAvADw/eHBhY2tldCBiZWdpbj0i77u/IiBpZD0iVzVNME1wQ2VoaUh6cmVTek5UY3prYzlkIj8+IDx4OnhtcG1ldGEgeG1sbnM6eD0iYWRvYmU6bnM6bWV0YS8iIHg6eG1wdGs9IlhNUCBDb3JlIDQuNC4wLUV4aXYyIj4gPHJkZjpSREYgeG1sbnM6cmRmPSJodHRwOi8vd3d3LnczLm9yZy8xOTk5LzAyLzIyLXJkZi1zeW50YXgtbnMjIj4gPHJkZjpEZXNjcmlwdGlvbiByZGY6YWJvdXQ9IiIgeG1sbnM6eG1wTU09Imh0dHA6Ly9ucy5hZG9iZS5jb20veGFwLzEuMC9tbS8iIHhtbG5zOnN0RXZ0PSJodHRwOi8vbnMuYWRvYmUuY29tL3hhcC8xLjAvc1R5cGUvUmVzb3VyY2VFdmVudCMiIHhtbG5zOmRjPSJodHRwOi8vcHVybC5vcmcvZGMvZWxlbWVudHMvMS4xLyIgeG1sbnM6R0lNUD0iaHR0cDovL3d3dy5naW1wLm9yZy94bXAvIiB4bWxuczp4bXA9Imh0dHA6Ly9ucy5hZG9iZS5jb20veGFwLzEuMC8iIHhtcE1NOkRvY3VtZW50SUQ9ImdpbXA6ZG9jaWQ6Z2ltcDo0YTUzZDgyNS1iZmFlLTQwNDgtYjZjOS0xMTgzODgyM2M1NGUiIHhtcE1NOkluc3RhbmNlSUQ9InhtcC5paWQ6Njk3Y2E1NjEtZjVlMy00OGQxLWJhMzMtOTIyMzMzMjIyNjgyIiB4bXBNTTpPcmlnaW5hbERvY3VtZW50SUQ9InhtcC5kaWQ6NDMyZDVlYWUtN2NkYS00MTNmLWE2ZGYtMzJjMGQ5ZmFiYTg2IiBkYzpGb3JtYXQ9ImltYWdlL2pwZWciIEdJTVA6QVBJPSIyLjAiIEdJTVA6UGxhdGZvcm09IkxpbnV4IiBHSU1QOlRpbWVTdGFtcD0iMTY1MzU3NDYxMjk0Nzg1MSIgR0lNUDpWZXJzaW9uPSIyLjEwLjMwIiB4bXA6Q3JlYXRvclRvb2w9IkdJTVAgMi4xMCI+IDx4bXBNTTpIaXN0b3J5PiA8cmRmOlNlcT4gPHJkZjpsaSBzdEV2dDphY3Rpb249InNhdmVkIiBzdEV2dDpjaGFuZ2VkPSIvIiBzdEV2dDppbnN0YW5jZUlEPSJ4bXAuaWlkOjI0MjA1YTNjLWU3NWMtNDZkZC05ODg5LWQwMGU0M2Q3NDMyMSIgc3RFdnQ6c29mdHdhcmVBZ2VudD0iR2ltcCAyLjEwIChMaW51eCkiIHN0RXZ0OndoZW49IjIwMjItMDUtMjZUMTE6MTY6NTItMDM6MDAiLz4gPC9yZGY6U2VxPiA8L3htcE1NOkhpc3Rvcnk+IDwvcmRmOkRlc2NyaXB0aW9uPiA8L3JkZjpSREY+IDwveDp4bXBtZXRhPiAgICAgICAgICAgICAgICAgICAgICAgICAgICAgICAgICAgICAgICAgICAgICAgICAgICAgICAgICAgICAgICAgICAgICAgICAgICAgICAgICAgICAgICAgICAgICAgICAgICAgICAgICAgICAgICAgICAgICAgICAgICAgICAgICAgICAgICAgICAgICAgICAgICAgICAgICAgICAgICAgICAgICAgICAgICAgICAgICAgICAgICAgICAgICAgICAgICAgICAgICAgICAgICAgICAgICAgICAgICAgICAgICAgICAgICAgICAgICAgICAgICAgICAgICAgICAgICAgICAgICAgICAgICAgICAgICAgICAgICAgICAgICAgICAgICAgICAgICAgICAgICAgICAgICAgICAgICAgICAgICAgICAgICAgICAgICAgICAgICAgICAgICAgICAgICAgICAgICAgICAgICAgICAgICAgICAgICAgICAgICAgICAgICAgICAgICAgICAgICAgICAgICAgICAgICAgICAgICAgICAgICAgICAgICAgICAgICAgICAgICAgICAgICAgICAgICAgICAgICAgICAgICAgICAgICAgICAgICAgICAgICAgICAgICAgICAgICAgICAgICAgICAgICAgICAgICAgICAgICAgICAgICAgICAgICAgICAgICAgICAgICAgICAgICAgICAgICAgICAgICAgICAgICAgICAgICAgICAgICAgICAgICAgICAgICAgICAgICAgICAgICAgICAgICAgICAgICAgICAgICAgICAgICAgICAgICAgICAgICAgICAgICAgICAgICAgICAgICAgICAgICAgICAgICAgICAgICAgICAgICAgICAgICAgICAgICAgICAgICAgICAgICAgICAgICAgICAgICAgICAgICAgICAgICAgICAgICAgICAgICAgICAgICAgICAgICAgICAgICAgICAgICAgICAgICAgICAgICAgICAgICAgICAgICAgICAgICAgICAgICAgICAgICAgICAgICAgICAgICAgICAgICAgICAgICAgICAgICAgICAgICAgICAgICAgICAgICAgICAgICAgICAgICAgICAgICAgICAgICAgICAgICAgICAgICAgICAgICAgICAgICAgICAgICAgICAgICAgICAgICAgICAgICAgICAgICAgICAgICAgICAgICAgICAgICAgICAgICAgICAgICAgICAgICAgICAgICAgICAgICAgICAgICAgICAgICAgICAgICAgICAgICAgICAgICAgICAgICAgICAgICAgICAgICAgICAgICAgICAgICAgICAgICAgICAgICAgICAgICAgICAgICAgICAgICAgICAgICAgICAgICAgICAgICAgICAgICAgICAgICAgICAgICAgICAgICAgICAgICAgICAgICAgICAgICAgICAgICAgICAgICAgICAgICAgICAgICAgICAgICAgICAgICAgICAgICAgICAgICAgICAgICAgICAgICAgICAgICAgICAgICAgICAgICAgICAgICAgICAgICAgICAgICAgICAgICAgICAgICAgICAgICAgICAgICAgICAgICAgICAgICAgICAgICAgICAgICAgICAgICAgICAgICAgICAgICAgICAgICAgICAgICAgICAgICAgICAgICAgICAgICAgICAgICAgICAgICAgICAgICAgICAgICAgICAgICAgICAgICAgICAgICAgICAgICAgICAgICAgICAgICAgICAgICAgICAgICAgICAgICAgICAgICAgICAgICAgICAgICAgICAgICAgICAgICAgICAgICAgICAgICAgICAgICAgICAgICAgICAgICAgICAgICAgICAgICAgICAgICAgICAgICAgICAgICAgICAgICAgICAgICAgICAgICAgICAgICAgICAgICAgICAgICAgICAgICAgICAgICAgICAgICAgICAgICAgICAgICAgICAgICAgICAgICAgICAgICAgICAgICAgICAgICAgICAgICAgICAgICAgICAgICAgICAgICAgICAgICAgICAgICAgICAgICAgICAgICAgICAgICAgICAgICAgICAgICAgICAgICAgICAgICAgICAgICAgICAgICAgICAgICAgICAgICAgICAgICAgICAgICAgICAgICAgICAgICAgICAgICAgICAgICAgICAgICAgICAgICAgICAgICAgICAgICAgICAgICAgICAgICAgICAgICAgICAgICAgICAgICAgICAgICAgICAgICAgICAgICAgICAgICAgICAgICAgICAgICAgICAgICAgICAgICAgICAgICAgICAgICAgICAgICAgICAgICAgICAgICAgICAgICAgICAgICAgICAgICAgICAgICAgICAgICAgICAgICAgICAgICAgICAgICAgICAgICAgICAgICAgICAgICAgICAgICAgICAgICAgICAgICAgICAgICAgICAgICAgICAgICAgICAgICAgICAgICAgICAgICAgICAgICAgICAgICAgICAgICAgICAgICAgICAgICAgICAgICAgICAgICAgICAgICAgICAgICAgICAgICAgICAgICAgICAgIDw/eHBhY2tldCBlbmQ9InciPz7/4gKwSUNDX1BST0ZJTEUAAQEAAAKgbGNtcwQwAABtbnRyUkdCIFhZWiAH5gAFABoADgAOABZhY3NwQVBQTAAAAAAAAAAAAAAAAAAAAAAAAAAAAAAAAAAA9tYAAQAAAADTLWxjbXMAAAAAAAAAAAAAAAAAAAAAAAAAAAAAAAAAAAAAAAAAAAAAAAAAAAAAAAAAAAAAAA1kZXNjAAABIAAAAEBjcHJ0AAABYAAAADZ3dHB0AAABmAAAABRjaGFkAAABrAAAACxyWFlaAAAB2AAAABRiWFlaAAAB7AAAABRnWFlaAAACAAAAABRyVFJDAAACFAAAACBnVFJDAAACFAAAACBiVFJDAAACFAAAACBjaHJtAAACNAAAACRkbW5kAAACWAAAACRkbWRkAAACfAAAACRtbHVjAAAAAAAAAAEAAAAMZW5VUwAAACQAAAAcAEcASQBNAFAAIABiAHUAaQBsAHQALQBpAG4AIABzAFIARwBCbWx1YwAAAAAAAAABAAAADGVuVVMAAAAaAAAAHABQAHUAYgBsAGkAYwAgAEQAbwBtAGEAaQBuAABYWVogAAAAAAAA9tYAAQAAAADTLXNmMzIAAAAAAAEMQgAABd7///MlAAAHkwAA/ZD///uh///9ogAAA9wAAMBuWFlaIAAAAAAAAG+gAAA49QAAA5BYWVogAAAAAAAAJJ8AAA+EAAC2xFhZWiAAAAAAAABilwAAt4cAABjZcGFyYQAAAAAAAwAAAAJmZgAA8qcAAA1ZAAAT0AAACltjaHJtAAAAAAADAAAAAKPXAABUfAAATM0AAJmaAAAmZwAAD1xtbHVjAAAAAAAAAAEAAAAMZW5VUwAAAAgAAAAcAEcASQBNAFBtbHVjAAAAAAAAAAEAAAAMZW5VUwAAAAgAAAAcAHMAUgBHAEL/2wBDAAMCAgMCAgMDAwMEAwMEBQgFBQQEBQoHBwYIDAoMDAsKCwsNDhIQDQ4RDgsLEBYQERMUFRUVDA8XGBYUGBIUFRT/2wBDAQMEBAUEBQkFBQkUDQsNFBQUFBQUFBQUFBQUFBQUFBQUFBQUFBQUFBQUFBQUFBQUFBQUFBQUFBQUFBQUFBQUFBT/wgARCACYAKwDAREAAhEBAxEB/8QAHAAAAgIDAQEAAAAAAAAAAAAABgcEBQACCAMB/8QAGQEBAQEBAQEAAAAAAAAAAAAAAAIBAwQF/9oADAMBAAIQAxAAAAHqkw1nMNtYZjDWmH0wxvxmGGx8MbjMMApoOfNiMfKzxNsfM2LTDSM8DS98mY3UiwxmG5F3Yo3J6JniHuuV1vc1PIinoamJ0MNTVWhvrLjTnuG916HUvLVNxAXWqa0tGxeLAy+IpuwiA1hQDzL0k7YlUF0aIhZeQjqLzldwsLrRDut+nMTvCrltd57ldEXvAvOn5SeVd+wMMpBj4H/Nd76pCESFE211V55VnC1t10f7hveYveNXnuvnuRau7wuJ1ug9QnFywf06oC/S73JXeSS7pIrq7zyquFgvWQr0BjZpBr5VKWGVHQADMKvovotN3z8cO6aHS2rFzgo0QnWvnK7hYf1lc+gM7NEOmqDy351QoFhllX0XkWmq5+A75Uee2bXkWLDnVqdc8i281hXSVv6AzuD46M0VuLfnVOVQblDVEEWmOnHy074uj5+qfXlWl8yZRVrrbkXHmsM6Sr/QGqwVw980SuLTnS5Iw3Qdqb+LTHWShh/Churblq4uSRpRrsPiV/CxlKg7ofTBO8bEaO3zn8+goVQ1Aa6TdxaV3CIZUKG03CdrGJmleb23zxM8LELlRdw7uBlnxAZvna8+gcVQzCl6TexaT3CIZsBy1jhO2P5Feb3BzxP8LDbJ/wBEDm4Fj42h5FlFBJUjeWN3F3hJBEMqKpXeXXmTljqRxjtjmUfCw+ya9EDu4ED82h5FjFLkgDcXWZ3tHFJXyvWs6NqHukV4E5Y2kb47hgovNYb0JvvA9QVH5GitxP3QQ981qwCs+lbT40n34MmaOMkLfRsd8CavOguatOyJLXzWHdCf7wP0FDqGNVNxa7qrLbNdcFtdEMakenNozRjgFc7bbTFOhIVB2tO898XlpR+iKDagjzjV7cWU0tw+waAJcWkWqx0noBlxLi6Icovjt3NTQvOYA7RPyjshtA7iwmvgV4rSkuJ8XZl6RCvuLaLtiUeZ0ORAbKEmE4mkk9SUe57GGGGGGGGGH0//xAAvEAAABQICCQQDAAMAAAAAAAABAgMEBQAGERITFBUiJCUzNDUHFjI2ECMmF0BC/9oACAEBAAEFAv8AWuSf2AgHqKJqH1BUyj6huq/yC7NXv9/XvuSyjfMpQ3vL5hvOZNQ3hNGL7umsw3ZOGr3LOmoLimqGamjVt6co09PUE1OZdty5qNMy5aG45Mo+oRMzPV8pnMo4ZGLcjoqu3ZSjTEoahmZApkZl1pRnnZVdsSlbUlDUEi9KZvIrGoZh7pdpyVa/JUEi7pF8sZDakkrWtSpq0kvSb56Wr/XKkwEtTpMpojzctczpk+Zzsk8SfLKOoRPqxAc7kbmepPms4/dIPnIuoluWrdHK6PeTnMjNSCqE8bMqh0kHwsLf92SBqZybgzyQDmF+Y6nlqVK31qL8y6euCyLqaeILpulHVtRLpu1eRWG215A6T9eXelU0p3EFHuEmtQPdLyrpul7gf1OjmM2dAkwSVFvb7qadpGhpV6vJyQcwvYmZgBauooGSjQ5tcYiWbqOD+VikWrh/FBzmSBQ9DSH1pEBqC7py9BdCpqkyCVIUtYt10z1ctslIapEA1+8g5YBavIoFaxwc0uXzaKWlVbNjtYLMCVRPllm51XT1A7Vdv9aEMxYLujfKpYMxRLmpRI69uuIxw1LbR8tSYcfdvicu7ewDqbEo7UufzbTHWnQcKfGooB2pIi3K6dE0rpsUS26b4wXeKfKpTpCcNEsmJraMisUltYarL+Qu8csKBavkoagxHmN0ebRECqmIBWCwbsSHMZFQSrp4uJ3Dkg41BBxinywqS6ACGgWOdK3V5Bw6Lb+OWUDjrtw2IBavcMscz7+6fNl+SxcrVb4xPfzQ82ad0YMsOf4wneKdS2yZpZ7vNTY0dQULfcSirpO2yjo5TvZ1gElGFCrraHes0CaKRnY07yVdRwszaQirMw5ai+/lEmRnzBJIz5xvMBHdhQ4xXqQJhJIuw4PHddfWqtwQKhJ96v0ChV6CcsSgA65dvmsaKU5Wa1RfeSbAVZFFuKDpHIaEMFQ3eK9S3wzSz0uVrhuuQ/mqttNNWpYvGK9IAq9yckbl/fd3mf8ApFUF2p8ajQHXJWOcLyKLZZuqv2CmGWH7xbrwObaa28wEgZXIfzlQAHMnKBxanTwq9S8hQH993+WpPHQKlCo4A1qbUPtZqfiSK6eJqH7xbrwqybWRMHLhENE5+uVBGEpZgMzwfjhvXgYTQiQjp7w8sySBw82MlCts+V1Hd1KyjhCRt055KalmpGrUojmh+8X69kNEnTyXTBKkS5knP1+rJRKrCSocVJrnbMCnA1XabNDJhvXl5aP76cAdEcB08eHFTvmbP+wT/wAVcKiQ49x1/TzycyG8XCnAfz9WOUDQUz3broRcuR7VyjmiQDKa8Q5szgJArp851pIxMy7AmV1ItjurghbSdsHkymsVqUuZWK79lHbUlISz3UKvNJKpGbh+pwH8/aVvIzhmFuJM0JoOLMXMW4YOPt2HePEn8IbqS8ClKum8sk1QfzaTpqbrt1CJOtWjNc2+fK/frP0tQcFVYs3STpCJVSV0EyYy8BMvaCzJduZnaU43L7TnDUFlS5qW9OX7g1LJJrpyFtR79sHp/EUWxYUtFs+GLRbdjEqNDsVUiRLJKtTRLQJELWFYVhWFYfjCsKw/P//EACQRAAIBBAMAAgIDAAAAAAAAAAABEQIQEiADITAEQBMiMTJQ/9oACAEDAQE/AbQRrBF4III8cjLXIyvkZGRl44mJBBBBiYmJiQQQQRbEx1kkkm8kkk3km8k/Vf1n5Mp8f4MqvNlPi+jirpjsezFd2Q94RRA9mLRiHu0ymR+iHuxXXkh7sV14sQ78dPQundfqmcXH+Thb9UO/DTKOTp3fcnxqseB+dQtfiVY0nL3VZH9ji4qYH5VC1VeJV3ZWyqW9Qrv6VQv8n//EACMRAAIBAwQCAwEAAAAAAAAAAAABAhARIAMSMDEhQCIzUGH/2gAIAQIBAT8Brati3pWwtzsYvUYxC9NjpGu2z8mtpa0/rIYakd8vA/jGqNTSbeLGQOq7W35Nd68PrIf3CMbD+Vei+LGQ5kPFjIcyHiyRDmRJCwZIhzRGsWMT2ie7jQ8XRjFHcKO3jQ8XRjIcUuyXREYh1dGMhxS7JdESQh1dGSIDEPOQhEiJLFkiAxDzXkkIkRHixoh6tiP5X//EAEUQAAEDAgMCCAsHAAoDAAAAAAEAAgMRIQQSMRMiEEFRcXJzgbEFIzIzNFJhkbLBwhRCgpKTodEVQ2Jjg6LS4fDxMDVA/9oACAEBAAY/Av8A5sO/Y7XaybOldLV+Stgh+r/sqtwDD7dtbuVsDH+of4W7go/eV6ND7LH+V6Phh2O/lWw+G7GuPzXmYW+zZO/leQxvNCVoxvtEKy5x+irS+6ELzz/02hXmkNeQNVsbM3ptaF6XJ/luvS5OwtXpsh/E1XxU/OyRoX/sJv1FQ+E3jnlosEeSf6HJpHF71EAWPa9tavsVkZDt3kmlLkr0Kb8q9Em7W1ommXCmJpoKvaQE8Z2ZRyg1TYmMErvZmJIXo8n5XLzM3uevGwmJp4y1wqU4GUObXQtqnMiBloBoCSvR5PyuVdjJ+VycJWGC1Ru0JV5i6mlRUjtTtkHvbUiojqF5mT9FWhk/SRbI+WNw+7pRYJhBrJiRQ8m648EFN3xd1hOZ/cpYIRGGRkDfFSU94lwcTWkDxlqkoPly7UStDtmbVDk9M6t6nhiLWsjcWgZa6IvONw0FDQB4FSsNK8guLrlmhO8E/nWJ6tiOSOFo4qgk96ExGEyEZshcQSOPjUB5Yndib2qWdgzFsr6V5S5axiuhyJkUuLw84LspjjFDVYjnHwhYIDQ4gV7GuPBhvtBe2LZuuzWvEsN+LuU4Z4QhwzY5AAwsFQO0J0TcS2Vo0e2Jt/2W1lOd+1F6U+8ny4iEYmL1CaBNIGVpa+g1oFPXwrNARK9mzDCcouE4M8ITPZxEOIqsFLK8veXXcTWvlKfawsnzNLBn+6fWWJ6pqjMeOhlMg3mMibVn7Lzo/Sb/AAsMf7p3yUsGyY50hB2hFS1PeJTBSZ3jAKlu+iyLwlNKwaPAyLDMlxc72F9CDKaFT84+ELDHjE4+F3BhqsL93QLCc7rcllib8Y+EcH+L9QUrMZKYoMtagVNUz1cr1i2Z8Hss0lA8jaN3yac/HwYLpf6k6w141ieqatl9nhY8HzjBlJ4MN1Tvkmg0bbtopWF7YqzHfeaAb689C/Tzb61/580Xlgc9k0dCRoCp+z4QojyTN+fBgjXZOGZmcanRYTpHuWJ/D8ITGVDcxAqdAp4JKZ45RWl6eSfmnkjNciii6t6nLfBu3rK5202lC4B/t5qJzHs2R1y10BusJ0v9SZbNqsT1TUefgwnVH6VHb+rF+xTxMGZ7piANPvomaPJlAJr7U8NEnnY8xB3aVtVS/h+EJvXMp7+DBZGB53rHj0WEr5WY9yxP4fhUVPWavCPXDXmapMhDXV1Oii9rXqd7/tO02zq5LMO//CyRMldUgND7uWGBFCJKEG1LuTb5dVieqanc/BhOqP0pvrFo9vEpwwEuMpoB00c7HNaNajRSml9tDU/iUnM3uCceSaKl6U328GCrXLU6cywXS+Sn5m/CEwkVAIJ5ljwIzE0SijHihG6xPGTPcW5VFbLuutyLEj+kdgKyDY5a2zut8+1QkYgYl7i3xj2a25P2UdaV2ztBQeU5NpTtU/VBO5+DCdUfpTfWpZYksOV4lJBHFvBUlmc8UpvmtlTOABPHQUFXGvv5FJ2dylr68Z/zt4MIQ/K7aEVPFZYS+be15bKXmb3Ic/EsfYAlzSRybrU8kltxcaqL73i3dtli+tco6xmXebuesqbPYAYg+L9UZym7hfelAp+qHenc6ivSjXnTXdWC6r5NUW5m3RU8llO9mrZSRUceYIsfs7jKcjACRWqnNsu1grb+2n9ilhLyy7X1H9k1+XBgoImZ3vmIA0+6sMwjLlloRyFSlksbAGiu1fTiUZfLHK11/EurQLH5AWgFtntofJb/AN9qfbNcWF6qI0y7rrcYspzLNIyXavzgMqByfJYYMe93jr1FN23+6f15pan316typeqHepOcpmQFzy12WhpQ0WA6r5NTLjLlWL6w/EODE1GssABpfy0/s7k/olNWGLH5Hiaz9KbpWGNc3jBflT+izu4MXnOZxa0ghtBSifU5G2vxqK+bddc6mynl20EeeV9nvoRT/n7qAiVgdtsoMZqRSl/3QLCXM2xIL9TvLQuuVJ1Q71JzlRMzvbUOG4aE2WEFNI6a14gm24teRYvrD8Q4Jy5jc7XRlryNN79keYJ/NwYa2fx+nLuuWGtk8aLcid0G8GLpV1I2i7cpNtU+lM1tdFFXysrtNNAsS9kL3skldlIGtNe4+5RPewtG1DL+sFP7Jz7fvq5y3Omqf1Q70/pFQbKLay3yjNS9FgD/AHQ+EJp5AFi+ke8cEtCBG18RcMla74GvFxLsCdzcEVTTx2o5MrlhqEubtRRf4TeDFsPlMhjB9pyJ9QXaWCioMu663JZYtoe7KJXUFdFFtZDGzOHEm9FK8EODpiQRxjOu0p3VD4k/pFRyyvDGsBNSKgmiwHVDXoBD1iBRY3pH5cDmCGR7pJY/GBtWgB1TzI83B2prLWmaRXTRywxNPON00TeqaoIjXK57WmnJVTsi0ka4k5s1VfybFRczu5TxMkpHHK/KKA0r/wBrDwT0lifI95YW1GYjVOiYA1oLCKNoOJP9hTuq+pP6RU7JYxJ4uoq0Op701g0YXAWorjNSqxvSPy4JyQXZHEgitl2KeaK72NJFRVVWmbxgt71hrFvjG2KZ1Q7ysP1re9UILXbJ3arDM7LZRV8qh000WL6ZWE5zxV4lLXiLdOPRPq8sbmGgundV9Sk6RU98vijfkVxldmdUaKOpOapoBosfzn6eDEi2YOdSvN/z3odAKW2bdNlLTdfG4iRnLyOTr/1jbqC5dSRt0zqh3lQPOHIaHNcSSBZOsxtGuG5aqoeNqYB5IBU8LKAySkAlMxWfMIwTuNdxjlTjOHtcctM9tCE/nBTur+pSQZ9nUvNaV0UrwXveQG8Tcp96aJfLrU3qbhO5ysfzn6VK2WtQQG72UaEpsUE0LGXcau40PvbvzVFPjcHhWxYlpaA8uLrE+0p88Ry+MbmZxtdZRdY1NlfiNlRuSlK/P2prKQZhXfealOZWBjaGzDqbpvRTS85W0NzzL7Vd0+bPUFxumgPmygUFIeL3Jw2U8r7AEx0oKpxOHnyvuDsnUKdL9knc3KRuREmtVtYPA84ea1eIaKv2DGOdyk0TK+D5m31fICSnRHBF/GCxzSO9OAwTLurUzNFFeHDNHtlqrvwbPzFZnYzD10tGeAslYJGHVjxUFOgMDImkg1iFCCt+KSXpyL0IHncVbwfD2iq3cBB+QLIcHAWVrTZjVbmEhZzRhWhjH4QrMA7P/J//xAAoEAABAwIFBAMBAQEAAAAAAAABABEhMfAQQVFhcYGRobHB0eHxIDD/2gAIAQEAAT8h/wCTp0/+XwdOnXRHlA37wS+Xr1Jefj/QvvcS+bwhZP5eOqP1KYpOZIuRuSV3vP8AJR+M/wBfCsbdQjfh2Vv84V/CZgSjdu4BXO+MFfZsN4X1M7NUngJ4F0cdjKtfdJtu2PRVj6dJk4L/AIQtZfiw4ksN1/Q/Tr5m9TRdLprTBjhfAYxqC7QuDFqDy+A9mPa6Dd4PmW/iu2j4gelyC8hx7xHP81NWh3XB+pg4qGwldAUcHUD0v1/6Q+jvpDTJyLUARHVdAOhEeMCzxY8K2a1pm2AHeu66WYRhp477Fs+bjREH4yIOFuzVNnarPIS/QnZQik56DU3MLQ17UBCNiz9VZcYFLalA/RUz+Ww7mTd9iFdcEH5VhytqSxgudkO1ogPyTwqp79lRiKs7mogiuF7+J4Dzg2jku4iqst6I8QmIFXADO+ckZ0+OlDg8AuFaGdQDA2McqAAgBqLqO+hwC4zD+V3bmQWHQFlHO464KXYw3fZfW3bjJGoh9lCTnktZrhIAwNmGwplh3RCCHpnY8sipVnkplSAcngaArWnewYS2cOFXrMVYmK6J97+xzIgliNsLVo/yjA+zb+yszacDAE4UaQz+DtDGwFYrNBspiGJBncQQDyMNvullsRhR/NLonDGWOXZHBHzZwenRu64nvBJJVU8lxEcMDwHSEqhHIILGuVN1CKOrd04D5wOhvRAQHk+cJo9xAGbaOQs5Zz2XUdxh8EC2YOxP2vGBOHMmZmIAJZwABKjPhcjbTAAHBORCv90u8k/xXTXGrOUS6lhVF245Gqy96HMQKGZBWx0dpQvJd2OUl6MpHVWPRBPB7toVPgWtlsQfJWo0VxZODQPBE513N7jPgXd5chBByPsualGwIipWd/6yV6Zq2arznvCyaJZGCNNvKzt+joUWkymcSAZ3BHRH1nmlA7vrXKMIWttQyCyrWmB7rjT9Kz5qCQ6W/AM0I9jlZmfAAUBIbRsmgUFnS/FZ1ALU36lUPGZc+1V1vqxCkgQSzOYy0Oh3HqgQCARhvZma857wWzQlZhC5DrLFVEL9YYXAfOZ6o9/6SMLGgBi0g8jsXrUP+YbCs+DvdWbhV80q6OteWi8OQZBLO2jar9fjKyKKszNGPJ8lShroxXR9GRgREOBEOrzfPBnzvtfZPAG2rVWrWX85Iflam+VAgjlBMhNOGKCJejVl10PAz7weN9GXieiG28x0W9YdcLqGNUNTQQ7rsPqjBlA+/J05W8jJa3T3AxzAyMdMiHFXdl4gk1aiDqqf7cYv4dS4UZ1nsCWAvL5snK23xRhIGJfNwF8LGYHYa1X4RpucDNq1VCOjSMyCKOOtRhSNvYHxjw6005YPOeeXiehWbTCe594D5Y3xehO0+a8hy4gzGcK3lK/jrMreFBQLuGikasWbeW8UQDBojIwj3H2qyYE9ArsUwxtWq1aEEjDjKFZelK/VckY2EdHNHILEmrUS7VobMyXmvWMfizyaEFlkgnU3TyzdwxdzXZX8pwPVav8AY4MNhUTKmUagLT7ovw7uCvKv4mw5smqLlG9YdDkDk04JCzY2E0FU/wBvOEDdTpqymK856QS5/HXA+C05QC9flBAkag1iJVnzK/K6scrMKgGcZWptq1CWGcDdSf3WzBmeaaqzthhbtU5AQpwgAsCwJNWOFEsqAIV21wUKaBwAT0F56VTq24y/TvVd8D8rxqVuGmjgB9oZTqOIEVFKmELUtDeVdNK1/cOBeomquqbIYG4XbmYFdk1jkuYlQRnlGchXenDFm1Ww9lh8ibILxTiA1MqUyVlp3V61QLaHysOgIyEGsUkjxayNvUcbOFd7qrqLJ/TxoFodzlX0XgiWnuelFd5MrmIfrC18K8s1fyeVBzQL6dqHTCC5alW4pfiHlXclkwbSgpQL73DZ6YUAFsfkvW7AhzAIcMzNcIWyQVuWqUGDkCR+PdpIr5X6fScDKq30uAddFZJoIupV39F/C6LJO4mV170UgGEVd9l0sogvr9xqQe6CYNHC3xbFNjNYyzXAVSoy2cvrOIFDN0Q6sljoyroWs1AF3HbKFlNGX3YQOs8HMQRJBpDVyXsciAHjyGOavmpWkC6oJLuQ8MloN0JGjwuJPEAzM6mFe8L2Bw66ZbG5gGWpYropNVB2VbLrMH/a4JpQfZcgMoGnCpg8M5rUgqzhmq7BxAaXbyt8l1B4Mtws/AAMA7Id7m9MJkFQgDIfeFH7YdAUyyQ0ZSg3PdZ6dz45V+91XudexXzxva25uzI7NovHTPhDwt+pegt/oBH+h//aAAwDAQACAAMAAAAQk/8A/wC0lW0kFuBY2oQkEAM3IXbbZLtbaTeSUvoWxa/eZuQPQUNzbnKWvUdSELx93BUoEbnom5bQQSaSbha35IDS7YSV3JnbbLCsFCVmalLJ0GWxCZmUXJK3YKTCb2SHZKnKQLQfhanbYEaOJANzK1ZLyi6rAX7YoARDV6BaHpKqATbXcJbX0SnKCSCCSBK+AnaCQQSCCASASAAAAAAT/8QAHhEBAQADAQEAAwEAAAAAAAAAAQAQESAxITBAQVH/2gAIAQMBAT8Q4N27dvJu3yG7du3bt8u7du3n3b5/du3bt2/0TENifkD1y2rWdJOUjkiZ7IwfYwRyRM9kGDGCO5nJGdfzf5nJE9TOSM/X7eEvTwR1nnGH5xAmLkjnemMPC0YOSOWec9jyedwfYjlnnPY8nH3eeD7ETOXzhl/JFQhx6FpS1r5wRM5fJzmNxDL8IIGfeCJnB0MajPa5KrTe23wvBEzg7G+SXqMHT5PifyJ6Ms/jWeSMs/t//8QAHhEAAgMBAQEAAwAAAAAAAAAAAAEQETEgITBAQVH/2gAIAQIBAT8QioUVJRU0UUVzRU0oUUVCipooor5BfVC6aG4X02lvCLS184ND9FrRCGhV15LJU9HLlsedT7LkhKkuMGhLGghDuiiSyWr+hyj0z2qUEj3nBqD+L431wag5orljnfXMjlC5Y+DIKcyOULljEM0KYhd76EIXLHOhCFFZzVoQhcsc6EIUVnGcfvpDh+ToUVnGcZ24cY4aFFZzGYoUsYliVvOIQ4z0NC4YgSs51CnBfBljYhdOULnRjYyyxC5Y5Qvy/wD/xAAnEAABAwIGAgIDAQAAAAAAAAABABEgITEQQVFhcfAwgaHxQJGxwf/aAAgBAQABPxDBgmEWCYJmiZomaJgmCYJgmaYM0TNEzRAeSliACYrcqTdtElNlnCiRxOcqAglyMyqYVyAHGFiUUgmgDqZcIAhCWZkBwEEqz3FcQUMAkAtxwfjIxNMlvQYgJHVAAsioUZBUAcdAIqIQo2JoggthUCNXAw4jtYrY8KBtRCDldhlQhiAQDNQB9psRoX1AgFkMiZcaoRKwjC+YUQUkYwgGSZrc4gM/BwCgFUTIjAehx/NkR3rzygq0wNidSzfVmn4B00w+iAAqgGPxSUyMhHXiJ0yBDeLtqZSeEZC3kYAnmiQEwIaGu0voANqogTi6iA7nmw8UEVCUYRkMk3aDO3BaAQEGYYeFADpGwdhAGwb+aADNNEDY13kvwHhSGEARBVsfQPLIoAjFdIKyjSsFg34qZkYF4FOCUFxRnmEID7XaMgcV46mNbIMCOEMgA3xyWFiuxCw5CWjBAgP0PxCDgEgBA6jlNvwiYCqs1uAqoLRZxFNNnUbqAghblnuAAKAi6o0GJRY3Eh85O7LxAEkgAQKFBIGFA5+FygUHbERJF2FEAhPEpTjbriEACRqVWw4BSBt7ugoawKSUAZS7FL0A7g9A2Qd61nABE+Awdl8DFQCITjWGNiwABZhUwIGg3blCUI53UrLHnWakkAAP7YbEwQJEBtgj0ocAJBs71MoRi8vkAC8hIMXC2wHw4eAUACxkKASXQr9EPSCR4hXHLMBmoLkodAHDFJF32IB0WlHuK8MDgGPCYARtC01CM4SAPJWG4yQAKpZWKQAAHQbgKZlCtstNIFel2OmRC3KAWTMQWA6JBoAMmMDLwz1CvoJFxiEXI5TB0miMYCREAPwmEZtHJstAH8gLEYBG/wCSJC8FLJjmyFjgwhiQ1Qb1kuFnCABMPg5Bx5f7RkgEQAHBrExY1bxK2MyAaCoA1TOu1qnyyYlABdkqA7TK4pMwDomUToeEDFtIPxRFCYC8MsBmO3yEGs4XggVBiYoa40UkEXFHwDAFMSl8MefJaEYBvr/qr3EjYBipilsfvYWTO2LMBUEZqMfASMECR3BAEgaKChNmAJUNm87DEigZpkCsVOJqILQAFUd6lNpCzQaAqCHEGyn/AH3mQuJACxzUpKmNHB9C0bJQADCAEsq0x9VxyitQAI63dferGncZ4IEMGBjOcqahBABAkVkuWy28yjf8JzEwDKDEFgaZMBV3vUCT3BACmHRp6zFMJLFsWQfyyWyWy19oZtaHAg9fKJCCVBVgc4LDNKAIONAqYwNmUl8BKCcUhCyZEAjhQhMDgByddHAKBB5UUcdeGUcAGB+eVo9JOFKcnPdhT/RyIXMLkMHABoZEoHVICswG+Uu9CTrIAhdYd+jCDfagC5LkuS5Lkn1yXJcsf//Z" parent="1" vertex="1">
          <mxGeometry x="441.97" y="765" width="84.87" height="75" as="geometry" />
        </mxCell>
        <mxCell id="nHwe-JYxMAztrHhhpzCX-22" value="DCN02" style="text;html=1;align=center;verticalAlign=middle;whiteSpace=wrap;rounded=0;fillColor=none;" parent="1" vertex="1">
          <mxGeometry x="405" y="740" width="49.08" height="35" as="geometry" />
        </mxCell>
        <mxCell id="nHwe-JYxMAztrHhhpzCX-23" value="" style="endArrow=none;html=1;rounded=0;strokeWidth=2;startArrow=none;" parent="1" source="iKYcSD9UfC03l7dQsfJ--4" edge="1">
          <mxGeometry width="50" height="50" relative="1" as="geometry">
            <mxPoint x="175" y="720" as="sourcePoint" />
            <mxPoint x="595" y="720" as="targetPoint" />
          </mxGeometry>
        </mxCell>
        <mxCell id="nHwe-JYxMAztrHhhpzCX-24" value="" style="image;html=1;image=img/lib/clip_art/networking/Switch_128x128.png;fillColor=none;" parent="1" vertex="1">
          <mxGeometry x="575" y="675" width="100" height="90" as="geometry" />
        </mxCell>
        <mxCell id="nHwe-JYxMAztrHhhpzCX-25" value="" style="endArrow=none;html=1;rounded=0;strokeWidth=2;" parent="1" edge="1">
          <mxGeometry width="50" height="50" relative="1" as="geometry">
            <mxPoint x="305" y="771" as="sourcePoint" />
            <mxPoint x="305" y="720" as="targetPoint" />
          </mxGeometry>
        </mxCell>
        <mxCell id="nHwe-JYxMAztrHhhpzCX-26" value="" style="endArrow=none;html=1;rounded=0;strokeWidth=2;" parent="1" edge="1">
          <mxGeometry width="50" height="50" relative="1" as="geometry">
            <mxPoint x="482" y="771" as="sourcePoint" />
            <mxPoint x="482" y="720.0000000000002" as="targetPoint" />
          </mxGeometry>
        </mxCell>
        <mxCell id="nHwe-JYxMAztrHhhpzCX-28" value="" style="fontColor=#0066CC;verticalAlign=top;verticalLabelPosition=bottom;labelPosition=center;align=center;html=1;outlineConnect=0;fillColor=#CCCCCC;strokeColor=#6881B3;gradientColor=none;gradientDirection=north;strokeWidth=2;shape=mxgraph.networks.virtual_pc;" parent="1" vertex="1">
          <mxGeometry x="550" y="400" width="115" height="85" as="geometry" />
        </mxCell>
        <mxCell id="nHwe-JYxMAztrHhhpzCX-29" value="" style="fontColor=#0066CC;verticalAlign=top;verticalLabelPosition=bottom;labelPosition=center;align=center;html=1;outlineConnect=0;fillColor=#CCCCCC;strokeColor=#6881B3;gradientColor=none;gradientDirection=north;strokeWidth=2;shape=mxgraph.networks.pc;" parent="1" vertex="1">
          <mxGeometry x="341.97" y="590" width="100" height="70" as="geometry" />
        </mxCell>
        <mxCell id="nHwe-JYxMAztrHhhpzCX-30" value="" style="endArrow=none;html=1;rounded=0;strokeWidth=2;" parent="1" edge="1">
          <mxGeometry width="50" height="50" relative="1" as="geometry">
            <mxPoint x="401.28" y="660" as="sourcePoint" />
            <mxPoint x="401.28" y="720" as="targetPoint" />
          </mxGeometry>
        </mxCell>
        <mxCell id="nHwe-JYxMAztrHhhpzCX-31" value="OPC UA&lt;br&gt;Client" style="text;html=1;strokeColor=none;fillColor=none;align=center;verticalAlign=middle;whiteSpace=wrap;rounded=0;" parent="1" vertex="1">
          <mxGeometry x="577.5" y="410" width="79.46" height="49" as="geometry" />
        </mxCell>
        <mxCell id="nHwe-JYxMAztrHhhpzCX-32" value="OPC UA&lt;br&gt;Server" style="text;html=1;strokeColor=none;fillColor=none;align=center;verticalAlign=middle;whiteSpace=wrap;rounded=0;" parent="1" vertex="1">
          <mxGeometry x="361.9699999999999" y="592" width="79.46" height="49" as="geometry" />
        </mxCell>
        <mxCell id="nHwe-JYxMAztrHhhpzCX-33" value="GDS" style="rounded=0;whiteSpace=wrap;html=1;fillColor=none;" parent="1" vertex="1">
          <mxGeometry x="505" y="660" width="40" height="30" as="geometry" />
        </mxCell>
        <mxCell id="nHwe-JYxMAztrHhhpzCX-34" value="" style="endArrow=none;html=1;rounded=0;strokeWidth=2;entryX=0.5;entryY=1;entryDx=0;entryDy=0;" parent="1" target="nHwe-JYxMAztrHhhpzCX-33" edge="1">
          <mxGeometry width="50" height="50" relative="1" as="geometry">
            <mxPoint x="525" y="720" as="sourcePoint" />
            <mxPoint x="385" y="690" as="targetPoint" />
          </mxGeometry>
        </mxCell>
        <mxCell id="nHwe-JYxMAztrHhhpzCX-35" value="Internet" style="sketch=0;aspect=fixed;pointerEvents=1;shadow=0;dashed=0;html=1;strokeColor=none;labelPosition=center;verticalLabelPosition=bottom;verticalAlign=top;align=left;fillColor=#00188D;shape=mxgraph.mscae.enterprise.internet" parent="1" vertex="1">
          <mxGeometry x="345.25000000000006" y="430" width="112.9" height="70" as="geometry" />
        </mxCell>
        <mxCell id="nHwe-JYxMAztrHhhpzCX-36" value="" style="endArrow=none;html=1;rounded=0;strokeWidth=2;entryX=0.5;entryY=1;entryDx=0;entryDy=0;entryPerimeter=0;exitX=0.5;exitY=0;exitDx=0;exitDy=0;startArrow=none;" parent="1" source="iKYcSD9UfC03l7dQsfJ--10" target="nHwe-JYxMAztrHhhpzCX-35" edge="1">
          <mxGeometry width="50" height="50" relative="1" as="geometry">
            <mxPoint x="350" y="590" as="sourcePoint" />
            <mxPoint x="400" y="540" as="targetPoint" />
          </mxGeometry>
        </mxCell>
        <mxCell id="nHwe-JYxMAztrHhhpzCX-37" value="" style="endArrow=none;html=1;rounded=0;strokeWidth=2;entryX=0;entryY=0.5;entryDx=0;entryDy=0;entryPerimeter=0;exitX=0.91;exitY=0.5;exitDx=0;exitDy=0;exitPerimeter=0;" parent="1" source="nHwe-JYxMAztrHhhpzCX-35" target="nHwe-JYxMAztrHhhpzCX-28" edge="1">
          <mxGeometry width="50" height="50" relative="1" as="geometry">
            <mxPoint x="490" y="570" as="sourcePoint" />
            <mxPoint x="540" y="520" as="targetPoint" />
          </mxGeometry>
        </mxCell>
        <mxCell id="nHwe-JYxMAztrHhhpzCX-38" value="" style="shape=image;verticalLabelPosition=bottom;verticalAlign=top;imageAspect=0;aspect=fixed;image=data:image/webp,UklGRhA1AABXRUJQVlA4WAoAAAAQAAAA8wEA8wEAQUxQSB8WAAAB8Eds+y+3/v9dlmWMZYxljFhiWcYYMWLEGDUiRkRURFSNiqioii22iooRVbFViarYtoioiKeKUVttETW2qqqqqKqIGhERERURUSOiRsQYY4zrj1lrzfo1ee7+NRExAej4v+P/jv87/u/4v+P/jv87/u/4v+P/jv87/u/4v+P/jv87/u/4v+P/jv87/u/4v+P/jv87/u+EUgz7gHgqJPxSWyl1p9P3eDz0S218BcllklvDv9ICKd8Cm8vjgV9nkm+G+o1Z6ZfZ7LucAdf8v8ymPksf9T5p+GWuRO9F35O8mNXkX2S9yb7XPimELZ6+1gAJkH6BBQcq3BeBhc07PQD8QPRXVzjelaqQfCsgHlfVNACsfUVAQCLwX4xybQjb0/uqdmePzXsa9CPql3IypI3xZcJJt3v8/zdoUMyoTlOhOCkYUW1Iuc7sgBlZPx57tPKF+kVZX0sMj0QGx0lu3JKd+2xfka+fAVf45P6plUKhcMzTQqFQKK5PhWUnKZm4bGN3n9JCOCHbmZIsik7K9oYjkSYlPinLsjYCJFOKGf5ffFUsvp6IAZIzVKhi32LxhFYWi3/ci0BMQrEPQ7R1Fy3KV7RVtUZ6RtvjTcGFk8qPk5ccUpcYMbNrfHJqYtdsxejnrs0H5i53nXyya8+PXTt/OEj/7NNoOOQEaK9LtPV4PhOUPQZu8O/a90+TX8DWzeALzvvOKZgxeXP+RU2nfAeGyuR+wygfgcmAAPh90H98B4BPvTBVHwrDiYEQgMjypT21/bkYLM85juSPBcW+0e067T/2tb8Y7b/wARCAt/1YvijeuGDUili+PrLbdLnQbYRPNFmf0kwgM6aoMOSJBiBVNcXatL8F1Rp0Y3GnQQduDkUVzyAbL2UFqmXh7vEdOlNoe8qcAzgG3UIWywVuFShYEBRT6e47BfIq2z9gpGlzSw29+tjNuJlXXIoaZWUAYup1+VPRBCuDprTiC8ESf+6UTi1OCppnkMeTPsUqMbNNp7a/4KETNlW9CSwXVnjLEl3pAev3AdkIsoxnjaZiDM1CWEYAgfUG+X70gZ7JMZquPAHisqQCkvSBXL05YE4OpGNLJTr522ggKsoeQX7rkpSWfILU07vS4DVJQrjmBCZ1fstiejq9ObwesAr4o6j40WLwGclSEroTlcvpQPBRgyTz3XrBbKjJL1ya489uRU1kNcB/SpLlYXPwje7S6QdRBD2D1Qf9/lbEhH90nw5ud37cpSMXdZCEEgFCWtw6fyKJVsXBLVY1NaazSR7hYYO6mxGd6muxafWK5q8eT6RunnId/g/U/RQ2EUbkC11YL8SBLo8gX0I25w/5V+u8Pmnae2d80dFEwK9B1Pqts/jFMAz/IPMPabyt824DADS2+huACEntOw0PRoy0hSu68+qeqHkG12BaS8T26Ox2p47ToWkZLu4XjJBIRp+Y+KQjJpq6vrEyWTXxSgPE2BU3izS51a0XfUbXXqbT3sFFU5B3ea0Snzvlr26/C5SkXkgyUhGUAy8MjsZ0dLVIPKtBWTB4JgOQQ9LkR5ou3esJqwH/Dt38R7fPM65uSHpBGX17dHqwzQn7TvkSgBvHIjpme3Mvcr29qzqliZRBEMrS51hYApKvdZ5CP/6cLS7e7upSPtLdTzXPYDUZ1+kODf+k46faXD+dWo05L4yp6l8tLZEfoWrfSB5l+kQAYYQhJlbI0gjCEIf+JK/GY2EAYTHw24sWTgaVWz0XdPsnn2ewIOoIsQNet5Ycw3nZSdH8OND/lGReBjCeDxk8JT9FAeGA9ZFhQJSVNABlhST3c5FeAE/5GxDJz2WADFs8vulD9Dvd/7FX9QreBqAAb3jtOnXOieakofI8MEOS9WkNmGwMGKQ3VkQFCM2/zN6KA8o85xTE16g/H40D2dkI8IzciiHdaOFvKHPv6IUrimfsRABEV3ntStPBUauK1lO3ViwWd2vFVg9Z1K+QxeI+jUvFYnG3vF8skmS5WKy1cFg8OqY3FvXP3Mc7miqN1q5fL530p1X8v/5EQeQHr18NJ5U0i3KWPsvl3pjYzuZyudza8eKTuVzLf+ZyudMWtnO53J5RZflZ7tGf87kSefIol3uW9476k1wulyt4QGMMr3j9ytLRMxZZO9z4R9s26sX4Sejmd+bvqbDyLlvcSomrFSP+jKcBQCtx0w+fuu0dXASAnAdw9gGvX8G3znrloNibAUUp6FzdjyNz8LhOciHlayl1Y+nWe3PVhyvPaPrwVRO0yXkRyjw9tNLvFZuNa1io6qwLv3MECUD2PcnzXJcM4XaNzScnPWoL/We86n5h5qKn6x5bPIlrMExWvIRfIwFvcG9by9HhM87Rzdyvk9NhAche0HColT6Sau8/RtWhmw+uDKrPPjfx4nejd/TWpWGbLnebL71rsZ3967Qth4naveVETAZwRONcQjNQAgDwtLaWUaPv9S56J59XaPgMog4/GYTp1vrfNWvOBJsKaPYHBtdL3lRoY+q50xh2ltk1o1IaxuPaxKkGCAAQ+tB0cS8/d5vGn8UxvX1Jb8Gyi4Jds8r9uiW87wgASeHd/xl36Ph81CXaO72zrCYbaWNVloZkNKvhA/J86Au5PGZkfHFHRxEbliUwb0v9kSINTdUsKTkF0I7cVt7L5/MfDi+vCwXnffI5QvJDUgGE5bluTQe+ZZ3BKAx7ewYqJEsT/iZJkPfO7isH5Jz8oNLC5oj0cgQA8rR8TFoyUz85OTn5aaY2GQIUTFes4JBjhHTdTZevx6Hvy/51ch0IVJzXGHBEv/rwLgCkN/m/iB6UV2Q5nYNhX+xxlc31DRG6id9D4qP1P/3ArYrej6ZXISFPPgHw2Tr+pOHVzqQ2BiA09ccXvdpMJASExPhgxYp5x/giP91z+SrSrxg0D39tf49p+fmGZVx1RNcO6+MSsN5g46MY0+kde1UfCGoQAwEBCKv3a9RvLAJdCqDF0Pc7IgDSz3Ve+3rJ9z7xHcn6UleCDnwYFyEAgACII+9J1h8iHAOgdIdHrLhwDAIHrtm+Fe2WRVMQbp21t3B407p8xLoTRyhX5GQc62z+kIg1ARAAIHPRWFSV+BzJ9akqm2eVuAQASmQgLQPw3VhqWoDCi251i8210Rn7jrtg3pcYqnNRO2rMQndwvd5abdkx+OSW08E0Wpe7N9taBLQ+G/hpGVWo9gk7lb1e/wPqH/WH9XSnyLoa/b1KloFlHU6KaNb8Gb4QACC9QvKycPqhe7hO/cqhDb9hk+RrJd2CgoH+cXGBpJ46MFxriV+dc+aSMz9SFkC5M3faxjBrwxiOrXuuoeVI6/G+ZCTyuGHArxHj/khkgtzuz1VINu73/dBrzA5GIpHI4MxP8nUmEolEhpZIspSM5OlEBTPkx0yk1VgyGkTP72Xu60HKTFdastdcsOyOrylYLcff8kPb2rEBeGrdwUh3S2y7R6VWDheqtLR2B4hqicyAAZAerLhEW6I745pkFWLKdrtSUg3rPgB3reMIWt6y8Iz1ra0zg+qWyVrTya4lX7a2roy2TF5YczbUX2qBZHXLyjsAfPEQRIOgKGKw5o7MuTsWtYTfsr5gz0ybCjyi9S+BpA3rsZYsDFbI2xCW9CZg6Ftg8358Q+94y8TlTUyS+2ulpv/BuLdsxXFEUvpLLb2B5dGJjQEDANo0XRCMjDXoygsVbvcmXNowBYSq1pU0+7DDSqQvg9ckj6dhPEP9Q+1LU0VGweA8hEmSCUw1cV02eDJSJrlbMHWaAjRlttRCbcIyZZIsmknRaaIsp2aP6dJ1XEtu0EYBQNE6jjogsJwBAKHAozTgExIbo8AsDc+V0GeSlz6s69XivmckOdu1pMP3oS4dRbxFXkn428RZn9IlAbhbMleMWoZbZMWoa7bsqHKxWDyimyPXEV/8nQ1nTcs2fHCAceC3mAyIgSuWg3M0WZ2Wt0ien1H3ckC6W29ilYaHPTqQPpLVXv8Xo5KmzP0uAuHIYM3UPKxXl/YHDKKrbKsl33VEjF/a8C8AjNrAoHMkpVcEoDbIFZquqfFdGn+/Jc6x9Q/hpugbkqxVaHgk4wG5DIh9iVjJTMaGmADjR2yvu7iW3KWNuaakHU+cY9j1ZOfOrrl6QkmcGgUhlS3g3ACADbZ4GgOWyZ0YAHRNlkzAicos/wPAph3BJjRs2JMSDusHVK1ialWdEcdOdcpJQMyUWztWAGWTuo2G3rECDbc//cgqIoCUljknKxXHZPlfgHZiw0+/Tt6G+n04XAtEfMiaWQFkIPWe5I8+NCfrrayHAN8b6jZuJ741nSWgKyUgA4AsJKtnYeXcLlmEBCjj/E8gRRu/QveJDfyf03xfuS9i/NLgYQjNys1LXvqhKy608DIFzfeG+lcSlptOQjoxDYbJbOUbhEO7EPk9CeUF/xtYtGNBb8iOE6fdIakCt77rLEHUEfvvLY/A+Kapz1omEn1D4/UHlSYeKQEgvH8RN4iWyHfvaFdgmNPKVK0NfReuI8d2jOrBjka3w7DNFQBqV5XkNgznuCXCbNLEcRjACK08kINintyF2qSc0jil2tC9TL5iW45dQ1K0sRI2KNrADdFhADSgWxgh38qAyDdBdZLkVsAMRip6X6IzIQDPGxbwuLv/dr2xIAKAekqT47BRWGO7/ufaERQ/2XECwxU7Tl0AQJAwPQEA8nYOC2wup81gptG0HgLgn5WQs4IHvYgmAEBNnpNk9dF8jeQnO7qrbev7tQP+CzvyRhN2cChh5syd1G+cmWbzj7Ozs7NzXpydW8LDNHQzJTZvAUWSlTMbL9m+p68b/iztnDKSbcn7zbC9HikBAOoP6jbu3zxn+175YdNx2J5ej0nQAcKGLSkj7NpxJpiZcuHaWtVof0p3kfznwZT+M72d+fmXJuZfG/Ag5Uf6lC3vPJ2ydn7Dyy6lvE18qVqWloPvC247EVtIOiFetaMMkwU7OGHGhVph+V5Fb38hAgBdR+S+DP13PJ97T3Ixpsw1dM4yyBhxfzByWpuIX7awJGqwVNzysG9B7bldXJesUvrW6DoGWrjhhN9p556ZGVveuSpxUhha1jkOyT4A0RJJHvQC8Ekb5FOAJMvSg88NkhfdQLhixIMfvPRhvYXKYEiSrMBk3asqT26F5THbuCpIPVZIg3v0gP4W8vbUlaZdW34WTe7bQslN6O9TZv4h+WMNzV3fqXs4BgQ/kfw3PNrEzzH/A7I8Cgh5tvi/hVoLrA0pPS35w0Byv2HLnntOUvEogEPb+E1Nqi35o3+Rzrhh05q5wJk9JwCgNmxx7ryrIKJHfcs9yd8UPqLhadj/kc016p9J+OtMA7BO++sriikZCH2rjSHW+9iO6qJbzkZExBQAH+1j9XGiFW3mkk5Bw55Gv6kZ2udboycW3dXcPRkJA0D4iCarO2x1V72vQQl/pI379450yLdjgGIQHlDvkKcAwis2fMq549+MAMMRB5CXdzNmUosX1HcftzMJv0H0wqY3AMRjb6hFXJdN+dR+IHlEKy9rBtyKAcI6Wy8WDPbiSvJAj8yPBPUEOa1lGzwGgqIy17DsgfMq5cK9GETZSDx2AsniylTzTOGYJh3xySYeT+gF50u0eRlAHz1y3nUyHpyf3Bor0cr3Qsaomo6KebZeBv7W2ZeBgFwxIBvF4qNcoXh4JMgYnA9Bd7JulWzP8XLrmVQIkASYXnWItY5YtYssFQsvisUGbb8JIO8VZ6LbgDPywyktXUbQoHpTDuRpYXVAuWjai6G5+8DI8CgJ08m3Fn2APQU4srvuaVn7nFpVABx6BW+7L0ce0trG6p5e9SbEj7S0USPJHxJ0+4dOWjiSASAyZBATHltzywukd54mesVJAAjTM1+4D31D/V+sMfkoGFmnjZUBGCeOzL0CIMauuKIH3Dq24hBegGjdNVNOQNEjPgBY8I6fEfdpSPX8aOV81Ux9OtX7ijYeZgZNBNUDU1zRgDvkqUHXES1sjHlDcM/TVjxiGsAX72BWdZv8ZEIK9H43VxrG7YpBdQT4nTZeyNC2izdSOgjI+6aYFyD9ezGrE9C+08o38AZ52NMy3lABkKKHFgI6Sfe+J9+MJZ+dmqk/TCaTrw0eJZPJG4fW7QWABfLLHT0geWCKS5ooSH6dgVNaWRlNJpN/eYAWf+ll/pInLAJY9JITPbbnvSiAh+ScYAT1xBRXERJjTeEq3ekUIHPhYXjnCaNA8NJLmNYpuP903+DfgmGd3PlQ0C9aU7kBAPLkPEwnqqa47AeAoHJES08LzfuegFEPU7qqHvAPIPXTUws6Hhj947Lp58if0I/vlosjGvSju2Ya2zU9rogAoKRMCUskT2aMmA8C6DqipcdjKgBxwRtSs96l3XzpAWOA8tpbGJW9QVZGf5KXN8KyQas3jo3qU8lFA74cBmK3JqJ6ShSBZZIHaWn2yoAFqMp3WjsM3Zw3IL7vWfAFK6479UEJlj1mWvJ7AhC83zgflWB5+FSv8TQdv7djwLWgdpdc1IsHg2skL0cGo0PJSwMudX2npdW7KW9Bzw/PgnbfbWUFUEbpsXvwyqD6oEfssSzWdbOksyCKiihtG7CABfJvPWCV5Pc+UQ4C81cGrNLS6k1B9BQFQqTkWaL2zmWLfgCvvaameoX9WonkH9AdfmfA56nNHU1PLZDc0QbQrN2oGlhbz/ph6BHN/SXnDTsEGC+6ajMEIPrTa7gYaxOY/Nl41q0HrBhwQwQEAYC2RPKrX4G+kKnYUM+mvUgbKjlOcIwSLbnoS7TbD0zT3o3prIXjCw179qV2Icfjd2Goxv6u6DEvINQX6PG/InkkwdgXT1t3FINZD5ET0ZJXoSd65ZqjsAzE8MGmTAgWyjizh/F2YV5DsP9Aj0v9QMy/RPLyrmwCUDKXFn264VEIBhJvvUoJpEsuOervA4A47b2ExX/ZtBxoQ4CK0N96XIr3hVdIfu+DLJmBcufKivrTgAaPikLsmvYoEUi64zQhDjU9salg1R2bLqS2BECePNXhc2WF5E4PWr9Rbe1dv4IWvUS3d9+TgODw4DsXLHWjuVc8smnNqkjdHt7X2lTQj8XTJm6T3FOUdGvScN1c4/AeFHhcum+j7EkK0sqTc4d9mdVGtCakGzYNW4WiTZtqm4IM+KbOqF+7hdalSJ6mvz2Io3XFc+ALBP+peJBu999OOp0WYPySNocse24T4+1Kt2vyVIf1aa2lWJ4mqx+HFYTaAUSg723dGarjQqK6XnHI5QO/AOPgV5tOBMuG7Jpabucvllc3dNgYg99nKrxOk1cv3y+/WF5dtvCz92hAFNLTkn3vHysugNb79MwB25N+vwyT3TWbNhXLhIZNW7wuZuMwGRTzdP2OOwyFqcKhDReFSQGuFSbW9m35dz6FVn+jzTnL1PAXm5i9Jj5Mqaait7MufzCbdhWgIp7Nb5TLNaNqpVzeyC9mE8Eo3K0gOJ1/XS63Ui2XP6xmRUBpKT2etVe0DOGsvTNZ/KcZSRl2heCxyZR5BW02jI7/O/7v+L/j/47/O/7v+L/j/47/O/7v+L/j/47/O/7v+L/j/47/O/7v+L/j/47/O/7v+L/j/84kAQBWUDggyh4AADCpAJ0BKvQB9AE+bTaWSSQioiEg+ikYgA2JaW7hdVEe9czA8Fj0nLJGht5fzP1D+K10wPMB0XfQO/o/Ui8+37Mf7i5S94Y/pv40/s/48/1b+m/sH+73r/+L/J/2n8lP7n7WX7J5FuhPFP9lfy/9q/IP2U/xvgT8N/5n1AvxX+Q/5H80/8J8OHyPa66L/g/9j/afYF9d/n/+n/t37l/3/0iP8D0L+t3+n+4D7AP5Z/N/9R/e/yM+Yv7v4GH17/L/tF8AH8t/r3+2/u35QfSj+9f83/H/7H9s/Zx+af3f/lf4r/M/IL/KP6R/wv7j/l//t+////+5b/0e3T9pv/b7lX6x/9f8/w45tdwHoXulC4tVw0z4Ze6ULi1XDTPhl7pQuLVcNM+GXulC4tVw0z4Ze6ULi1XDTPhl7pQuLVcNM+GXulC4tVw0z4Ze6ULi1XDTPhl7pQuLVcNM+GXulC4tVw0z4Ze6ULi1XDTPhl7pQuLVcNM+GXulC4tVw0z4Ze6ULi1XDTPhl7pQuLVcNM+GXulC4tVw0z4Ze6ULi1XDTPhl7pQuLVcNM+GXulC4tVw0z4Ze6ULi1VThO04ht5zXsABCULi1XDTPhl7pQuLVURg6T0fNbz5YRhTP83WptOJVn//TlFxt7S/3/4YNrFwPNUQ4N3GxSoQZzBDRpBtJdi2fHylpr/WSrNolEqCxBFbCsZ50SMlAU+9y8/sYpwyT8RGsK8wFG3dZrrMmhVSYo98pK+TWN64EDnlqN0+7N9/i6gfIrrC309LsZ7bOGrduFwYjJ+9VH+5m/fzm0CHUv2XyRUgKnufEzaAvW/Chifgt5w7WjPe1ANIjnAYKUDwby05clEHHjmPfXrLFyJzSEsBAkFGoGZE52iCKlH9gxX2CGZgjs0w78ourtWp7XVlxDCx3U+OQWnJ0gZN8eAzrSaYMAP6/3uIb+d6kQ8gOCCDduJ/E0sLUxRqyhOWfCBuEzhVE+C/LGrIdIyjUEaoCDmL656/Z+Ba/XUjAYgNypVBGfoPwiZMyDPP3e8nzWGSrSu+G59ErKToulZPW0hEsy80nB40BpWWC5QEWuppQSNtJn8Zc46nwIwaXKSkfoMbWJnOCaNyOQCA8ywfiXlwQIV+sAK2chVLOFkckDqLmmvPYEEwq29GzUlikbV5DRACpzBTfNisA6GSU2KdGFwrWGOt027bgw/fFa2502BwglwZ+VvYe6Wn6dxdMqFl+Wl20Ku5by+j0FUgoRyJpjqy+uGOjSrataFWIG74FuhfbSobbXld9pd7AQl9kTPWtFfzKQF7Kx+85RLCil+Qygp0a4SjyVOoHeFmwJppX8TfHAZeZ+miA7AQQCMp5Dg5eVHkBfzd3jUh1KSseMI9J+V/z0HfUOd5a83S7xfCoW+0xAhPfaK2DNZYUwJrx4a9pXPO6Pf0m8bTJid/+EwjGPQftqkU/9HayPCpk9fygEOwvOe+xvJt60pqD9e8Wh//ahFogd2W+9YbP1r18BUcfwpxv02NDVL+J+OxqJ1Ry3r7GMXmlV65uXfteJCskI5ciAl5pkWGmfDL3ShcPyQCnC0os2uxuQHoXulC4tVw0z4Ze6ULi1XDTPhl7pQuLVcNM+GXulC4tVw0z4Ze6ULi1XDTPhl7pQuLVcNM+GXulC4tVw0z4Ze6ULi1XDTPhl7pQuLVcNM+GXulC4tVw0z4Ze6ULi1XDTPhl7pQuLVcNM+GXulC4tVw0z4Ze6ULi1XDTPhl7pQuLVcNM+GXulC4tVw0z4Ze6ULi1XDTPhl7pQuLVcNM+GXulC4tVw0z4Ze6ULi1XDTPaAAD+/7+cAAAAAAAAAAAAAFpzhRLON90BmcRzUAsJ0g0on6GfdXvy8Vzehi43W9il0fz8XBAZ5klfvDvO+ksCg03PVKd6Whdq77lk8uE8YXXmYBQEOryYjp2wh2GiGh1Bb3pPeVblMe2NixN6efZedAtXeiGQBIsNj/RQYSPC29ZTGXNegxMHag3oLSeJYxD1sow2H2gWq8E/yIK9vOoHX3DMCWFEk3vrKt+cf70JjoLxiTb0fdqAu5FdA4h3lMsCu6zqG+mm9SXKLEIifctB0issO1iZzWA9BDvkfszczIH43ExjJCUY94hffy8fSFgVo+RmRweGJkig+UmFc8Jgah05l8wsiFY76yT5GtdguqsdUQadCXBQzaY7p7oMYlANu5vC1/5Mvd4mDBNNKxxmrzBTPES73FU28HBzjLUWia+rNAQd58+UkmZ6s7TKWP2WBjo8Fd+mmSJjchfhvNM8/IdZm+X+SJ0JFVprxob4su6IIF71Uq0YlQ5jh+l2S/ueGHxEfboRyUD/6mVcjMDauo+It31du0i1pFSkkleO7YLrp3URTjhPHl1JOoIWz4D49I70ht+2BJ617lnQf+zL5ml+v3s7xhaKIj8gsvrBMHujlrSI6A7QK8f9UP6ijx/OPnJkSAkRnR4F06OFFXnAsWhjFDui27rahvOZqtDETVz3dc8L0ngyiPIaqpsdQXIdVF06aELPWgFzyWETb5qPlAbdSj97oKIowQpORKzCFOeqbmjZT5fFCn6QFRtr8Y71TGNUcGzjy2XFJc0z+amaNOJrptUok7JE5nTrxD8gSXyXT8Y6tFs6YhGmczuVeZL9ck3TLvgLqgeidkx1Ls/akDXBMAAjhJv/R8AtonSx+1AHCBZmkkSjWk6OiPLkHN3vW0EAeq81dX1FGO3RPHTUCqH5Yfc6OWgn61ec3ThrKsnsgO5m0dEu6QQZIrCLu8HjdgiC0kItBCqMeFQX/L8geml2oEzfumAMWSzvaHPSCqXDMovMzEZFayQbDjpPKZDsvURXLnJelkL7PRR1Ng0zYU3ubUptmhtUYn0S9k5rg9hF5PNpaY/Fzsmvg+J7T8kVeJbu57qT7o8ku7A/kO2kAKDgJjcQcHpeYvw/T7jTeF3YtMp3JDT77eBMKiWISoAYk5fc+2h6Q/4n1N4zidhXPJN1aGNsUQjHHctKhI5SdoE018equrBhfPQQhP1nrOABehxyvlYkfw1hgLZq9lFs7RncFQX/kpMyos0Q7LLiGzENlA9+PGJoGsr+9J//3ImeTSRsAQJoEg39vqG5wHybyv/3nV7fADNZZLANkwsIYZykeZVhvCLDxKP5CAuuSvMMzCjG45B7Qg4B4bo+m71Hs9kPKMgCsrhneKuZIfTM2k5f95apk4v5aa26eI6LMkkHtV0zDfhXjlK+sQo7Cp+QEbdC/VqhHS9Y6YBEFPfbm8nKAHfzQeokbvtr/nfM5hn/R5NljkfNh74/EgMT73rD+LHBvgVhJYFxCnuUp+Z4rKDCOLrRVuLdOVjb/0JK8UkuWe8ZUVpeLyNxQ9jHuzrmqXEUN4A5MVVM7AFxtm1acIBkKeZBC/S7CPH7PQHQqRNIhGNqI98cu2w3ZsINerugj/Hcf3dWgS2mZ0jXohwYyyZbyXa/ZNaqTsPt+S2Lx73M0YHFAOjkBs706ijr/112IZd/KZCHQDxW1mORkCxgMdid0SgVSIWy4XiL+L0Pqzu6i0tT7NU/amgWIC0//sPCgWh3K80FBwIZlx2gnvteAQgap2mMrWIq7XWKSnxutaM61N0yFHDPuQsRB7hiprMf+EWRfuyfXMcQZl3oUXcmiQb8BLMor77zh2Nq2mkcqVV6XxOJ/BCe7LsKyGQHsWkeaYZxEcM0dd5pIU4tsJZS68P6DJ0CFQNHDUtwHMu3pnMZvsOevvUa1MaDWFR4PSBRpolMB6/xkbVA+lxWNqCRWqotKwwroTA2s8wo/bksEJbeNNLcrnl/UqGDUMBb2IyDakAlxGuwQSP93152kF1YDvLgolk7Jhf4EnuDLgfp9EbRDLszHOCsMxu1FBt1PmyXe4H5OyD9ZmIq4q4P0pD5Uzg/GPu0XRVBEQOYXEcTP9qVTgB4efVbPgGzdNr8C3R/V1eIh6VLVw6RFsTaz8VUts+yf+HjEpGFDV57eaP2x5FgaOikfzPced0B3yHTu6Maz1j4Fjh1vHJjzpRjkQ+6E3HglOpi0mwirKiPE7CH9YH7WPaYiXHRJFoDXBxuWLip3pC7j0PI3+zh+rcv8taD2J58WTN95qg2hGeButvLBtev0g2OP3xE0D8X5gikjvBVb21pRbsUOpyHjhB9r69KuYqorw/UuvP9FAzym1Q0FzunAy5hgutkMeR/gulTfdQu226S1UHbR/JMYU69/IyPuLX5zunypSnvN1O6Q/rb6XBALAa5xeVA4yuP4ZN3Xo2/XDEblRC/+AQaFTSXekrlBT6weZvvdPYK18uM4VJxmqLjPltjW5NCfTh7mDNX4DdByrp5dO57YU6ov2Fd2YJRne//OprDGjmX944IKRLfWgSJ2YAABR44AL8hdaE6m0wZK/uCUNGO+GCVrr+tU8K310YD+CXg6kqnbroeTcQPq6TSfcE61RMCq1MSBWzYQNBsxAXVAmTgjf+UirT+LyihS/KnJiEjlpzz8U3Ab/aAEudWr8xr7UsavuQT0iEV1KigKAuEJUF2YlD10J6K2+Wy+4b7xSk4JqhY+wWi0XLTStYST9EaWaj8FLo+TsaLH4G9SaiA7P0x/lHkbFHbNvLwpL+HwuZazzO45XcrCjN3JYt/gBAz1oZ8z7Bqh6mJmi57llRCO4/vOufMgnwPJkHvKLk7c1Oa67LU6kByD/Q8svTfOUyQxgEL93snaPSqhFuMvYguGQBnPnwPv5Q5MERiRHbyCgsR7bhOUAZx3srVHu6bKKdqSvmPwiYWk7bB0ZCjRLHZcKP/zhkwTKRACTRQvKICdqHkCDJqioJ+XJfzBpzJ3W/BJVFjjVxXsvVky8Aoui1KLdBQkOsW5j/iyN/fTA3dInLkDL+nikJQbtXTlaua6ZAoKY16jLQDq4NNTAKLJIhkP48BqH5wv4+fOnjFCiMc2V3/g0+Mz60z6GUQAtP2KL4t8oLNblHjqR+sByQxzjTDX+I83DCvSvp14B6GLGjhckw3x30T54i394VIDRanHC6wJRqjb0Xy5U2+K1AWd+P6QncbDvCntZO3YeGOVxQRyb5fHDZ0iwXheHWPV3kOE5bxS1OTKKMQmqWSXG1NR1n35qUZjhvx0Hmya+hQBn2W88pI3sbaVaA5jt9kRL9uQceJRRlW1H0/i4Fb5P6PcQyNI5UmP4EykC9KqvRoYWnvf49zUAUbisvOyyeBaBF0nA3JMJqYG0s8vqlo2iXyEZeVz9t8yiDOnCxjj91WWAVisy4TNIoT06XRSxsY1qWrdgaVJZB3nopn2SHXUFhULMC9gyTQxbw+SROvhvVyzvN2ZJg0chDV+7EzQZTlT14fsBgIaSnKtk+V++07mjwjq75AxfniNCjL1eKo5HaLOF9e1n0Z+zWBl+gOJayykFujJ2Z0uvZe7NgG8RjDZl/AQaYOa7G9uR3H/arX3S3UpXPxcKfD2zjTnt9J+8/smXGY7HtZrw3bTQijLaDEApYRc3wvvhroAdf0paleKsMMzp5YL4P81i9g+k9FemMxCKSgm/HcRzbdVGrLAYmgt07UZGDUpetd8xmO65OMMY/wK9K5xRhrwYGdeTsW6ex88dit4s1JWZhsasg/sBHYdzIn5aXVliaBGiR8hF0TqU6J66/vspanaN69S15B0kBOSzlwlVLR+EoEWm03LjDe/ZaRUuNT+4r5kAMAYBU9E8r4tJzj0Qkcy/MIBjwfcTCgXpsGrVBPYwL1Yz8vkN5uc7osRAlEp9QeJskI4kEyyI7eBA+B2Roi3adIExgNphDGNxfZIRZhGyHDYFVpjZ9xNv8fM6n3gkXChRNn2gKaXcgrEcu09opon7QPpfD6XXGGYKj0bOdZqa9ktVyF1KSMiSS7a9wpKYdC2jvc0nZklel3uqlD0AYCOS6Gh5S6O7trkeAwoDPnGrZMKOynvyLeANlgPBZUoW1B+oy+rzCwEfkhSq1cbhKE503yYzWk7T1K+++eGiUSMQ8vV6CLNUp4ej4bDpNI4kvS6WcAobw5kZ4mLDB5HsGgmr9fxlzYFbBYvImFQp2U6xNB6abJpiigmz6Tu3DAGr+jJNiZAGlDj/BBksdomznCx9HWWDDJT8uOW2KZm7Qw2fahesPnFnYl95mVPuMtXMK2nDS07fluZcnDTGGs6sQGbN0THGe6WqMJ3U+4dr5uJlbQ8EZKKCtF9wxYLK/bQHwENm81jkbbbPd5W+yycNeeoxtBg0Mtpdl5NCE/PSA5asHOy/C7DaKW6mUlWGob9DqvbQjwUaUd4fZs8lvWAIanOyRB9O6ZHdl/mYpYjVQcHWVgGCHCJ5Q0D/Gxdd7VHjI8B1GR1y5jwVqNIs1pbVXHkn7fszYUOzAiR2f3VBA5WUnEfvmPFZqdUYqvlvVrcRJwoKjni1169RNtkA3nt0Gjz3E3kiTdhoazzNs0eAkaOW8hUwdRSYeRqujS0m+9KSHZdDvPz18F/DQvkDlty+SN9IpXLE/7ohgFgMmZc0punTBaRZf6HpSArmvw/KN3PssUg40TL4hjpWdvfAF53rtnN48GEyaQA+d/EcWoIyXALTmEz49xusHJXoGVZkcjHFH5NHTfkXQRYYToN3XJb9wz80KHH+Hrm5WYyZfjf9aMzsZI9Sl4/EKjWllYniqB1UUJPJoErfOt8Pu8e9IoyQrUPuyboIz2vUJo3w+bJobISixcfeEuYO5bg20yEYE1/MAzWeeNjND7obkdColUNnAsfsXtKr9QXIzoMzMJmtRN40c7ZM5khfkEP6g3pRqdBKdJ35qdhD1Rf4weuLAAL6DxEXeBQx6Us8HHNefU5/dFPiw2p/pgXB8LlST1j5XuN1SDk7/X8L1RaOaRvr9jZ0jjihFQkPEV/Goczm6yPQgct1iVfhEkj9CPdwXEHhAppszeOzMQPFvxDZmMC7u44BwAed3GdxrBKSsH3Y0GMXXZnC+9+5H/L6asD4xdf877oW+Enqh0oOK5bFBDK2GuQj/8+Qhy0LDVNx7H2+KEl46vzAczV4MIKxvhocd1qLdYtyPwuS4KX8AtqUxmnW9vD42UAos1cL6DNC613ahNmWqfbeh0YFDqZLtU2x5Z5epXGVOirE03wkrgh3uqrbkPses0R0iK6LMyzGfPQrIel/zfh32UodNJcGE4L8ZS/CAWwmODEJkWka9iYE00j8hNLwzAF1dYk4+TRzD105l+h3gOCHSGciNRxX4wcAJzkrxf2Zqs7b0kx7Ujs/R7zBlnyXZTsX9vD371HrzAbEGugidXVH9wbsOwndKNRE0xnB87bnuPDLkIGm4S6QT0xRvhUBWrZCV0mLSwalqwyyR3+deABPU6JnBs1VPWwRZHYPRTp1eIKxfr5t203vdI24XC4wPFtH4OLS8isq9VhhozNQpZBtVgQxzElhkVGMMen0173qVu2C14FZUsljxRQjjuGvKCf/wHKkLhOWzs0CA3rFoE+hFk4mLcw41ZKfp96MzntmgYVkoAZ+4yJiKjKx5N4NUabHfCG6XjB2Ox5ZFsteQkVi0Fbykb9HssUEzqx1OR3WK2u+3MCl7FAPJogwkq/5P8BHwP/hmo/j9KfQmXgd9CSJMZ1uUJw2Nt4cKx2lmItPYSS2PpMh1Q0CYfPUaM27HPIj0OyoXjTVwoR/LsRDyhWdFw/8awlQVxUC2MgbtiBzZr/v2BL+hQ4GwZNP5sPv9U1QxU2AFzB73SVkukmlQG2JQtqAyiJC60gFxuLpnlbcbceeCCjfMC/aD9u4K00bm8fpPJ6XgYQUcW/cVK0iQ62bOq+9ZEOX15akT4cSjSxaIEqLWeaLtaVXe7D5k9ptAVZFyY9X9gKLaf0PP7iwG2mDof6ayQw+GYVyoa9/8ThZEeXHiXTul9OJBVl/VfyDXxI+mRwEZj/wbvPuGhCFLjJAXl+INnzbTVo8tFpLE0WIXZCpXml/Ax41ZLpSZAlvMuPCwUvq6ZjSLzT/vDqENcJsgxjqnRUOTBCZ1MAq+Yx4AqfsjEMDGxucH9eJlMLtY4NdCffdox+whtihVic3yQFfKJPV7/uxxCYsxb3Ld/SAUOpHga0ztnJfbVANnNNEocGB4abCjzLgDwLWISX67/IFcnscCy9+k1bxEk62DchtDKrNEdvGec44f4Xkavv9bvSoyrbev7tIYAcTKpXrQs9SR24ka89Jx/iAxqNAAAr8svXlmtGzcbVe3Uer6ianOBbkdCY4RcHRH12CSlqlMkItDhT83/rX8xoZJrHKjLqGN4kYSwLoB/T6itDUZbyeLOAK1c/UTA1FIoxSop056a6/jbLZjffvYafr7d6AGfbljtn8WUTwmlOv7V8pYyQULcaNrFfWGMGfCQofVVLKjU4PXBi17y2OqRbK74yQs4cz7VxqGJZ2+HQvViYPKHRWEnCL8uV+YJ9vxEf6s0IIqh6YGMVXYBzz/6t1QAHTSYLmOOBiUfh/pUXpdafhWHpXFFAJg+U8ytiiJOlJqmwEqjFNJAPRq3Ch3IQhG9nyg2rQQ1fCml7mNvyqVITfBJbp6d+4GwrWWU39gK5Q3v/nssesBdIOW53rnLGH9XRSlJJqTK1e5pzDTHaKrwW7BtIqiCQpOk94V8mTZWwu2Zi7ALl9duu4IvIYQmtp/T4d4yWNjnzWm3jTLp3NFOzEgFQbjN5iDv/38V41q8nKYySgCIUAcIAUmC81EtEUdA4Imqq2pL8d3rWS9XiDTKFDdq//onw0u4mcEyh2f94JB3zxwe+My6HaXNzxEVR7m/qdRq0mXc3iwsPPM2Q1431hm+ONJXbaTc6CiDT/Ije+7dPv5soF1RNTpPfheK+OOXMkBRmXLAoEUJJFA8RBQvVYljnwzn3KJsiifsZfdSTRJvyF4Lv+wajYEXuTW2q162/cRyMXmCNkHwKerSV6eS+RtP2CJ1O+thsiysduZbaF5WkGxkJzZTAwy8TzMWNCadr9ObqSUkpnerbYeKBoZNfp253tZzckxtpSPdIyzKzLNB9i/SR6vCUMKdYiU7TPY/qduXUtm3Uil35A2Ir1ym1VoSLmFiP4PzHaFY4rJ6hlXVYeYTl7kORn8W2OkPNAR+7PIOaB/DoAKpqFca742Iq99HcUa1Wlj8dkx6UQB3CgFhmkayIq+yXjfZ4tcV8WG3ijnWgVk4mXghYlUbf3qGs89NIu2scweISPWug+mOHogo9lMnZbF85vx61XN8Pk0ch6h3rleg+fb5xaWOWfBFJt76hBLpcXBD59EceSAi82IO7w9/XKwHvIkljy2SQmjXjr9e3m44Xc3z7Jxk6YcGzyxMF5pPHP2hjNYJAD+4DZAy+vqWjuGuFXpc+mvf/F3E3JepDvzL6hc1smKOWG4to58lFOQAXN3RQhOHyvHqvjIirjjOvbJVMHFOwXjtbVFENR96jb4nZn297qJ7+EDV4gBbzg0aIksq1FbI8g6PwUiEfL74GG7PW4Lpn+8hC+99w1NzOycgYdLsuO8c92qcwMmxs7TDY9mZG+wrfhgdQw/J3O1BQOv0fCQF2f7X/NFNRXM8wF0b6Jqnylasj8XK6r0bQ5xC6fCmd9RT0iqW/Oa9/Q+Em+HOKu27ufKnsf3J7jQnuT/3A36sYi6TRvgRUsQUjPcqbuGxCXFbRrGr8CfDEo0kC7SND4aiGT1nZjPXpOQM3/Ox1vlPHqGVxKTIEtaLzxYNltKvQB87ZI8nzB1AAZ93RQrH9uPHZNXmZnYSB1EWrmmFnlzc44Pove7WKBrILU5nE9ydrg1QMfjC5lqeradAKgIG4Sy8DjCMUDCrtfhA3PcfS6VBYN5eLp2A1rbP6yTBFLla3IKPjdzQnDke5D/acZ6SRIIXVb+4Wkruc2C/ShvaA43/NZhRfC+/lLcUDzWv1GWLLJETecfTbVBjtyiCls0WRPszPgy2/angpXtJdO5tOLpq8ODkLNudb7JZK2hFB5yFoOzIp4/pSXuXJERQuKbcI/JRBFOei72MZGX2mgAuDSWPgaJinciuHPnqvJuM234j69KTfAVb7eVlCaVaXFE15tiKe5a54b4DPh+t+jytWWHGJk00cwTH8KUMv9vlcI0DMSa6rNqsg9hPV0TU6Xm1xv3bprsqNa+GLRK/w1EbW7pzhs/1gowkG1GglhjtjeMZGBHJCkDBPjciplHg00MRut2970QvUFdOPOT9qqDNXc+q085n8EU1vqbHjjfzSw6PkluD/iJDe5H8/+UbcRCFQJFnorGDwNcx9IkKfAWtN4ZJAfxnNpAAiB1IKnPQjDscFicU9lV4Z+o9uwYL6D9Q29wASJcZA0M9kBq8cQOUgK/r6LFuTMMQfUNu6BjycGKd3PTfOscvuDzLfOQ/h+WfiU0fJUvkdlA8ptDXqjZE7KOZtuZbfK8+d9JPpBDLtHrZqlSCyBjKeB69uW3WHFe8Nz0cR+/XtTQ1e/9JAd7TqOxvWr1uGpnI0xMx/mTtXhx2KJsrDqWEKHhE5ZuqmYbUfGB1yw/a6ieIGW1bV0416VQ42PAPooAAAAAAAAAAAAAAAAA=" parent="1" vertex="1">
          <mxGeometry x="174.54000000000002" y="675" width="60" height="60" as="geometry" />
        </mxCell>
        <mxCell id="nHwe-JYxMAztrHhhpzCX-39" value="" style="shape=image;verticalLabelPosition=bottom;verticalAlign=top;imageAspect=0;aspect=fixed;image=data:image/webp,UklGRhA1AABXRUJQVlA4WAoAAAAQAAAA8wEA8wEAQUxQSB8WAAAB8Eds+y+3/v9dlmWMZYxljFhiWcYYMWLEGDUiRkRURFSNiqioii22iooRVbFViarYtoioiKeKUVttETW2qqqqqKqIGhERERURUSOiRsQYY4zrj1lrzfo1ee7+NRExAej4v+P/jv87/u/4v+P/jv87/u/4v+P/jv87/u/4v+P/jv87/u/4v+P/jv87/u/4v+P/jv87/u+EUgz7gHgqJPxSWyl1p9P3eDz0S218BcllklvDv9ICKd8Cm8vjgV9nkm+G+o1Z6ZfZ7LucAdf8v8ymPksf9T5p+GWuRO9F35O8mNXkX2S9yb7XPimELZ6+1gAJkH6BBQcq3BeBhc07PQD8QPRXVzjelaqQfCsgHlfVNACsfUVAQCLwX4xybQjb0/uqdmePzXsa9CPql3IypI3xZcJJt3v8/zdoUMyoTlOhOCkYUW1Iuc7sgBlZPx57tPKF+kVZX0sMj0QGx0lu3JKd+2xfka+fAVf45P6plUKhcMzTQqFQKK5PhWUnKZm4bGN3n9JCOCHbmZIsik7K9oYjkSYlPinLsjYCJFOKGf5ffFUsvp6IAZIzVKhi32LxhFYWi3/ci0BMQrEPQ7R1Fy3KV7RVtUZ6RtvjTcGFk8qPk5ccUpcYMbNrfHJqYtdsxejnrs0H5i53nXyya8+PXTt/OEj/7NNoOOQEaK9LtPV4PhOUPQZu8O/a90+TX8DWzeALzvvOKZgxeXP+RU2nfAeGyuR+wygfgcmAAPh90H98B4BPvTBVHwrDiYEQgMjypT21/bkYLM85juSPBcW+0e067T/2tb8Y7b/wARCAt/1YvijeuGDUili+PrLbdLnQbYRPNFmf0kwgM6aoMOSJBiBVNcXatL8F1Rp0Y3GnQQduDkUVzyAbL2UFqmXh7vEdOlNoe8qcAzgG3UIWywVuFShYEBRT6e47BfIq2z9gpGlzSw29+tjNuJlXXIoaZWUAYup1+VPRBCuDprTiC8ESf+6UTi1OCppnkMeTPsUqMbNNp7a/4KETNlW9CSwXVnjLEl3pAev3AdkIsoxnjaZiDM1CWEYAgfUG+X70gZ7JMZquPAHisqQCkvSBXL05YE4OpGNLJTr522ggKsoeQX7rkpSWfILU07vS4DVJQrjmBCZ1fstiejq9ObwesAr4o6j40WLwGclSEroTlcvpQPBRgyTz3XrBbKjJL1ya489uRU1kNcB/SpLlYXPwje7S6QdRBD2D1Qf9/lbEhH90nw5ud37cpSMXdZCEEgFCWtw6fyKJVsXBLVY1NaazSR7hYYO6mxGd6muxafWK5q8eT6RunnId/g/U/RQ2EUbkC11YL8SBLo8gX0I25w/5V+u8Pmnae2d80dFEwK9B1Pqts/jFMAz/IPMPabyt824DADS2+huACEntOw0PRoy0hSu68+qeqHkG12BaS8T26Ox2p47ToWkZLu4XjJBIRp+Y+KQjJpq6vrEyWTXxSgPE2BU3izS51a0XfUbXXqbT3sFFU5B3ea0Snzvlr26/C5SkXkgyUhGUAy8MjsZ0dLVIPKtBWTB4JgOQQ9LkR5ou3esJqwH/Dt38R7fPM65uSHpBGX17dHqwzQn7TvkSgBvHIjpme3Mvcr29qzqliZRBEMrS51hYApKvdZ5CP/6cLS7e7upSPtLdTzXPYDUZ1+kODf+k46faXD+dWo05L4yp6l8tLZEfoWrfSB5l+kQAYYQhJlbI0gjCEIf+JK/GY2EAYTHw24sWTgaVWz0XdPsnn2ewIOoIsQNet5Ycw3nZSdH8OND/lGReBjCeDxk8JT9FAeGA9ZFhQJSVNABlhST3c5FeAE/5GxDJz2WADFs8vulD9Dvd/7FX9QreBqAAb3jtOnXOieakofI8MEOS9WkNmGwMGKQ3VkQFCM2/zN6KA8o85xTE16g/H40D2dkI8IzciiHdaOFvKHPv6IUrimfsRABEV3ntStPBUauK1lO3ViwWd2vFVg9Z1K+QxeI+jUvFYnG3vF8skmS5WKy1cFg8OqY3FvXP3Mc7miqN1q5fL530p1X8v/5EQeQHr18NJ5U0i3KWPsvl3pjYzuZyudza8eKTuVzLf+ZyudMWtnO53J5RZflZ7tGf87kSefIol3uW9476k1wulyt4QGMMr3j9ytLRMxZZO9z4R9s26sX4Sejmd+bvqbDyLlvcSomrFSP+jKcBQCtx0w+fuu0dXASAnAdw9gGvX8G3znrloNibAUUp6FzdjyNz8LhOciHlayl1Y+nWe3PVhyvPaPrwVRO0yXkRyjw9tNLvFZuNa1io6qwLv3MECUD2PcnzXJcM4XaNzScnPWoL/We86n5h5qKn6x5bPIlrMExWvIRfIwFvcG9by9HhM87Rzdyvk9NhAche0HColT6Sau8/RtWhmw+uDKrPPjfx4nejd/TWpWGbLnebL71rsZ3967Qth4naveVETAZwRONcQjNQAgDwtLaWUaPv9S56J59XaPgMog4/GYTp1vrfNWvOBJsKaPYHBtdL3lRoY+q50xh2ltk1o1IaxuPaxKkGCAAQ+tB0cS8/d5vGn8UxvX1Jb8Gyi4Jds8r9uiW87wgASeHd/xl36Ph81CXaO72zrCYbaWNVloZkNKvhA/J86Au5PGZkfHFHRxEbliUwb0v9kSINTdUsKTkF0I7cVt7L5/MfDi+vCwXnffI5QvJDUgGE5bluTQe+ZZ3BKAx7ewYqJEsT/iZJkPfO7isH5Jz8oNLC5oj0cgQA8rR8TFoyUz85OTn5aaY2GQIUTFes4JBjhHTdTZevx6Hvy/51ch0IVJzXGHBEv/rwLgCkN/m/iB6UV2Q5nYNhX+xxlc31DRG6id9D4qP1P/3ArYrej6ZXISFPPgHw2Tr+pOHVzqQ2BiA09ccXvdpMJASExPhgxYp5x/giP91z+SrSrxg0D39tf49p+fmGZVx1RNcO6+MSsN5g46MY0+kde1UfCGoQAwEBCKv3a9RvLAJdCqDF0Pc7IgDSz3Ve+3rJ9z7xHcn6UleCDnwYFyEAgACII+9J1h8iHAOgdIdHrLhwDAIHrtm+Fe2WRVMQbp21t3B407p8xLoTRyhX5GQc62z+kIg1ARAAIHPRWFSV+BzJ9akqm2eVuAQASmQgLQPw3VhqWoDCi251i8210Rn7jrtg3pcYqnNRO2rMQndwvd5abdkx+OSW08E0Wpe7N9taBLQ+G/hpGVWo9gk7lb1e/wPqH/WH9XSnyLoa/b1KloFlHU6KaNb8Gb4QACC9QvKycPqhe7hO/cqhDb9hk+RrJd2CgoH+cXGBpJ46MFxriV+dc+aSMz9SFkC5M3faxjBrwxiOrXuuoeVI6/G+ZCTyuGHArxHj/khkgtzuz1VINu73/dBrzA5GIpHI4MxP8nUmEolEhpZIspSM5OlEBTPkx0yk1VgyGkTP72Xu60HKTFdastdcsOyOrylYLcff8kPb2rEBeGrdwUh3S2y7R6VWDheqtLR2B4hqicyAAZAerLhEW6I745pkFWLKdrtSUg3rPgB3reMIWt6y8Iz1ra0zg+qWyVrTya4lX7a2roy2TF5YczbUX2qBZHXLyjsAfPEQRIOgKGKw5o7MuTsWtYTfsr5gz0ybCjyi9S+BpA3rsZYsDFbI2xCW9CZg6Ftg8358Q+94y8TlTUyS+2ulpv/BuLdsxXFEUvpLLb2B5dGJjQEDANo0XRCMjDXoygsVbvcmXNowBYSq1pU0+7DDSqQvg9ckj6dhPEP9Q+1LU0VGweA8hEmSCUw1cV02eDJSJrlbMHWaAjRlttRCbcIyZZIsmknRaaIsp2aP6dJ1XEtu0EYBQNE6jjogsJwBAKHAozTgExIbo8AsDc+V0GeSlz6s69XivmckOdu1pMP3oS4dRbxFXkn428RZn9IlAbhbMleMWoZbZMWoa7bsqHKxWDyimyPXEV/8nQ1nTcs2fHCAceC3mAyIgSuWg3M0WZ2Wt0ien1H3ckC6W29ilYaHPTqQPpLVXv8Xo5KmzP0uAuHIYM3UPKxXl/YHDKKrbKsl33VEjF/a8C8AjNrAoHMkpVcEoDbIFZquqfFdGn+/Jc6x9Q/hpugbkqxVaHgk4wG5DIh9iVjJTMaGmADjR2yvu7iW3KWNuaakHU+cY9j1ZOfOrrl6QkmcGgUhlS3g3ACADbZ4GgOWyZ0YAHRNlkzAicos/wPAph3BJjRs2JMSDusHVK1ialWdEcdOdcpJQMyUWztWAGWTuo2G3rECDbc//cgqIoCUljknKxXHZPlfgHZiw0+/Tt6G+n04XAtEfMiaWQFkIPWe5I8+NCfrrayHAN8b6jZuJ741nSWgKyUgA4AsJKtnYeXcLlmEBCjj/E8gRRu/QveJDfyf03xfuS9i/NLgYQjNys1LXvqhKy608DIFzfeG+lcSlptOQjoxDYbJbOUbhEO7EPk9CeUF/xtYtGNBb8iOE6fdIakCt77rLEHUEfvvLY/A+Kapz1omEn1D4/UHlSYeKQEgvH8RN4iWyHfvaFdgmNPKVK0NfReuI8d2jOrBjka3w7DNFQBqV5XkNgznuCXCbNLEcRjACK08kINintyF2qSc0jil2tC9TL5iW45dQ1K0sRI2KNrADdFhADSgWxgh38qAyDdBdZLkVsAMRip6X6IzIQDPGxbwuLv/dr2xIAKAekqT47BRWGO7/ufaERQ/2XECwxU7Tl0AQJAwPQEA8nYOC2wup81gptG0HgLgn5WQs4IHvYgmAEBNnpNk9dF8jeQnO7qrbev7tQP+CzvyRhN2cChh5syd1G+cmWbzj7Ozs7NzXpydW8LDNHQzJTZvAUWSlTMbL9m+p68b/iztnDKSbcn7zbC9HikBAOoP6jbu3zxn+175YdNx2J5ej0nQAcKGLSkj7NpxJpiZcuHaWtVof0p3kfznwZT+M72d+fmXJuZfG/Ag5Uf6lC3vPJ2ydn7Dyy6lvE18qVqWloPvC247EVtIOiFetaMMkwU7OGHGhVph+V5Fb38hAgBdR+S+DP13PJ97T3Ixpsw1dM4yyBhxfzByWpuIX7awJGqwVNzysG9B7bldXJesUvrW6DoGWrjhhN9p556ZGVveuSpxUhha1jkOyT4A0RJJHvQC8Ekb5FOAJMvSg88NkhfdQLhixIMfvPRhvYXKYEiSrMBk3asqT26F5THbuCpIPVZIg3v0gP4W8vbUlaZdW34WTe7bQslN6O9TZv4h+WMNzV3fqXs4BgQ/kfw3PNrEzzH/A7I8Cgh5tvi/hVoLrA0pPS35w0Byv2HLnntOUvEogEPb+E1Nqi35o3+Rzrhh05q5wJk9JwCgNmxx7ryrIKJHfcs9yd8UPqLhadj/kc016p9J+OtMA7BO++sriikZCH2rjSHW+9iO6qJbzkZExBQAH+1j9XGiFW3mkk5Bw55Gv6kZ2udboycW3dXcPRkJA0D4iCarO2x1V72vQQl/pI379450yLdjgGIQHlDvkKcAwis2fMq549+MAMMRB5CXdzNmUosX1HcftzMJv0H0wqY3AMRjb6hFXJdN+dR+IHlEKy9rBtyKAcI6Wy8WDPbiSvJAj8yPBPUEOa1lGzwGgqIy17DsgfMq5cK9GETZSDx2AsniylTzTOGYJh3xySYeT+gF50u0eRlAHz1y3nUyHpyf3Bor0cr3Qsaomo6KebZeBv7W2ZeBgFwxIBvF4qNcoXh4JMgYnA9Bd7JulWzP8XLrmVQIkASYXnWItY5YtYssFQsvisUGbb8JIO8VZ6LbgDPywyktXUbQoHpTDuRpYXVAuWjai6G5+8DI8CgJ08m3Fn2APQU4srvuaVn7nFpVABx6BW+7L0ce0trG6p5e9SbEj7S0USPJHxJ0+4dOWjiSASAyZBATHltzywukd54mesVJAAjTM1+4D31D/V+sMfkoGFmnjZUBGCeOzL0CIMauuKIH3Dq24hBegGjdNVNOQNEjPgBY8I6fEfdpSPX8aOV81Ux9OtX7ijYeZgZNBNUDU1zRgDvkqUHXES1sjHlDcM/TVjxiGsAX72BWdZv8ZEIK9H43VxrG7YpBdQT4nTZeyNC2izdSOgjI+6aYFyD9ezGrE9C+08o38AZ52NMy3lABkKKHFgI6Sfe+J9+MJZ+dmqk/TCaTrw0eJZPJG4fW7QWABfLLHT0geWCKS5ooSH6dgVNaWRlNJpN/eYAWf+ll/pInLAJY9JITPbbnvSiAh+ScYAT1xBRXERJjTeEq3ekUIHPhYXjnCaNA8NJLmNYpuP903+DfgmGd3PlQ0C9aU7kBAPLkPEwnqqa47AeAoHJES08LzfuegFEPU7qqHvAPIPXTUws6Hhj947Lp58if0I/vlosjGvSju2Ya2zU9rogAoKRMCUskT2aMmA8C6DqipcdjKgBxwRtSs96l3XzpAWOA8tpbGJW9QVZGf5KXN8KyQas3jo3qU8lFA74cBmK3JqJ6ShSBZZIHaWn2yoAFqMp3WjsM3Zw3IL7vWfAFK6479UEJlj1mWvJ7AhC83zgflWB5+FSv8TQdv7djwLWgdpdc1IsHg2skL0cGo0PJSwMudX2npdW7KW9Bzw/PgnbfbWUFUEbpsXvwyqD6oEfssSzWdbOksyCKiihtG7CABfJvPWCV5Pc+UQ4C81cGrNLS6k1B9BQFQqTkWaL2zmWLfgCvvaameoX9WonkH9AdfmfA56nNHU1PLZDc0QbQrN2oGlhbz/ph6BHN/SXnDTsEGC+6ajMEIPrTa7gYaxOY/Nl41q0HrBhwQwQEAYC2RPKrX4G+kKnYUM+mvUgbKjlOcIwSLbnoS7TbD0zT3o3prIXjCw179qV2Icfjd2Goxv6u6DEvINQX6PG/InkkwdgXT1t3FINZD5ET0ZJXoSd65ZqjsAzE8MGmTAgWyjizh/F2YV5DsP9Aj0v9QMy/RPLyrmwCUDKXFn264VEIBhJvvUoJpEsuOervA4A47b2ExX/ZtBxoQ4CK0N96XIr3hVdIfu+DLJmBcufKivrTgAaPikLsmvYoEUi64zQhDjU9salg1R2bLqS2BECePNXhc2WF5E4PWr9Rbe1dv4IWvUS3d9+TgODw4DsXLHWjuVc8smnNqkjdHt7X2lTQj8XTJm6T3FOUdGvScN1c4/AeFHhcum+j7EkK0sqTc4d9mdVGtCakGzYNW4WiTZtqm4IM+KbOqF+7hdalSJ6mvz2Io3XFc+ALBP+peJBu999OOp0WYPySNocse24T4+1Kt2vyVIf1aa2lWJ4mqx+HFYTaAUSg723dGarjQqK6XnHI5QO/AOPgV5tOBMuG7Jpabucvllc3dNgYg99nKrxOk1cv3y+/WF5dtvCz92hAFNLTkn3vHysugNb79MwB25N+vwyT3TWbNhXLhIZNW7wuZuMwGRTzdP2OOwyFqcKhDReFSQGuFSbW9m35dz6FVn+jzTnL1PAXm5i9Jj5Mqaait7MufzCbdhWgIp7Nb5TLNaNqpVzeyC9mE8Eo3K0gOJ1/XS63Ui2XP6xmRUBpKT2etVe0DOGsvTNZ/KcZSRl2heCxyZR5BW02jI7/O/7v+L/j/47/O/7v+L/j/47/O/7v+L/j/47/O/7v+L/j/47/O/7v+L/j/47/O/7v+L/j/84kAQBWUDggyh4AADCpAJ0BKvQB9AE+bTaWSSQioiEg+ikYgA2JaW7hdVEe9czA8Fj0nLJGht5fzP1D+K10wPMB0XfQO/o/Ui8+37Mf7i5S94Y/pv40/s/48/1b+m/sH+73r/+L/J/2n8lP7n7WX7J5FuhPFP9lfy/9q/IP2U/xvgT8N/5n1AvxX+Q/5H80/8J8OHyPa66L/g/9j/afYF9d/n/+n/t37l/3/0iP8D0L+t3+n+4D7AP5Z/N/9R/e/yM+Yv7v4GH17/L/tF8AH8t/r3+2/u35QfSj+9f83/H/7H9s/Zx+af3f/lf4r/M/IL/KP6R/wv7j/l//t+////+5b/0e3T9pv/b7lX6x/9f8/w45tdwHoXulC4tVw0z4Ze6ULi1XDTPhl7pQuLVcNM+GXulC4tVw0z4Ze6ULi1XDTPhl7pQuLVcNM+GXulC4tVw0z4Ze6ULi1XDTPhl7pQuLVcNM+GXulC4tVw0z4Ze6ULi1XDTPhl7pQuLVcNM+GXulC4tVw0z4Ze6ULi1XDTPhl7pQuLVcNM+GXulC4tVw0z4Ze6ULi1XDTPhl7pQuLVcNM+GXulC4tVw0z4Ze6ULi1VThO04ht5zXsABCULi1XDTPhl7pQuLVURg6T0fNbz5YRhTP83WptOJVn//TlFxt7S/3/4YNrFwPNUQ4N3GxSoQZzBDRpBtJdi2fHylpr/WSrNolEqCxBFbCsZ50SMlAU+9y8/sYpwyT8RGsK8wFG3dZrrMmhVSYo98pK+TWN64EDnlqN0+7N9/i6gfIrrC309LsZ7bOGrduFwYjJ+9VH+5m/fzm0CHUv2XyRUgKnufEzaAvW/Chifgt5w7WjPe1ANIjnAYKUDwby05clEHHjmPfXrLFyJzSEsBAkFGoGZE52iCKlH9gxX2CGZgjs0w78ourtWp7XVlxDCx3U+OQWnJ0gZN8eAzrSaYMAP6/3uIb+d6kQ8gOCCDduJ/E0sLUxRqyhOWfCBuEzhVE+C/LGrIdIyjUEaoCDmL656/Z+Ba/XUjAYgNypVBGfoPwiZMyDPP3e8nzWGSrSu+G59ErKToulZPW0hEsy80nB40BpWWC5QEWuppQSNtJn8Zc46nwIwaXKSkfoMbWJnOCaNyOQCA8ywfiXlwQIV+sAK2chVLOFkckDqLmmvPYEEwq29GzUlikbV5DRACpzBTfNisA6GSU2KdGFwrWGOt027bgw/fFa2502BwglwZ+VvYe6Wn6dxdMqFl+Wl20Ku5by+j0FUgoRyJpjqy+uGOjSrataFWIG74FuhfbSobbXld9pd7AQl9kTPWtFfzKQF7Kx+85RLCil+Qygp0a4SjyVOoHeFmwJppX8TfHAZeZ+miA7AQQCMp5Dg5eVHkBfzd3jUh1KSseMI9J+V/z0HfUOd5a83S7xfCoW+0xAhPfaK2DNZYUwJrx4a9pXPO6Pf0m8bTJid/+EwjGPQftqkU/9HayPCpk9fygEOwvOe+xvJt60pqD9e8Wh//ahFogd2W+9YbP1r18BUcfwpxv02NDVL+J+OxqJ1Ry3r7GMXmlV65uXfteJCskI5ciAl5pkWGmfDL3ShcPyQCnC0os2uxuQHoXulC4tVw0z4Ze6ULi1XDTPhl7pQuLVcNM+GXulC4tVw0z4Ze6ULi1XDTPhl7pQuLVcNM+GXulC4tVw0z4Ze6ULi1XDTPhl7pQuLVcNM+GXulC4tVw0z4Ze6ULi1XDTPhl7pQuLVcNM+GXulC4tVw0z4Ze6ULi1XDTPhl7pQuLVcNM+GXulC4tVw0z4Ze6ULi1XDTPhl7pQuLVcNM+GXulC4tVw0z4Ze6ULi1XDTPaAAD+/7+cAAAAAAAAAAAAAFpzhRLON90BmcRzUAsJ0g0on6GfdXvy8Vzehi43W9il0fz8XBAZ5klfvDvO+ksCg03PVKd6Whdq77lk8uE8YXXmYBQEOryYjp2wh2GiGh1Bb3pPeVblMe2NixN6efZedAtXeiGQBIsNj/RQYSPC29ZTGXNegxMHag3oLSeJYxD1sow2H2gWq8E/yIK9vOoHX3DMCWFEk3vrKt+cf70JjoLxiTb0fdqAu5FdA4h3lMsCu6zqG+mm9SXKLEIifctB0issO1iZzWA9BDvkfszczIH43ExjJCUY94hffy8fSFgVo+RmRweGJkig+UmFc8Jgah05l8wsiFY76yT5GtdguqsdUQadCXBQzaY7p7oMYlANu5vC1/5Mvd4mDBNNKxxmrzBTPES73FU28HBzjLUWia+rNAQd58+UkmZ6s7TKWP2WBjo8Fd+mmSJjchfhvNM8/IdZm+X+SJ0JFVprxob4su6IIF71Uq0YlQ5jh+l2S/ueGHxEfboRyUD/6mVcjMDauo+It31du0i1pFSkkleO7YLrp3URTjhPHl1JOoIWz4D49I70ht+2BJ617lnQf+zL5ml+v3s7xhaKIj8gsvrBMHujlrSI6A7QK8f9UP6ijx/OPnJkSAkRnR4F06OFFXnAsWhjFDui27rahvOZqtDETVz3dc8L0ngyiPIaqpsdQXIdVF06aELPWgFzyWETb5qPlAbdSj97oKIowQpORKzCFOeqbmjZT5fFCn6QFRtr8Y71TGNUcGzjy2XFJc0z+amaNOJrptUok7JE5nTrxD8gSXyXT8Y6tFs6YhGmczuVeZL9ck3TLvgLqgeidkx1Ls/akDXBMAAjhJv/R8AtonSx+1AHCBZmkkSjWk6OiPLkHN3vW0EAeq81dX1FGO3RPHTUCqH5Yfc6OWgn61ec3ThrKsnsgO5m0dEu6QQZIrCLu8HjdgiC0kItBCqMeFQX/L8geml2oEzfumAMWSzvaHPSCqXDMovMzEZFayQbDjpPKZDsvURXLnJelkL7PRR1Ng0zYU3ubUptmhtUYn0S9k5rg9hF5PNpaY/Fzsmvg+J7T8kVeJbu57qT7o8ku7A/kO2kAKDgJjcQcHpeYvw/T7jTeF3YtMp3JDT77eBMKiWISoAYk5fc+2h6Q/4n1N4zidhXPJN1aGNsUQjHHctKhI5SdoE018equrBhfPQQhP1nrOABehxyvlYkfw1hgLZq9lFs7RncFQX/kpMyos0Q7LLiGzENlA9+PGJoGsr+9J//3ImeTSRsAQJoEg39vqG5wHybyv/3nV7fADNZZLANkwsIYZykeZVhvCLDxKP5CAuuSvMMzCjG45B7Qg4B4bo+m71Hs9kPKMgCsrhneKuZIfTM2k5f95apk4v5aa26eI6LMkkHtV0zDfhXjlK+sQo7Cp+QEbdC/VqhHS9Y6YBEFPfbm8nKAHfzQeokbvtr/nfM5hn/R5NljkfNh74/EgMT73rD+LHBvgVhJYFxCnuUp+Z4rKDCOLrRVuLdOVjb/0JK8UkuWe8ZUVpeLyNxQ9jHuzrmqXEUN4A5MVVM7AFxtm1acIBkKeZBC/S7CPH7PQHQqRNIhGNqI98cu2w3ZsINerugj/Hcf3dWgS2mZ0jXohwYyyZbyXa/ZNaqTsPt+S2Lx73M0YHFAOjkBs706ijr/112IZd/KZCHQDxW1mORkCxgMdid0SgVSIWy4XiL+L0Pqzu6i0tT7NU/amgWIC0//sPCgWh3K80FBwIZlx2gnvteAQgap2mMrWIq7XWKSnxutaM61N0yFHDPuQsRB7hiprMf+EWRfuyfXMcQZl3oUXcmiQb8BLMor77zh2Nq2mkcqVV6XxOJ/BCe7LsKyGQHsWkeaYZxEcM0dd5pIU4tsJZS68P6DJ0CFQNHDUtwHMu3pnMZvsOevvUa1MaDWFR4PSBRpolMB6/xkbVA+lxWNqCRWqotKwwroTA2s8wo/bksEJbeNNLcrnl/UqGDUMBb2IyDakAlxGuwQSP93152kF1YDvLgolk7Jhf4EnuDLgfp9EbRDLszHOCsMxu1FBt1PmyXe4H5OyD9ZmIq4q4P0pD5Uzg/GPu0XRVBEQOYXEcTP9qVTgB4efVbPgGzdNr8C3R/V1eIh6VLVw6RFsTaz8VUts+yf+HjEpGFDV57eaP2x5FgaOikfzPced0B3yHTu6Maz1j4Fjh1vHJjzpRjkQ+6E3HglOpi0mwirKiPE7CH9YH7WPaYiXHRJFoDXBxuWLip3pC7j0PI3+zh+rcv8taD2J58WTN95qg2hGeButvLBtev0g2OP3xE0D8X5gikjvBVb21pRbsUOpyHjhB9r69KuYqorw/UuvP9FAzym1Q0FzunAy5hgutkMeR/gulTfdQu226S1UHbR/JMYU69/IyPuLX5zunypSnvN1O6Q/rb6XBALAa5xeVA4yuP4ZN3Xo2/XDEblRC/+AQaFTSXekrlBT6weZvvdPYK18uM4VJxmqLjPltjW5NCfTh7mDNX4DdByrp5dO57YU6ov2Fd2YJRne//OprDGjmX944IKRLfWgSJ2YAABR44AL8hdaE6m0wZK/uCUNGO+GCVrr+tU8K310YD+CXg6kqnbroeTcQPq6TSfcE61RMCq1MSBWzYQNBsxAXVAmTgjf+UirT+LyihS/KnJiEjlpzz8U3Ab/aAEudWr8xr7UsavuQT0iEV1KigKAuEJUF2YlD10J6K2+Wy+4b7xSk4JqhY+wWi0XLTStYST9EaWaj8FLo+TsaLH4G9SaiA7P0x/lHkbFHbNvLwpL+HwuZazzO45XcrCjN3JYt/gBAz1oZ8z7Bqh6mJmi57llRCO4/vOufMgnwPJkHvKLk7c1Oa67LU6kByD/Q8svTfOUyQxgEL93snaPSqhFuMvYguGQBnPnwPv5Q5MERiRHbyCgsR7bhOUAZx3srVHu6bKKdqSvmPwiYWk7bB0ZCjRLHZcKP/zhkwTKRACTRQvKICdqHkCDJqioJ+XJfzBpzJ3W/BJVFjjVxXsvVky8Aoui1KLdBQkOsW5j/iyN/fTA3dInLkDL+nikJQbtXTlaua6ZAoKY16jLQDq4NNTAKLJIhkP48BqH5wv4+fOnjFCiMc2V3/g0+Mz60z6GUQAtP2KL4t8oLNblHjqR+sByQxzjTDX+I83DCvSvp14B6GLGjhckw3x30T54i394VIDRanHC6wJRqjb0Xy5U2+K1AWd+P6QncbDvCntZO3YeGOVxQRyb5fHDZ0iwXheHWPV3kOE5bxS1OTKKMQmqWSXG1NR1n35qUZjhvx0Hmya+hQBn2W88pI3sbaVaA5jt9kRL9uQceJRRlW1H0/i4Fb5P6PcQyNI5UmP4EykC9KqvRoYWnvf49zUAUbisvOyyeBaBF0nA3JMJqYG0s8vqlo2iXyEZeVz9t8yiDOnCxjj91WWAVisy4TNIoT06XRSxsY1qWrdgaVJZB3nopn2SHXUFhULMC9gyTQxbw+SROvhvVyzvN2ZJg0chDV+7EzQZTlT14fsBgIaSnKtk+V++07mjwjq75AxfniNCjL1eKo5HaLOF9e1n0Z+zWBl+gOJayykFujJ2Z0uvZe7NgG8RjDZl/AQaYOa7G9uR3H/arX3S3UpXPxcKfD2zjTnt9J+8/smXGY7HtZrw3bTQijLaDEApYRc3wvvhroAdf0paleKsMMzp5YL4P81i9g+k9FemMxCKSgm/HcRzbdVGrLAYmgt07UZGDUpetd8xmO65OMMY/wK9K5xRhrwYGdeTsW6ex88dit4s1JWZhsasg/sBHYdzIn5aXVliaBGiR8hF0TqU6J66/vspanaN69S15B0kBOSzlwlVLR+EoEWm03LjDe/ZaRUuNT+4r5kAMAYBU9E8r4tJzj0Qkcy/MIBjwfcTCgXpsGrVBPYwL1Yz8vkN5uc7osRAlEp9QeJskI4kEyyI7eBA+B2Roi3adIExgNphDGNxfZIRZhGyHDYFVpjZ9xNv8fM6n3gkXChRNn2gKaXcgrEcu09opon7QPpfD6XXGGYKj0bOdZqa9ktVyF1KSMiSS7a9wpKYdC2jvc0nZklel3uqlD0AYCOS6Gh5S6O7trkeAwoDPnGrZMKOynvyLeANlgPBZUoW1B+oy+rzCwEfkhSq1cbhKE503yYzWk7T1K+++eGiUSMQ8vV6CLNUp4ej4bDpNI4kvS6WcAobw5kZ4mLDB5HsGgmr9fxlzYFbBYvImFQp2U6xNB6abJpiigmz6Tu3DAGr+jJNiZAGlDj/BBksdomznCx9HWWDDJT8uOW2KZm7Qw2fahesPnFnYl95mVPuMtXMK2nDS07fluZcnDTGGs6sQGbN0THGe6WqMJ3U+4dr5uJlbQ8EZKKCtF9wxYLK/bQHwENm81jkbbbPd5W+yycNeeoxtBg0Mtpdl5NCE/PSA5asHOy/C7DaKW6mUlWGob9DqvbQjwUaUd4fZs8lvWAIanOyRB9O6ZHdl/mYpYjVQcHWVgGCHCJ5Q0D/Gxdd7VHjI8B1GR1y5jwVqNIs1pbVXHkn7fszYUOzAiR2f3VBA5WUnEfvmPFZqdUYqvlvVrcRJwoKjni1169RNtkA3nt0Gjz3E3kiTdhoazzNs0eAkaOW8hUwdRSYeRqujS0m+9KSHZdDvPz18F/DQvkDlty+SN9IpXLE/7ohgFgMmZc0punTBaRZf6HpSArmvw/KN3PssUg40TL4hjpWdvfAF53rtnN48GEyaQA+d/EcWoIyXALTmEz49xusHJXoGVZkcjHFH5NHTfkXQRYYToN3XJb9wz80KHH+Hrm5WYyZfjf9aMzsZI9Sl4/EKjWllYniqB1UUJPJoErfOt8Pu8e9IoyQrUPuyboIz2vUJo3w+bJobISixcfeEuYO5bg20yEYE1/MAzWeeNjND7obkdColUNnAsfsXtKr9QXIzoMzMJmtRN40c7ZM5khfkEP6g3pRqdBKdJ35qdhD1Rf4weuLAAL6DxEXeBQx6Us8HHNefU5/dFPiw2p/pgXB8LlST1j5XuN1SDk7/X8L1RaOaRvr9jZ0jjihFQkPEV/Goczm6yPQgct1iVfhEkj9CPdwXEHhAppszeOzMQPFvxDZmMC7u44BwAed3GdxrBKSsH3Y0GMXXZnC+9+5H/L6asD4xdf877oW+Enqh0oOK5bFBDK2GuQj/8+Qhy0LDVNx7H2+KEl46vzAczV4MIKxvhocd1qLdYtyPwuS4KX8AtqUxmnW9vD42UAos1cL6DNC613ahNmWqfbeh0YFDqZLtU2x5Z5epXGVOirE03wkrgh3uqrbkPses0R0iK6LMyzGfPQrIel/zfh32UodNJcGE4L8ZS/CAWwmODEJkWka9iYE00j8hNLwzAF1dYk4+TRzD105l+h3gOCHSGciNRxX4wcAJzkrxf2Zqs7b0kx7Ujs/R7zBlnyXZTsX9vD371HrzAbEGugidXVH9wbsOwndKNRE0xnB87bnuPDLkIGm4S6QT0xRvhUBWrZCV0mLSwalqwyyR3+deABPU6JnBs1VPWwRZHYPRTp1eIKxfr5t203vdI24XC4wPFtH4OLS8isq9VhhozNQpZBtVgQxzElhkVGMMen0173qVu2C14FZUsljxRQjjuGvKCf/wHKkLhOWzs0CA3rFoE+hFk4mLcw41ZKfp96MzntmgYVkoAZ+4yJiKjKx5N4NUabHfCG6XjB2Ox5ZFsteQkVi0Fbykb9HssUEzqx1OR3WK2u+3MCl7FAPJogwkq/5P8BHwP/hmo/j9KfQmXgd9CSJMZ1uUJw2Nt4cKx2lmItPYSS2PpMh1Q0CYfPUaM27HPIj0OyoXjTVwoR/LsRDyhWdFw/8awlQVxUC2MgbtiBzZr/v2BL+hQ4GwZNP5sPv9U1QxU2AFzB73SVkukmlQG2JQtqAyiJC60gFxuLpnlbcbceeCCjfMC/aD9u4K00bm8fpPJ6XgYQUcW/cVK0iQ62bOq+9ZEOX15akT4cSjSxaIEqLWeaLtaVXe7D5k9ptAVZFyY9X9gKLaf0PP7iwG2mDof6ayQw+GYVyoa9/8ThZEeXHiXTul9OJBVl/VfyDXxI+mRwEZj/wbvPuGhCFLjJAXl+INnzbTVo8tFpLE0WIXZCpXml/Ax41ZLpSZAlvMuPCwUvq6ZjSLzT/vDqENcJsgxjqnRUOTBCZ1MAq+Yx4AqfsjEMDGxucH9eJlMLtY4NdCffdox+whtihVic3yQFfKJPV7/uxxCYsxb3Ld/SAUOpHga0ztnJfbVANnNNEocGB4abCjzLgDwLWISX67/IFcnscCy9+k1bxEk62DchtDKrNEdvGec44f4Xkavv9bvSoyrbev7tIYAcTKpXrQs9SR24ka89Jx/iAxqNAAAr8svXlmtGzcbVe3Uer6ianOBbkdCY4RcHRH12CSlqlMkItDhT83/rX8xoZJrHKjLqGN4kYSwLoB/T6itDUZbyeLOAK1c/UTA1FIoxSop056a6/jbLZjffvYafr7d6AGfbljtn8WUTwmlOv7V8pYyQULcaNrFfWGMGfCQofVVLKjU4PXBi17y2OqRbK74yQs4cz7VxqGJZ2+HQvViYPKHRWEnCL8uV+YJ9vxEf6s0IIqh6YGMVXYBzz/6t1QAHTSYLmOOBiUfh/pUXpdafhWHpXFFAJg+U8ytiiJOlJqmwEqjFNJAPRq3Ch3IQhG9nyg2rQQ1fCml7mNvyqVITfBJbp6d+4GwrWWU39gK5Q3v/nssesBdIOW53rnLGH9XRSlJJqTK1e5pzDTHaKrwW7BtIqiCQpOk94V8mTZWwu2Zi7ALl9duu4IvIYQmtp/T4d4yWNjnzWm3jTLp3NFOzEgFQbjN5iDv/38V41q8nKYySgCIUAcIAUmC81EtEUdA4Imqq2pL8d3rWS9XiDTKFDdq//onw0u4mcEyh2f94JB3zxwe+My6HaXNzxEVR7m/qdRq0mXc3iwsPPM2Q1431hm+ONJXbaTc6CiDT/Ije+7dPv5soF1RNTpPfheK+OOXMkBRmXLAoEUJJFA8RBQvVYljnwzn3KJsiifsZfdSTRJvyF4Lv+wajYEXuTW2q162/cRyMXmCNkHwKerSV6eS+RtP2CJ1O+thsiysduZbaF5WkGxkJzZTAwy8TzMWNCadr9ObqSUkpnerbYeKBoZNfp253tZzckxtpSPdIyzKzLNB9i/SR6vCUMKdYiU7TPY/qduXUtm3Uil35A2Ir1ym1VoSLmFiP4PzHaFY4rJ6hlXVYeYTl7kORn8W2OkPNAR+7PIOaB/DoAKpqFca742Iq99HcUa1Wlj8dkx6UQB3CgFhmkayIq+yXjfZ4tcV8WG3ijnWgVk4mXghYlUbf3qGs89NIu2scweISPWug+mOHogo9lMnZbF85vx61XN8Pk0ch6h3rleg+fb5xaWOWfBFJt76hBLpcXBD59EceSAi82IO7w9/XKwHvIkljy2SQmjXjr9e3m44Xc3z7Jxk6YcGzyxMF5pPHP2hjNYJAD+4DZAy+vqWjuGuFXpc+mvf/F3E3JepDvzL6hc1smKOWG4to58lFOQAXN3RQhOHyvHqvjIirjjOvbJVMHFOwXjtbVFENR96jb4nZn297qJ7+EDV4gBbzg0aIksq1FbI8g6PwUiEfL74GG7PW4Lpn+8hC+99w1NzOycgYdLsuO8c92qcwMmxs7TDY9mZG+wrfhgdQw/J3O1BQOv0fCQF2f7X/NFNRXM8wF0b6Jqnylasj8XK6r0bQ5xC6fCmd9RT0iqW/Oa9/Q+Em+HOKu27ufKnsf3J7jQnuT/3A36sYi6TRvgRUsQUjPcqbuGxCXFbRrGr8CfDEo0kC7SND4aiGT1nZjPXpOQM3/Ox1vlPHqGVxKTIEtaLzxYNltKvQB87ZI8nzB1AAZ93RQrH9uPHZNXmZnYSB1EWrmmFnlzc44Pove7WKBrILU5nE9ydrg1QMfjC5lqeradAKgIG4Sy8DjCMUDCrtfhA3PcfS6VBYN5eLp2A1rbP6yTBFLla3IKPjdzQnDke5D/acZ6SRIIXVb+4Wkruc2C/ShvaA43/NZhRfC+/lLcUDzWv1GWLLJETecfTbVBjtyiCls0WRPszPgy2/angpXtJdO5tOLpq8ODkLNudb7JZK2hFB5yFoOzIp4/pSXuXJERQuKbcI/JRBFOei72MZGX2mgAuDSWPgaJinciuHPnqvJuM234j69KTfAVb7eVlCaVaXFE15tiKe5a54b4DPh+t+jytWWHGJk00cwTH8KUMv9vlcI0DMSa6rNqsg9hPV0TU6Xm1xv3bprsqNa+GLRK/w1EbW7pzhs/1gowkG1GglhjtjeMZGBHJCkDBPjciplHg00MRut2970QvUFdOPOT9qqDNXc+q085n8EU1vqbHjjfzSw6PkluD/iJDe5H8/+UbcRCFQJFnorGDwNcx9IkKfAWtN4ZJAfxnNpAAiB1IKnPQjDscFicU9lV4Z+o9uwYL6D9Q29wASJcZA0M9kBq8cQOUgK/r6LFuTMMQfUNu6BjycGKd3PTfOscvuDzLfOQ/h+WfiU0fJUvkdlA8ptDXqjZE7KOZtuZbfK8+d9JPpBDLtHrZqlSCyBjKeB69uW3WHFe8Nz0cR+/XtTQ1e/9JAd7TqOxvWr1uGpnI0xMx/mTtXhx2KJsrDqWEKHhE5ZuqmYbUfGB1yw/a6ieIGW1bV0416VQ42PAPooAAAAAAAAAAAAAAAAA=" parent="1" vertex="1">
          <mxGeometry x="180.00000000000003" y="145" width="60" height="60" as="geometry" />
        </mxCell>
        <mxCell id="iKYcSD9UfC03l7dQsfJ--1" value="" style="sketch=0;points=[[0.015,0.015,0],[0.985,0.015,0],[0.985,0.985,0],[0.015,0.985,0],[0.25,0,0],[0.5,0,0],[0.75,0,0],[1,0.25,0],[1,0.5,0],[1,0.75,0],[0.75,1,0],[0.5,1,0],[0.25,1,0],[0,0.75,0],[0,0.5,0],[0,0.25,0]];verticalLabelPosition=bottom;html=1;verticalAlign=top;aspect=fixed;align=center;pointerEvents=1;shape=mxgraph.cisco19.rect;prIcon=ips_ids;fillColor=#FAFAFA;strokeColor=#005073;" parent="1" vertex="1">
          <mxGeometry x="420.53" y="175" width="38.4" height="30" as="geometry" />
        </mxCell>
        <mxCell id="iKYcSD9UfC03l7dQsfJ--3" value="" style="endArrow=none;html=1;rounded=0;strokeWidth=2;" parent="1" target="iKYcSD9UfC03l7dQsfJ--1" edge="1">
          <mxGeometry width="50" height="50" relative="1" as="geometry">
            <mxPoint x="190" y="190" as="sourcePoint" />
            <mxPoint x="610" y="190" as="targetPoint" />
          </mxGeometry>
        </mxCell>
        <mxCell id="iKYcSD9UfC03l7dQsfJ--4" value="" style="sketch=0;points=[[0.015,0.015,0],[0.985,0.015,0],[0.985,0.985,0],[0.015,0.985,0],[0.25,0,0],[0.5,0,0],[0.75,0,0],[1,0.25,0],[1,0.5,0],[1,0.75,0],[0.75,1,0],[0.5,1,0],[0.25,1,0],[0,0.75,0],[0,0.5,0],[0,0.25,0]];verticalLabelPosition=bottom;html=1;verticalAlign=top;aspect=fixed;align=center;pointerEvents=1;shape=mxgraph.cisco19.rect;prIcon=ips_ids;fillColor=#FAFAFA;strokeColor=#005073;" parent="1" vertex="1">
          <mxGeometry x="381.6" y="705" width="38.4" height="30" as="geometry" />
        </mxCell>
        <mxCell id="iKYcSD9UfC03l7dQsfJ--5" value="" style="endArrow=none;html=1;rounded=0;strokeWidth=2;" parent="1" target="iKYcSD9UfC03l7dQsfJ--4" edge="1">
          <mxGeometry width="50" height="50" relative="1" as="geometry">
            <mxPoint x="175" y="720" as="sourcePoint" />
            <mxPoint x="595" y="720" as="targetPoint" />
          </mxGeometry>
        </mxCell>
        <mxCell id="iKYcSD9UfC03l7dQsfJ--6" value="" style="endArrow=classic;html=1;rounded=0;entryX=0.985;entryY=0.015;entryDx=0;entryDy=0;entryPerimeter=0;dashed=1;" parent="1" target="iKYcSD9UfC03l7dQsfJ--1" edge="1">
          <mxGeometry width="50" height="50" relative="1" as="geometry">
            <mxPoint x="528" y="79" as="sourcePoint" />
            <mxPoint x="470" y="340" as="targetPoint" />
          </mxGeometry>
        </mxCell>
        <mxCell id="iKYcSD9UfC03l7dQsfJ--8" value="IDS (ML detectando instrusão - TAP provavelmente)" style="text;html=1;strokeColor=none;fillColor=none;align=center;verticalAlign=middle;whiteSpace=wrap;rounded=0;" parent="1" vertex="1">
          <mxGeometry x="505" y="60" width="140" height="30" as="geometry" />
        </mxCell>
        <mxCell id="iKYcSD9UfC03l7dQsfJ--10" value="" style="sketch=0;points=[[0.015,0.015,0],[0.985,0.015,0],[0.985,0.985,0],[0.015,0.985,0],[0.25,0,0],[0.5,0,0],[0.75,0,0],[1,0.25,0],[1,0.5,0],[1,0.75,0],[0.75,1,0],[0.5,1,0],[0.25,1,0],[0,0.75,0],[0,0.5,0],[0,0.25,0]];verticalLabelPosition=bottom;html=1;verticalAlign=top;aspect=fixed;align=center;pointerEvents=1;shape=mxgraph.cisco19.rect;prIcon=ips_ids;fillColor=#FAFAFA;strokeColor=#005073;" parent="1" vertex="1">
          <mxGeometry x="381.6" y="535" width="38.4" height="30" as="geometry" />
        </mxCell>
        <mxCell id="iKYcSD9UfC03l7dQsfJ--11" value="" style="endArrow=none;html=1;rounded=0;strokeWidth=2;entryX=0.5;entryY=1;entryDx=0;entryDy=0;entryPerimeter=0;exitX=0.5;exitY=0;exitDx=0;exitDy=0;" parent="1" source="nHwe-JYxMAztrHhhpzCX-32" target="iKYcSD9UfC03l7dQsfJ--10" edge="1">
          <mxGeometry width="50" height="50" relative="1" as="geometry">
            <mxPoint x="401.6999999999996" y="592" as="sourcePoint" />
            <mxPoint x="401.70000000000005" y="500" as="targetPoint" />
          </mxGeometry>
        </mxCell>
        <mxCell id="iKYcSD9UfC03l7dQsfJ--13" value="" style="endArrow=classic;html=1;rounded=0;dashed=1;entryX=0;entryY=0.5;entryDx=0;entryDy=0;entryPerimeter=0;" parent="1" target="iKYcSD9UfC03l7dQsfJ--10" edge="1">
          <mxGeometry width="50" height="50" relative="1" as="geometry">
            <mxPoint x="276" y="524" as="sourcePoint" />
            <mxPoint x="470" y="360" as="targetPoint" />
          </mxGeometry>
        </mxCell>
        <mxCell id="iKYcSD9UfC03l7dQsfJ--14" value="" style="endArrow=classic;html=1;rounded=0;dashed=1;entryX=0.015;entryY=0.015;entryDx=0;entryDy=0;entryPerimeter=0;" parent="1" target="iKYcSD9UfC03l7dQsfJ--4" edge="1">
          <mxGeometry width="50" height="50" relative="1" as="geometry">
            <mxPoint x="277" y="526" as="sourcePoint" />
            <mxPoint x="470" y="360" as="targetPoint" />
          </mxGeometry>
        </mxCell>
        <mxCell id="iKYcSD9UfC03l7dQsfJ--15" value="IDS" style="text;html=1;strokeColor=none;fillColor=none;align=center;verticalAlign=middle;whiteSpace=wrap;rounded=0;" parent="1" vertex="1">
          <mxGeometry x="229.07999999999998" y="505" width="60" height="30" as="geometry" />
        </mxCell>
      </root>
    </mxGraphModel>
  </diagram>
</mxfile>
